%TF.GenerationSoftware,KiCad,Pcbnew,7.0.10*%
%TF.CreationDate,2024-02-14T22:06:42+09:00*%
%TF.ProjectId,crimping_machine,6372696d-7069-46e6-975f-6d616368696e,rev?*%
%TF.SameCoordinates,Original*%
%TF.FileFunction,Soldermask,Top*%
%TF.FilePolarity,Negative*%
%FSLAX46Y46*%
G04 Gerber Fmt 4.6, Leading zero omitted, Abs format (unit mm)*
G04 Created by KiCad (PCBNEW 7.0.10) date 2024-02-14 22:06:42*
%MOMM*%
%LPD*%
G01*
G04 APERTURE LIST*
G04 Aperture macros list*
%AMRoundRect*
0 Rectangle with rounded corners*
0 $1 Rounding radius*
0 $2 $3 $4 $5 $6 $7 $8 $9 X,Y pos of 4 corners*
0 Add a 4 corners polygon primitive as box body*
4,1,4,$2,$3,$4,$5,$6,$7,$8,$9,$2,$3,0*
0 Add four circle primitives for the rounded corners*
1,1,$1+$1,$2,$3*
1,1,$1+$1,$4,$5*
1,1,$1+$1,$6,$7*
1,1,$1+$1,$8,$9*
0 Add four rect primitives between the rounded corners*
20,1,$1+$1,$2,$3,$4,$5,0*
20,1,$1+$1,$4,$5,$6,$7,0*
20,1,$1+$1,$6,$7,$8,$9,0*
20,1,$1+$1,$8,$9,$2,$3,0*%
%AMFreePoly0*
4,1,9,3.862500,-0.866500,0.737500,-0.866500,0.737500,-0.450000,-0.737500,-0.450000,-0.737500,0.450000,0.737500,0.450000,0.737500,0.866500,3.862500,0.866500,3.862500,-0.866500,3.862500,-0.866500,$1*%
G04 Aperture macros list end*
%ADD10C,2.500000*%
%ADD11RoundRect,0.250000X0.675000X-0.600000X0.675000X0.600000X-0.675000X0.600000X-0.675000X-0.600000X0*%
%ADD12O,1.850000X1.700000*%
%ADD13RoundRect,0.250000X-0.625000X0.312500X-0.625000X-0.312500X0.625000X-0.312500X0.625000X0.312500X0*%
%ADD14RoundRect,0.250000X0.450000X-0.325000X0.450000X0.325000X-0.450000X0.325000X-0.450000X-0.325000X0*%
%ADD15RoundRect,0.237500X-0.300000X-0.237500X0.300000X-0.237500X0.300000X0.237500X-0.300000X0.237500X0*%
%ADD16RoundRect,0.237500X0.237500X-0.250000X0.237500X0.250000X-0.237500X0.250000X-0.237500X-0.250000X0*%
%ADD17C,3.200000*%
%ADD18C,1.700000*%
%ADD19RoundRect,0.250000X0.350000X0.450000X-0.350000X0.450000X-0.350000X-0.450000X0.350000X-0.450000X0*%
%ADD20RoundRect,0.137500X0.137500X-0.662500X0.137500X0.662500X-0.137500X0.662500X-0.137500X-0.662500X0*%
%ADD21RoundRect,0.237500X0.250000X0.237500X-0.250000X0.237500X-0.250000X-0.237500X0.250000X-0.237500X0*%
%ADD22C,2.200000*%
%ADD23RoundRect,0.237500X0.300000X0.237500X-0.300000X0.237500X-0.300000X-0.237500X0.300000X-0.237500X0*%
%ADD24R,0.800000X1.200000*%
%ADD25RoundRect,0.250000X-0.600000X-0.675000X0.600000X-0.675000X0.600000X0.675000X-0.600000X0.675000X0*%
%ADD26O,1.700000X1.850000*%
%ADD27R,1.700000X1.700000*%
%ADD28RoundRect,0.250000X-0.325000X-0.450000X0.325000X-0.450000X0.325000X0.450000X-0.325000X0.450000X0*%
%ADD29RoundRect,0.250000X-0.350000X-0.450000X0.350000X-0.450000X0.350000X0.450000X-0.350000X0.450000X0*%
%ADD30RoundRect,0.137500X-0.662500X-0.137500X0.662500X-0.137500X0.662500X0.137500X-0.662500X0.137500X0*%
%ADD31RoundRect,0.237500X0.237500X-0.300000X0.237500X0.300000X-0.237500X0.300000X-0.237500X-0.300000X0*%
%ADD32RoundRect,0.237500X-0.237500X0.250000X-0.237500X-0.250000X0.237500X-0.250000X0.237500X0.250000X0*%
%ADD33R,1.300000X0.900000*%
%ADD34FreePoly0,180.000000*%
%ADD35RoundRect,0.250000X0.600000X0.675000X-0.600000X0.675000X-0.600000X-0.675000X0.600000X-0.675000X0*%
%ADD36RoundRect,0.237500X-0.237500X0.300000X-0.237500X-0.300000X0.237500X-0.300000X0.237500X0.300000X0*%
%ADD37R,1.600000X1.600000*%
%ADD38C,1.600000*%
%ADD39RoundRect,0.150000X-0.825000X-0.150000X0.825000X-0.150000X0.825000X0.150000X-0.825000X0.150000X0*%
%ADD40RoundRect,0.150000X-0.150000X0.825000X-0.150000X-0.825000X0.150000X-0.825000X0.150000X0.825000X0*%
%ADD41O,1.700000X1.700000*%
%ADD42R,0.900000X1.500000*%
%ADD43R,1.500000X0.900000*%
%ADD44C,0.600000*%
%ADD45R,3.800000X3.800000*%
%ADD46RoundRect,0.150000X0.150000X-0.825000X0.150000X0.825000X-0.150000X0.825000X-0.150000X-0.825000X0*%
%ADD47R,1.550000X1.300000*%
%ADD48RoundRect,0.137500X-0.137500X0.662500X-0.137500X-0.662500X0.137500X-0.662500X0.137500X0.662500X0*%
%ADD49RoundRect,0.250000X-1.000000X-0.650000X1.000000X-0.650000X1.000000X0.650000X-1.000000X0.650000X0*%
%ADD50R,2.000000X2.000000*%
%ADD51C,2.000000*%
%ADD52R,1.300000X1.550000*%
%ADD53RoundRect,0.075000X-0.675000X-0.075000X0.675000X-0.075000X0.675000X0.075000X-0.675000X0.075000X0*%
%ADD54RoundRect,0.075000X-0.075000X-0.675000X0.075000X-0.675000X0.075000X0.675000X-0.075000X0.675000X0*%
%ADD55C,1.500000*%
%ADD56RoundRect,0.250000X0.325000X0.450000X-0.325000X0.450000X-0.325000X-0.450000X0.325000X-0.450000X0*%
%ADD57RoundRect,0.237500X-0.250000X-0.237500X0.250000X-0.237500X0.250000X0.237500X-0.250000X0.237500X0*%
%ADD58C,1.400000*%
G04 APERTURE END LIST*
D10*
%TO.C,J30*%
X-503650000Y-59400000D03*
X-503650000Y-64400000D03*
X-503650000Y-69400000D03*
X-503650000Y-74400000D03*
%TD*%
D11*
%TO.C,J23*%
X-389409580Y-161210000D03*
D12*
X-389409580Y-158710000D03*
X-389409580Y-156210000D03*
X-389409580Y-153710000D03*
X-389409580Y-151210000D03*
%TD*%
D13*
%TO.C,R48*%
X-431800000Y-138999500D03*
X-431800000Y-141924500D03*
%TD*%
D11*
%TO.C,J28*%
X-365364000Y-153122000D03*
D12*
X-365364000Y-150622000D03*
X-365364000Y-148122000D03*
%TD*%
D14*
%TO.C,D2*%
X-487680000Y-151520000D03*
X-487680000Y-149470000D03*
%TD*%
D13*
%TO.C,R54*%
X-423164000Y-138999500D03*
X-423164000Y-141924500D03*
%TD*%
D15*
%TO.C,C40*%
X-487145500Y-137414000D03*
X-485420500Y-137414000D03*
%TD*%
D16*
%TO.C,R75*%
X-395376400Y-126288800D03*
X-395376400Y-124463800D03*
%TD*%
D17*
%TO.C,H1*%
X-512445000Y83185000D03*
%TD*%
D13*
%TO.C,R80*%
X-387096000Y-138999500D03*
X-387096000Y-141924500D03*
%TD*%
D18*
%TO.C,U29*%
X-436245000Y43942000D03*
X-436245000Y46482000D03*
X-436245000Y49022000D03*
X-436245000Y51562000D03*
X-436245000Y54102000D03*
X-436245000Y56642000D03*
X-436245000Y59182000D03*
X-436245000Y61722000D03*
X-436245000Y64262000D03*
X-436245000Y66802000D03*
X-436245000Y69342000D03*
X-492125000Y69342000D03*
X-492125000Y66802000D03*
X-492125000Y64262000D03*
X-492125000Y61722000D03*
X-492125000Y59182000D03*
X-492125000Y56642000D03*
X-492125000Y54102000D03*
X-492125000Y51562000D03*
X-492125000Y49022000D03*
X-492125000Y46482000D03*
X-492125000Y43942000D03*
X-494665000Y43942000D03*
X-494665000Y46482000D03*
X-494665000Y49022000D03*
X-494665000Y51562000D03*
X-494665000Y54102000D03*
X-494665000Y56642000D03*
X-494665000Y59182000D03*
X-494665000Y61722000D03*
X-494665000Y64262000D03*
X-494665000Y66802000D03*
X-494665000Y69342000D03*
%TD*%
D19*
%TO.C,R26*%
X-487850000Y-87950000D03*
X-489850000Y-87950000D03*
%TD*%
D20*
%TO.C,U10*%
X-436108830Y-135584000D03*
X-434838830Y-135584000D03*
X-433568830Y-135584000D03*
X-432298830Y-135584000D03*
X-431028830Y-135584000D03*
X-429758830Y-135584000D03*
X-428488830Y-135584000D03*
X-427218830Y-135584000D03*
X-427218830Y-129084000D03*
X-428488830Y-129084000D03*
X-429758830Y-129084000D03*
X-431028830Y-129084000D03*
X-432298830Y-129084000D03*
X-433568830Y-129084000D03*
X-434838830Y-129084000D03*
X-436108830Y-129084000D03*
%TD*%
D21*
%TO.C,R100*%
X-365850000Y-119800000D03*
X-367675000Y-119800000D03*
%TD*%
D22*
%TO.C,J33*%
X-367770000Y240000D03*
X-367770000Y4050000D03*
X-367770000Y7860000D03*
X-367770000Y11670000D03*
%TD*%
D23*
%TO.C,C35*%
X-458967500Y-69785000D03*
X-460692500Y-69785000D03*
%TD*%
D24*
%TO.C,U34*%
X-486811060Y-135484000D03*
X-484271060Y-135484000D03*
X-484271060Y-129184000D03*
X-485541060Y-129184000D03*
X-486811060Y-129184000D03*
%TD*%
D14*
%TO.C,D4*%
X-464820000Y-151520000D03*
X-464820000Y-149470000D03*
%TD*%
D22*
%TO.C,J35*%
X-367820000Y56007000D03*
X-367820000Y59817000D03*
X-367820000Y63627000D03*
X-367820000Y67437000D03*
%TD*%
D20*
%TO.C,U31*%
X-461591240Y-135584000D03*
X-460321240Y-135584000D03*
X-460321240Y-129084000D03*
X-461591240Y-129084000D03*
%TD*%
D23*
%TO.C,C27*%
X-448691000Y-59817000D03*
X-450416000Y-59817000D03*
%TD*%
D20*
%TO.C,U11*%
X-425061360Y-135584000D03*
X-423791360Y-135584000D03*
X-422521360Y-135584000D03*
X-421251360Y-135584000D03*
X-419981360Y-135584000D03*
X-418711360Y-135584000D03*
X-417441360Y-135584000D03*
X-416171360Y-135584000D03*
X-416171360Y-129084000D03*
X-417441360Y-129084000D03*
X-418711360Y-129084000D03*
X-419981360Y-129084000D03*
X-421251360Y-129084000D03*
X-422521360Y-129084000D03*
X-423791360Y-129084000D03*
X-425061360Y-129084000D03*
%TD*%
D23*
%TO.C,C55*%
X-488475000Y7050000D03*
X-490200000Y7050000D03*
%TD*%
D16*
%TO.C,R41*%
X-442061600Y-126288800D03*
X-442061600Y-124463800D03*
%TD*%
D11*
%TO.C,J15*%
X-435350060Y-161210000D03*
D12*
X-435350060Y-158710000D03*
X-435350060Y-156210000D03*
X-435350060Y-153710000D03*
X-435350060Y-151210000D03*
%TD*%
D22*
%TO.C,J29*%
X-506410000Y-109120000D03*
X-506410000Y-112930000D03*
X-506410000Y-116740000D03*
X-506410000Y-120550000D03*
%TD*%
D14*
%TO.C,D5*%
X-453390000Y-151520000D03*
X-453390000Y-149470000D03*
%TD*%
D25*
%TO.C,J1*%
X-404050000Y-110738300D03*
D26*
X-401550000Y-110738300D03*
%TD*%
D13*
%TO.C,R46*%
X-434340000Y-138999500D03*
X-434340000Y-141924500D03*
%TD*%
D11*
%TO.C,J3*%
X-504260780Y-161210000D03*
D12*
X-504260780Y-158710000D03*
X-504260780Y-156210000D03*
X-504260780Y-153710000D03*
X-504260780Y-151210000D03*
%TD*%
D14*
%TO.C,D9*%
X-407670000Y-151520000D03*
X-407670000Y-149470000D03*
%TD*%
D18*
%TO.C,U27*%
X-436245000Y-50038000D03*
X-436245000Y-47498000D03*
X-436245000Y-44958000D03*
X-436245000Y-42418000D03*
X-436245000Y-39878000D03*
X-436245000Y-37338000D03*
X-436245000Y-34798000D03*
X-436245000Y-32258000D03*
X-436245000Y-29718000D03*
X-436245000Y-27178000D03*
X-436245000Y-24638000D03*
X-492125000Y-24638000D03*
X-492125000Y-27178000D03*
X-492125000Y-29718000D03*
X-492125000Y-32258000D03*
X-492125000Y-34798000D03*
X-492125000Y-37338000D03*
X-492125000Y-39878000D03*
X-492125000Y-42418000D03*
X-492125000Y-44958000D03*
X-492125000Y-47498000D03*
X-492125000Y-50038000D03*
X-494665000Y-50038000D03*
X-494665000Y-47498000D03*
X-494665000Y-44958000D03*
X-494665000Y-42418000D03*
X-494665000Y-39878000D03*
X-494665000Y-37338000D03*
X-494665000Y-34798000D03*
X-494665000Y-32258000D03*
X-494665000Y-29718000D03*
X-494665000Y-27178000D03*
X-494665000Y-24638000D03*
%TD*%
D27*
%TO.C,U24*%
X-407035000Y14922500D03*
D18*
X-407035000Y12382500D03*
X-407035000Y9842500D03*
X-407035000Y7302500D03*
X-407035000Y4762500D03*
X-407035000Y2222500D03*
X-407035000Y-317500D03*
X-407035000Y-2857500D03*
X-407035000Y-5397500D03*
X-407035000Y-7937500D03*
X-407035000Y-10477500D03*
X-371475000Y-10477500D03*
X-371475000Y-7937500D03*
X-371475000Y-5397500D03*
X-371475000Y-2857500D03*
X-371475000Y-317500D03*
X-371475000Y2222500D03*
X-371475000Y4762500D03*
X-371475000Y7302500D03*
X-371475000Y9842500D03*
X-371475000Y12382500D03*
X-371475000Y14922500D03*
%TD*%
D28*
%TO.C,D15*%
X-489852500Y-85800000D03*
X-487802500Y-85800000D03*
%TD*%
D29*
%TO.C,R24*%
X-504550000Y-83100000D03*
X-502550000Y-83100000D03*
%TD*%
D16*
%TO.C,R53*%
X-425043600Y-126288800D03*
X-425043600Y-124463800D03*
%TD*%
D13*
%TO.C,R19*%
X-482981000Y-138999500D03*
X-482981000Y-141924500D03*
%TD*%
%TO.C,R21*%
X-466852000Y-138999500D03*
X-466852000Y-141924500D03*
%TD*%
D30*
%TO.C,U41*%
X-408583200Y-89154000D03*
X-408583200Y-90424000D03*
X-402083200Y-90424000D03*
X-402083200Y-89154000D03*
%TD*%
D13*
%TO.C,R60*%
X-414528000Y-138999500D03*
X-414528000Y-141924500D03*
%TD*%
D11*
%TO.C,J21*%
X-400894700Y-161210000D03*
D12*
X-400894700Y-158710000D03*
X-400894700Y-156210000D03*
X-400894700Y-153710000D03*
X-400894700Y-151210000D03*
%TD*%
D13*
%TO.C,R76*%
X-392176000Y-138999500D03*
X-392176000Y-141924500D03*
%TD*%
D31*
%TO.C,C24*%
X-400177000Y-84068000D03*
X-400177000Y-82343000D03*
%TD*%
D32*
%TO.C,R1*%
X-400253200Y-100816400D03*
X-400253200Y-102641400D03*
%TD*%
D25*
%TO.C,J26*%
X-377952000Y-148859000D03*
D26*
X-375452000Y-148859000D03*
X-372952000Y-148859000D03*
%TD*%
D33*
%TO.C,Q1*%
X-507360000Y-86110000D03*
D34*
X-507447500Y-84610000D03*
D33*
X-507360000Y-83110000D03*
%TD*%
D35*
%TO.C,J54*%
X-384500000Y-88500000D03*
D26*
X-387000000Y-88500000D03*
%TD*%
D11*
%TO.C,J24*%
X-383667020Y-161210000D03*
D12*
X-383667020Y-158710000D03*
X-383667020Y-156210000D03*
%TD*%
D35*
%TO.C,J49*%
X-393500000Y-88500000D03*
D26*
X-396000000Y-88500000D03*
%TD*%
D22*
%TO.C,J41*%
X-506476000Y-30353000D03*
X-506476000Y-34163000D03*
X-506476000Y-37973000D03*
X-506476000Y-41783000D03*
%TD*%
D20*
%TO.C,U13*%
X-402966420Y-135584000D03*
X-401696420Y-135584000D03*
X-400426420Y-135584000D03*
X-399156420Y-135584000D03*
X-397886420Y-135584000D03*
X-396616420Y-135584000D03*
X-395346420Y-135584000D03*
X-394076420Y-135584000D03*
X-394076420Y-129084000D03*
X-395346420Y-129084000D03*
X-396616420Y-129084000D03*
X-397886420Y-129084000D03*
X-399156420Y-129084000D03*
X-400426420Y-129084000D03*
X-401696420Y-129084000D03*
X-402966420Y-129084000D03*
%TD*%
%TO.C,U8*%
X-458203770Y-135584000D03*
X-456933770Y-135584000D03*
X-455663770Y-135584000D03*
X-454393770Y-135584000D03*
X-453123770Y-135584000D03*
X-451853770Y-135584000D03*
X-450583770Y-135584000D03*
X-449313770Y-135584000D03*
X-449313770Y-129084000D03*
X-450583770Y-129084000D03*
X-451853770Y-129084000D03*
X-453123770Y-129084000D03*
X-454393770Y-129084000D03*
X-455663770Y-129084000D03*
X-456933770Y-129084000D03*
X-458203770Y-129084000D03*
%TD*%
D36*
%TO.C,C38*%
X-480314000Y-124513800D03*
X-480314000Y-126238800D03*
%TD*%
D11*
%TO.C,J10*%
X-464062860Y-161210000D03*
D12*
X-464062860Y-158710000D03*
X-464062860Y-156210000D03*
%TD*%
D11*
%TO.C,J22*%
X-395152140Y-161210000D03*
D12*
X-395152140Y-158710000D03*
X-395152140Y-156210000D03*
%TD*%
D37*
%TO.C,C48*%
X-501700000Y-52500000D03*
D38*
X-501700000Y-47500000D03*
%TD*%
D16*
%TO.C,R67*%
X-406400000Y-126288800D03*
X-406400000Y-124463800D03*
%TD*%
D14*
%TO.C,D10*%
X-396240000Y-151520000D03*
X-396240000Y-149470000D03*
%TD*%
D11*
%TO.C,J13*%
X-446835180Y-161210000D03*
D12*
X-446835180Y-158710000D03*
X-446835180Y-156210000D03*
X-446835180Y-153710000D03*
X-446835180Y-151210000D03*
%TD*%
D27*
%TO.C,U25*%
X-407035000Y43402250D03*
D18*
X-407035000Y40862250D03*
X-407035000Y38322250D03*
X-407035000Y35782250D03*
X-407035000Y33242250D03*
X-407035000Y30702250D03*
X-407035000Y28162250D03*
X-407035000Y25622250D03*
X-407035000Y23082250D03*
X-407035000Y20542250D03*
X-407035000Y18002250D03*
X-371475000Y18002250D03*
X-371475000Y20542250D03*
X-371475000Y23082250D03*
X-371475000Y25622250D03*
X-371475000Y28162250D03*
X-371475000Y30702250D03*
X-371475000Y33242250D03*
X-371475000Y35782250D03*
X-371475000Y38322250D03*
X-371475000Y40862250D03*
X-371475000Y43402250D03*
%TD*%
D39*
%TO.C,U4*%
X-407797000Y-99745800D03*
X-407797000Y-101015800D03*
X-407797000Y-102285800D03*
X-407797000Y-103555800D03*
X-402847000Y-103555800D03*
X-402847000Y-102285800D03*
X-402847000Y-101015800D03*
X-402847000Y-99745800D03*
%TD*%
D13*
%TO.C,R98*%
X-362204000Y-138999500D03*
X-362204000Y-141924500D03*
%TD*%
%TO.C,R12*%
X-478409000Y-138999500D03*
X-478409000Y-141924500D03*
%TD*%
D14*
%TO.C,D11*%
X-384810000Y-151520000D03*
X-384810000Y-149470000D03*
%TD*%
D16*
%TO.C,R31*%
X-455676000Y-126288800D03*
X-455676000Y-124463800D03*
%TD*%
D23*
%TO.C,C29*%
X-470016500Y-69785000D03*
X-471741500Y-69785000D03*
%TD*%
D13*
%TO.C,R66*%
X-406908000Y-138999500D03*
X-406908000Y-141924500D03*
%TD*%
D15*
%TO.C,C45*%
X-475334500Y-137414000D03*
X-473609500Y-137414000D03*
%TD*%
D13*
%TO.C,R62*%
X-411988000Y-138999500D03*
X-411988000Y-141924500D03*
%TD*%
D18*
%TO.C,U39*%
X-410808000Y74764000D03*
X-413348000Y74764000D03*
X-421476000Y74764000D03*
X-424016000Y74764000D03*
X-424016000Y56222000D03*
X-421476000Y56222000D03*
X-413348000Y56222000D03*
X-410808000Y56222000D03*
%TD*%
D11*
%TO.C,J12*%
X-452577740Y-161210000D03*
D12*
X-452577740Y-158710000D03*
X-452577740Y-156210000D03*
%TD*%
D13*
%TO.C,R16*%
X-475361000Y-138999500D03*
X-475361000Y-141924500D03*
%TD*%
D16*
%TO.C,R15*%
X-461619600Y-126288800D03*
X-461619600Y-124463800D03*
%TD*%
D40*
%TO.C,U21*%
X-429577500Y-62422000D03*
X-430847500Y-62422000D03*
X-432117500Y-62422000D03*
X-433387500Y-62422000D03*
X-434657500Y-62422000D03*
X-435927500Y-62422000D03*
X-437197500Y-62422000D03*
X-438467500Y-62422000D03*
X-438467500Y-67372000D03*
X-437197500Y-67372000D03*
X-435927500Y-67372000D03*
X-434657500Y-67372000D03*
X-433387500Y-67372000D03*
X-432117500Y-67372000D03*
X-430847500Y-67372000D03*
X-429577500Y-67372000D03*
%TD*%
D16*
%TO.C,R93*%
X-369824000Y-126288800D03*
X-369824000Y-124463800D03*
%TD*%
D13*
%TO.C,R44*%
X-436880000Y-138999500D03*
X-436880000Y-141924500D03*
%TD*%
D24*
%TO.C,U32*%
X-491158530Y-135484000D03*
X-488618530Y-135484000D03*
X-488618530Y-129184000D03*
X-489888530Y-129184000D03*
X-491158530Y-129184000D03*
%TD*%
D13*
%TO.C,R8*%
X-502031000Y-138999500D03*
X-502031000Y-141924500D03*
%TD*%
D16*
%TO.C,R45*%
X-436118000Y-126288800D03*
X-436118000Y-124463800D03*
%TD*%
D20*
%TO.C,U15*%
X-380871480Y-135584000D03*
X-379601480Y-135584000D03*
X-378331480Y-135584000D03*
X-377061480Y-135584000D03*
X-375791480Y-135584000D03*
X-374521480Y-135584000D03*
X-373251480Y-135584000D03*
X-371981480Y-135584000D03*
X-371981480Y-129084000D03*
X-373251480Y-129084000D03*
X-374521480Y-129084000D03*
X-375791480Y-129084000D03*
X-377061480Y-129084000D03*
X-378331480Y-129084000D03*
X-379601480Y-129084000D03*
X-380871480Y-129084000D03*
%TD*%
D16*
%TO.C,R33*%
X-453136000Y-126288800D03*
X-453136000Y-124463800D03*
%TD*%
D35*
%TO.C,J52*%
X-386050000Y-75200000D03*
D26*
X-388550000Y-75200000D03*
X-391050000Y-75200000D03*
X-393550000Y-75200000D03*
X-396050000Y-75200000D03*
%TD*%
D13*
%TO.C,R20*%
X-471043000Y-138999500D03*
X-471043000Y-141924500D03*
%TD*%
%TO.C,R50*%
X-429260000Y-138999500D03*
X-429260000Y-141924500D03*
%TD*%
D25*
%TO.C,J25*%
X-377952000Y-155336000D03*
D26*
X-375452000Y-155336000D03*
X-372952000Y-155336000D03*
%TD*%
D16*
%TO.C,R63*%
X-411480000Y-126288800D03*
X-411480000Y-124463800D03*
%TD*%
D24*
%TO.C,U35*%
X-482463590Y-135484000D03*
X-479923590Y-135484000D03*
X-479923590Y-129184000D03*
X-481193590Y-129184000D03*
X-482463590Y-129184000D03*
%TD*%
D16*
%TO.C,R65*%
X-408940000Y-126288800D03*
X-408940000Y-124463800D03*
%TD*%
D28*
%TO.C,D14*%
X-489865000Y-95300000D03*
X-487815000Y-95300000D03*
%TD*%
D27*
%TO.C,J48*%
X-416306000Y-71602600D03*
D41*
X-418846000Y-71602600D03*
X-421386000Y-71602600D03*
X-423926000Y-71602600D03*
%TD*%
D21*
%TO.C,R25*%
X-487950000Y-97150000D03*
X-489775000Y-97150000D03*
%TD*%
D23*
%TO.C,C58*%
X-488475000Y14550000D03*
X-490200000Y14550000D03*
%TD*%
D24*
%TO.C,U7*%
X-470421180Y-135484000D03*
X-467881180Y-135484000D03*
X-467881180Y-129184000D03*
X-469151180Y-129184000D03*
X-470421180Y-129184000D03*
%TD*%
D18*
%TO.C,U28*%
X-436245000Y-3048000D03*
X-436245000Y-508000D03*
X-436245000Y2032000D03*
X-436245000Y4572000D03*
X-436245000Y7112000D03*
X-436245000Y9652000D03*
X-436245000Y12192000D03*
X-436245000Y14732000D03*
X-436245000Y17272000D03*
X-436245000Y19812000D03*
X-436245000Y22352000D03*
X-492125000Y22352000D03*
X-492125000Y19812000D03*
X-492125000Y17272000D03*
X-492125000Y14732000D03*
X-492125000Y12192000D03*
X-492125000Y9652000D03*
X-492125000Y7112000D03*
X-492125000Y4572000D03*
X-492125000Y2032000D03*
X-492125000Y-508000D03*
X-492125000Y-3048000D03*
X-494665000Y-3048000D03*
X-494665000Y-508000D03*
X-494665000Y2032000D03*
X-494665000Y4572000D03*
X-494665000Y7112000D03*
X-494665000Y9652000D03*
X-494665000Y12192000D03*
X-494665000Y14732000D03*
X-494665000Y17272000D03*
X-494665000Y19812000D03*
X-494665000Y22352000D03*
%TD*%
D16*
%TO.C,R79*%
X-389382000Y-126288800D03*
X-389382000Y-124463800D03*
%TD*%
D27*
%TO.C,J56*%
X-378080000Y-95220000D03*
D41*
X-375540000Y-95220000D03*
X-373000000Y-95220000D03*
X-370460000Y-95220000D03*
%TD*%
D36*
%TO.C,C43*%
X-471043000Y-124513800D03*
X-471043000Y-126238800D03*
%TD*%
D42*
%TO.C,U1*%
X-359860000Y-99350000D03*
X-361130000Y-99350000D03*
X-362400000Y-99350000D03*
X-363670000Y-99350000D03*
X-364940000Y-99350000D03*
X-366210000Y-99350000D03*
X-367480000Y-99350000D03*
X-368750000Y-99350000D03*
X-370020000Y-99350000D03*
X-371290000Y-99350000D03*
X-372560000Y-99350000D03*
X-373830000Y-99350000D03*
X-375100000Y-99350000D03*
X-376370000Y-99350000D03*
D43*
X-377620000Y-102390000D03*
X-377620000Y-103660000D03*
X-377620000Y-104930000D03*
X-377620000Y-106200000D03*
X-377620000Y-107470000D03*
X-377620000Y-108740000D03*
X-377620000Y-110010000D03*
X-377620000Y-111280000D03*
X-377620000Y-112550000D03*
X-377620000Y-113820000D03*
D42*
X-376370000Y-116850000D03*
X-375100000Y-116850000D03*
X-373830000Y-116850000D03*
X-372560000Y-116850000D03*
X-371290000Y-116850000D03*
X-370020000Y-116850000D03*
X-368750000Y-116850000D03*
X-367480000Y-116850000D03*
X-366210000Y-116850000D03*
X-364940000Y-116850000D03*
X-363670000Y-116850000D03*
X-362400000Y-116850000D03*
X-361130000Y-116850000D03*
X-359860000Y-116850000D03*
D44*
X-366880000Y-105200000D03*
X-368280000Y-105200000D03*
X-366180000Y-105900000D03*
X-367580000Y-105900000D03*
X-368980000Y-105900000D03*
X-366880000Y-106575000D03*
X-368280000Y-106575000D03*
D45*
X-367580000Y-106600000D03*
D44*
X-366180000Y-107300000D03*
X-367580000Y-107300000D03*
X-368980000Y-107300000D03*
X-366880000Y-108000000D03*
X-368280000Y-108000000D03*
%TD*%
D23*
%TO.C,C56*%
X-488475000Y9600000D03*
X-490200000Y9600000D03*
%TD*%
D13*
%TO.C,R17*%
X-491363000Y-138999500D03*
X-491363000Y-141924500D03*
%TD*%
D24*
%TO.C,U30*%
X-474768650Y-135484000D03*
X-472228650Y-135484000D03*
X-472228650Y-129184000D03*
X-473498650Y-129184000D03*
X-474768650Y-129184000D03*
%TD*%
D16*
%TO.C,R55*%
X-422503600Y-126288800D03*
X-422503600Y-124463800D03*
%TD*%
D36*
%TO.C,C37*%
X-484505000Y-124513800D03*
X-484505000Y-126238800D03*
%TD*%
D22*
%TO.C,J46*%
X-506437000Y63910000D03*
X-506437000Y60100000D03*
X-506437000Y56290000D03*
X-506437000Y52480000D03*
%TD*%
D13*
%TO.C,R30*%
X-456692000Y-138999500D03*
X-456692000Y-141924500D03*
%TD*%
%TO.C,R82*%
X-384556000Y-138999500D03*
X-384556000Y-141924500D03*
%TD*%
D46*
%TO.C,U18*%
X-471805000Y-67372000D03*
X-470535000Y-67372000D03*
X-469265000Y-67372000D03*
X-467995000Y-67372000D03*
X-466725000Y-67372000D03*
X-465455000Y-67372000D03*
X-464185000Y-67372000D03*
X-462915000Y-67372000D03*
X-462915000Y-62422000D03*
X-464185000Y-62422000D03*
X-465455000Y-62422000D03*
X-466725000Y-62422000D03*
X-467995000Y-62422000D03*
X-469265000Y-62422000D03*
X-470535000Y-62422000D03*
X-471805000Y-62422000D03*
%TD*%
D47*
%TO.C,SW3*%
X-467850000Y-106000000D03*
X-459900000Y-106000000D03*
X-467850000Y-110500000D03*
X-459900000Y-110500000D03*
%TD*%
D27*
%TO.C,J55*%
X-475400000Y-77060000D03*
D41*
X-475400000Y-79600000D03*
X-475400000Y-82140000D03*
X-475400000Y-84680000D03*
X-475400000Y-87220000D03*
X-475400000Y-89760000D03*
X-475400000Y-92300000D03*
X-475400000Y-94840000D03*
X-475400000Y-97380000D03*
X-475400000Y-99920000D03*
X-475400000Y-102460000D03*
X-475400000Y-105000000D03*
%TD*%
D11*
%TO.C,J20*%
X-406637260Y-161210000D03*
D12*
X-406637260Y-158710000D03*
X-406637260Y-156210000D03*
%TD*%
D13*
%TO.C,R6*%
X-499491000Y-138999500D03*
X-499491000Y-141924500D03*
%TD*%
D25*
%TO.C,J27*%
X-377912000Y-161813000D03*
D26*
X-375412000Y-161813000D03*
X-372912000Y-161813000D03*
%TD*%
D27*
%TO.C,U22*%
X-407035000Y-42037000D03*
D18*
X-407035000Y-44577000D03*
X-407035000Y-47117000D03*
X-407035000Y-49657000D03*
X-407035000Y-52197000D03*
X-407035000Y-54737000D03*
X-407035000Y-57277000D03*
X-407035000Y-59817000D03*
X-407035000Y-62357000D03*
X-407035000Y-64897000D03*
X-407035000Y-67437000D03*
X-371475000Y-67437000D03*
X-371475000Y-64897000D03*
X-371475000Y-62357000D03*
X-371475000Y-59817000D03*
X-371475000Y-57277000D03*
X-371475000Y-54737000D03*
X-371475000Y-52197000D03*
X-371475000Y-49657000D03*
X-371475000Y-47117000D03*
X-371475000Y-44577000D03*
X-371475000Y-42037000D03*
%TD*%
D15*
%TO.C,C34*%
X-430731000Y-59752000D03*
X-429006000Y-59752000D03*
%TD*%
D23*
%TO.C,C33*%
X-447865500Y-69785000D03*
X-449590500Y-69785000D03*
%TD*%
%TO.C,C54*%
X-488475000Y-32250000D03*
X-490200000Y-32250000D03*
%TD*%
D39*
%TO.C,U40*%
X-407808200Y-74726800D03*
X-407808200Y-75996800D03*
X-407808200Y-77266800D03*
X-407808200Y-78536800D03*
X-407808200Y-79806800D03*
X-407808200Y-81076800D03*
X-407808200Y-82346800D03*
X-407808200Y-83616800D03*
X-402858200Y-83616800D03*
X-402858200Y-82346800D03*
X-402858200Y-81076800D03*
X-402858200Y-79806800D03*
X-402858200Y-78536800D03*
X-402858200Y-77266800D03*
X-402858200Y-75996800D03*
X-402858200Y-74726800D03*
%TD*%
D13*
%TO.C,R68*%
X-403352000Y-138999500D03*
X-403352000Y-141924500D03*
%TD*%
D23*
%TO.C,C15*%
X-406146000Y-105054400D03*
X-407871000Y-105054400D03*
%TD*%
D13*
%TO.C,R86*%
X-378460000Y-138999500D03*
X-378460000Y-141924500D03*
%TD*%
D35*
%TO.C,J53*%
X-386050000Y-81804000D03*
D26*
X-388550000Y-81804000D03*
X-391050000Y-81804000D03*
X-393550000Y-81804000D03*
X-396050000Y-81804000D03*
%TD*%
D16*
%TO.C,R37*%
X-447141600Y-126288800D03*
X-447141600Y-124463800D03*
%TD*%
D11*
%TO.C,J6*%
X-487033100Y-161210000D03*
D12*
X-487033100Y-158710000D03*
X-487033100Y-156210000D03*
%TD*%
D48*
%TO.C,U42*%
X-484830000Y-61647000D03*
X-486100000Y-61647000D03*
X-486100000Y-68147000D03*
X-484830000Y-68147000D03*
%TD*%
D40*
%TO.C,U19*%
X-474027500Y-62422000D03*
X-475297500Y-62422000D03*
X-476567500Y-62422000D03*
X-477837500Y-62422000D03*
X-479107500Y-62422000D03*
X-480377500Y-62422000D03*
X-481647500Y-62422000D03*
X-482917500Y-62422000D03*
X-482917500Y-67372000D03*
X-481647500Y-67372000D03*
X-480377500Y-67372000D03*
X-479107500Y-67372000D03*
X-477837500Y-67372000D03*
X-476567500Y-67372000D03*
X-475297500Y-67372000D03*
X-474027500Y-67372000D03*
%TD*%
D19*
%TO.C,R23*%
X-502570000Y-87410000D03*
X-504570000Y-87410000D03*
%TD*%
D16*
%TO.C,R61*%
X-414020000Y-126288800D03*
X-414020000Y-124463800D03*
%TD*%
D25*
%TO.C,J47*%
X-395150000Y-102850000D03*
D26*
X-392650000Y-102850000D03*
X-390150000Y-102850000D03*
%TD*%
D16*
%TO.C,R81*%
X-386842000Y-126288800D03*
X-386842000Y-124463800D03*
%TD*%
D49*
%TO.C,D12*%
X-510750000Y-90340000D03*
X-506750000Y-90340000D03*
%TD*%
D16*
%TO.C,R57*%
X-419963600Y-126288800D03*
X-419963600Y-124463800D03*
%TD*%
D11*
%TO.C,J19*%
X-412379820Y-161210000D03*
D12*
X-412379820Y-158710000D03*
X-412379820Y-156210000D03*
X-412379820Y-153710000D03*
X-412379820Y-151210000D03*
%TD*%
D31*
%TO.C,C23*%
X-410641800Y-84048600D03*
X-410641800Y-82323600D03*
%TD*%
D16*
%TO.C,R59*%
X-417423600Y-126288800D03*
X-417423600Y-124463800D03*
%TD*%
D17*
%TO.C,H5*%
X-361950000Y-161925000D03*
%TD*%
D11*
%TO.C,J17*%
X-423864940Y-161210000D03*
D12*
X-423864940Y-158710000D03*
X-423864940Y-156210000D03*
X-423864940Y-153710000D03*
X-423864940Y-151210000D03*
%TD*%
D32*
%TO.C,R102*%
X-484840000Y-70010000D03*
X-484840000Y-71835000D03*
%TD*%
D22*
%TO.C,J44*%
X-506487000Y16920000D03*
X-506487000Y13110000D03*
X-506487000Y9300000D03*
X-506487000Y5490000D03*
%TD*%
D37*
%TO.C,C49*%
X-501700000Y-5500000D03*
D38*
X-501700000Y-500000D03*
%TD*%
D16*
%TO.C,R11*%
X-494411000Y-126288800D03*
X-494411000Y-124463800D03*
%TD*%
D15*
%TO.C,C30*%
X-475462500Y-59879000D03*
X-473737500Y-59879000D03*
%TD*%
D30*
%TO.C,U38*%
X-408583200Y-85670400D03*
X-408583200Y-86940400D03*
X-402083200Y-86940400D03*
X-402083200Y-85670400D03*
%TD*%
D22*
%TO.C,J31*%
X-367800000Y-55850000D03*
X-367800000Y-52040000D03*
X-367800000Y-48230000D03*
X-367800000Y-44420000D03*
%TD*%
D13*
%TO.C,R78*%
X-389636000Y-138999500D03*
X-389636000Y-141924500D03*
%TD*%
D50*
%TO.C,BZ1*%
X-508120000Y-103020000D03*
D51*
X-508120000Y-95420000D03*
%TD*%
D14*
%TO.C,D3*%
X-475800000Y-151520000D03*
X-475800000Y-149470000D03*
%TD*%
D27*
%TO.C,U23*%
X-407035000Y-13557250D03*
D18*
X-407035000Y-16097250D03*
X-407035000Y-18637250D03*
X-407035000Y-21177250D03*
X-407035000Y-23717250D03*
X-407035000Y-26257250D03*
X-407035000Y-28797250D03*
X-407035000Y-31337250D03*
X-407035000Y-33877250D03*
X-407035000Y-36417250D03*
X-407035000Y-38957250D03*
X-371475000Y-38957250D03*
X-371475000Y-36417250D03*
X-371475000Y-33877250D03*
X-371475000Y-31337250D03*
X-371475000Y-28797250D03*
X-371475000Y-26257250D03*
X-371475000Y-23717250D03*
X-371475000Y-21177250D03*
X-371475000Y-18637250D03*
X-371475000Y-16097250D03*
X-371475000Y-13557250D03*
%TD*%
D11*
%TO.C,J5*%
X-492775660Y-161210000D03*
D12*
X-492775660Y-158710000D03*
X-492775660Y-156210000D03*
X-492775660Y-153710000D03*
X-492775660Y-151210000D03*
%TD*%
D11*
%TO.C,J11*%
X-458320300Y-161210000D03*
D12*
X-458320300Y-158710000D03*
X-458320300Y-156210000D03*
X-458320300Y-153710000D03*
X-458320300Y-151210000D03*
%TD*%
D16*
%TO.C,R43*%
X-439521600Y-126288800D03*
X-439521600Y-124463800D03*
%TD*%
D24*
%TO.C,U33*%
X-466073710Y-135484000D03*
X-463533710Y-135484000D03*
X-463533710Y-129184000D03*
X-464803710Y-129184000D03*
X-466073710Y-129184000D03*
%TD*%
D16*
%TO.C,R85*%
X-380898400Y-126288800D03*
X-380898400Y-124463800D03*
%TD*%
D13*
%TO.C,R58*%
X-418084000Y-138999500D03*
X-418084000Y-141924500D03*
%TD*%
D23*
%TO.C,C52*%
X-488475000Y-37300000D03*
X-490200000Y-37300000D03*
%TD*%
D52*
%TO.C,SW1*%
X-381530000Y-109350000D03*
X-381530000Y-117300000D03*
X-386030000Y-109350000D03*
X-386030000Y-117300000D03*
%TD*%
D18*
%TO.C,J51*%
X-367820000Y-80800000D03*
X-367820000Y-76990000D03*
X-367820000Y-73180000D03*
%TD*%
D13*
%TO.C,R18*%
X-487172000Y-138999500D03*
X-487172000Y-141924500D03*
%TD*%
%TO.C,R70*%
X-400812000Y-138999500D03*
X-400812000Y-141924500D03*
%TD*%
D16*
%TO.C,R29*%
X-458216000Y-126288800D03*
X-458216000Y-124463800D03*
%TD*%
D20*
%TO.C,U12*%
X-414013890Y-135584000D03*
X-412743890Y-135584000D03*
X-411473890Y-135584000D03*
X-410203890Y-135584000D03*
X-408933890Y-135584000D03*
X-407663890Y-135584000D03*
X-406393890Y-135584000D03*
X-405123890Y-135584000D03*
X-405123890Y-129084000D03*
X-406393890Y-129084000D03*
X-407663890Y-129084000D03*
X-408933890Y-129084000D03*
X-410203890Y-129084000D03*
X-411473890Y-129084000D03*
X-412743890Y-129084000D03*
X-414013890Y-129084000D03*
%TD*%
D16*
%TO.C,R71*%
X-400456400Y-126288800D03*
X-400456400Y-124463800D03*
%TD*%
D13*
%TO.C,R92*%
X-369824000Y-138999500D03*
X-369824000Y-141924500D03*
%TD*%
%TO.C,R32*%
X-454152000Y-138999500D03*
X-454152000Y-141924500D03*
%TD*%
D16*
%TO.C,R97*%
X-364744000Y-126288800D03*
X-364744000Y-124463800D03*
%TD*%
D11*
%TO.C,J18*%
X-418122380Y-161210000D03*
D12*
X-418122380Y-158710000D03*
X-418122380Y-156210000D03*
%TD*%
D14*
%TO.C,D1*%
X-499110000Y-151520000D03*
X-499110000Y-149470000D03*
%TD*%
D22*
%TO.C,J32*%
X-367795000Y-27940000D03*
X-367795000Y-24130000D03*
X-367795000Y-20320000D03*
X-367795000Y-16510000D03*
%TD*%
D23*
%TO.C,C57*%
X-488475000Y12100000D03*
X-490200000Y12100000D03*
%TD*%
D36*
%TO.C,C36*%
X-488823000Y-124513800D03*
X-488823000Y-126238800D03*
%TD*%
D11*
%TO.C,J14*%
X-441092620Y-161210000D03*
D12*
X-441092620Y-158710000D03*
X-441092620Y-156210000D03*
%TD*%
D11*
%TO.C,J7*%
X-481290540Y-161210000D03*
D12*
X-481290540Y-158710000D03*
X-481290540Y-156210000D03*
X-481290540Y-153710000D03*
X-481290540Y-151210000D03*
%TD*%
D23*
%TO.C,C60*%
X-488475000Y56700000D03*
X-490200000Y56700000D03*
%TD*%
D46*
%TO.C,U17*%
X-449580000Y-67372000D03*
X-448310000Y-67372000D03*
X-447040000Y-67372000D03*
X-445770000Y-67372000D03*
X-444500000Y-67372000D03*
X-443230000Y-67372000D03*
X-441960000Y-67372000D03*
X-440690000Y-67372000D03*
X-440690000Y-62422000D03*
X-441960000Y-62422000D03*
X-443230000Y-62422000D03*
X-444500000Y-62422000D03*
X-445770000Y-62422000D03*
X-447040000Y-62422000D03*
X-448310000Y-62422000D03*
X-449580000Y-62422000D03*
%TD*%
D11*
%TO.C,J8*%
X-475547980Y-161210000D03*
D12*
X-475547980Y-158710000D03*
X-475547980Y-156210000D03*
%TD*%
D23*
%TO.C,C53*%
X-488475000Y-34800000D03*
X-490200000Y-34800000D03*
%TD*%
D15*
%TO.C,C39*%
X-491336500Y-137414000D03*
X-489611500Y-137414000D03*
%TD*%
D14*
%TO.C,D6*%
X-441960000Y-151520000D03*
X-441960000Y-149470000D03*
%TD*%
D22*
%TO.C,J34*%
X-367745000Y28865000D03*
X-367745000Y32675000D03*
X-367745000Y36485000D03*
X-367745000Y40295000D03*
%TD*%
D13*
%TO.C,R94*%
X-367284000Y-138999500D03*
X-367284000Y-141924500D03*
%TD*%
D47*
%TO.C,SW4*%
X-467225000Y-82700000D03*
X-459275000Y-82700000D03*
X-467225000Y-87200000D03*
X-459275000Y-87200000D03*
%TD*%
D16*
%TO.C,R77*%
X-391922000Y-126288800D03*
X-391922000Y-124463800D03*
%TD*%
D13*
%TO.C,R28*%
X-459232000Y-138999500D03*
X-459232000Y-141924500D03*
%TD*%
D16*
%TO.C,R39*%
X-444601600Y-126288800D03*
X-444601600Y-124463800D03*
%TD*%
%TO.C,R87*%
X-378358400Y-126288800D03*
X-378358400Y-124463800D03*
%TD*%
%TO.C,R35*%
X-450596000Y-126288800D03*
X-450596000Y-124463800D03*
%TD*%
D15*
%TO.C,C41*%
X-482827500Y-137414000D03*
X-481102500Y-137414000D03*
%TD*%
D25*
%TO.C,J50*%
X-395361200Y-110718600D03*
D26*
X-392861200Y-110718600D03*
%TD*%
D16*
%TO.C,R7*%
X-499491000Y-126288800D03*
X-499491000Y-124463800D03*
%TD*%
D52*
%TO.C,SW2*%
X-381530000Y-99160000D03*
X-381530000Y-107110000D03*
X-386030000Y-99160000D03*
X-386030000Y-107110000D03*
%TD*%
D16*
%TO.C,R5*%
X-496951000Y-126288800D03*
X-496951000Y-124463800D03*
%TD*%
%TO.C,R69*%
X-402966400Y-126288800D03*
X-402966400Y-124463800D03*
%TD*%
D53*
%TO.C,U2*%
X-451333000Y-80664600D03*
X-451333000Y-81164600D03*
X-451333000Y-81664600D03*
X-451333000Y-82164600D03*
X-451333000Y-82664600D03*
X-451333000Y-83164600D03*
X-451333000Y-83664600D03*
X-451333000Y-84164600D03*
X-451333000Y-84664600D03*
X-451333000Y-85164600D03*
X-451333000Y-85664600D03*
X-451333000Y-86164600D03*
X-451333000Y-86664600D03*
X-451333000Y-87164600D03*
X-451333000Y-87664600D03*
X-451333000Y-88164600D03*
X-451333000Y-88664600D03*
X-451333000Y-89164600D03*
X-451333000Y-89664600D03*
X-451333000Y-90164600D03*
X-451333000Y-90664600D03*
X-451333000Y-91164600D03*
X-451333000Y-91664600D03*
X-451333000Y-92164600D03*
X-451333000Y-92664600D03*
X-451333000Y-93164600D03*
X-451333000Y-93664600D03*
X-451333000Y-94164600D03*
X-451333000Y-94664600D03*
X-451333000Y-95164600D03*
X-451333000Y-95664600D03*
X-451333000Y-96164600D03*
X-451333000Y-96664600D03*
X-451333000Y-97164600D03*
X-451333000Y-97664600D03*
X-451333000Y-98164600D03*
X-451333000Y-98664600D03*
X-451333000Y-99164600D03*
X-451333000Y-99664600D03*
X-451333000Y-100164600D03*
X-451333000Y-100664600D03*
X-451333000Y-101164600D03*
X-451333000Y-101664600D03*
X-451333000Y-102164600D03*
D54*
X-449408000Y-104089600D03*
X-448908000Y-104089600D03*
X-448408000Y-104089600D03*
X-447908000Y-104089600D03*
X-447408000Y-104089600D03*
X-446908000Y-104089600D03*
X-446408000Y-104089600D03*
X-445908000Y-104089600D03*
X-445408000Y-104089600D03*
X-444908000Y-104089600D03*
X-444408000Y-104089600D03*
X-443908000Y-104089600D03*
X-443408000Y-104089600D03*
X-442908000Y-104089600D03*
X-442408000Y-104089600D03*
X-441908000Y-104089600D03*
X-441408000Y-104089600D03*
X-440908000Y-104089600D03*
X-440408000Y-104089600D03*
X-439908000Y-104089600D03*
X-439408000Y-104089600D03*
X-438908000Y-104089600D03*
X-438408000Y-104089600D03*
X-437908000Y-104089600D03*
X-437408000Y-104089600D03*
X-436908000Y-104089600D03*
X-436408000Y-104089600D03*
X-435908000Y-104089600D03*
X-435408000Y-104089600D03*
X-434908000Y-104089600D03*
X-434408000Y-104089600D03*
X-433908000Y-104089600D03*
X-433408000Y-104089600D03*
X-432908000Y-104089600D03*
X-432408000Y-104089600D03*
X-431908000Y-104089600D03*
X-431408000Y-104089600D03*
X-430908000Y-104089600D03*
X-430408000Y-104089600D03*
X-429908000Y-104089600D03*
X-429408000Y-104089600D03*
X-428908000Y-104089600D03*
X-428408000Y-104089600D03*
X-427908000Y-104089600D03*
D53*
X-425983000Y-102164600D03*
X-425983000Y-101664600D03*
X-425983000Y-101164600D03*
X-425983000Y-100664600D03*
X-425983000Y-100164600D03*
X-425983000Y-99664600D03*
X-425983000Y-99164600D03*
X-425983000Y-98664600D03*
X-425983000Y-98164600D03*
X-425983000Y-97664600D03*
X-425983000Y-97164600D03*
X-425983000Y-96664600D03*
X-425983000Y-96164600D03*
X-425983000Y-95664600D03*
X-425983000Y-95164600D03*
X-425983000Y-94664600D03*
X-425983000Y-94164600D03*
X-425983000Y-93664600D03*
X-425983000Y-93164600D03*
X-425983000Y-92664600D03*
X-425983000Y-92164600D03*
X-425983000Y-91664600D03*
X-425983000Y-91164600D03*
X-425983000Y-90664600D03*
X-425983000Y-90164600D03*
X-425983000Y-89664600D03*
X-425983000Y-89164600D03*
X-425983000Y-88664600D03*
X-425983000Y-88164600D03*
X-425983000Y-87664600D03*
X-425983000Y-87164600D03*
X-425983000Y-86664600D03*
X-425983000Y-86164600D03*
X-425983000Y-85664600D03*
X-425983000Y-85164600D03*
X-425983000Y-84664600D03*
X-425983000Y-84164600D03*
X-425983000Y-83664600D03*
X-425983000Y-83164600D03*
X-425983000Y-82664600D03*
X-425983000Y-82164600D03*
X-425983000Y-81664600D03*
X-425983000Y-81164600D03*
X-425983000Y-80664600D03*
D54*
X-427908000Y-78739600D03*
X-428408000Y-78739600D03*
X-428908000Y-78739600D03*
X-429408000Y-78739600D03*
X-429908000Y-78739600D03*
X-430408000Y-78739600D03*
X-430908000Y-78739600D03*
X-431408000Y-78739600D03*
X-431908000Y-78739600D03*
X-432408000Y-78739600D03*
X-432908000Y-78739600D03*
X-433408000Y-78739600D03*
X-433908000Y-78739600D03*
X-434408000Y-78739600D03*
X-434908000Y-78739600D03*
X-435408000Y-78739600D03*
X-435908000Y-78739600D03*
X-436408000Y-78739600D03*
X-436908000Y-78739600D03*
X-437408000Y-78739600D03*
X-437908000Y-78739600D03*
X-438408000Y-78739600D03*
X-438908000Y-78739600D03*
X-439408000Y-78739600D03*
X-439908000Y-78739600D03*
X-440408000Y-78739600D03*
X-440908000Y-78739600D03*
X-441408000Y-78739600D03*
X-441908000Y-78739600D03*
X-442408000Y-78739600D03*
X-442908000Y-78739600D03*
X-443408000Y-78739600D03*
X-443908000Y-78739600D03*
X-444408000Y-78739600D03*
X-444908000Y-78739600D03*
X-445408000Y-78739600D03*
X-445908000Y-78739600D03*
X-446408000Y-78739600D03*
X-446908000Y-78739600D03*
X-447408000Y-78739600D03*
X-447908000Y-78739600D03*
X-448408000Y-78739600D03*
X-448908000Y-78739600D03*
X-449408000Y-78739600D03*
%TD*%
D20*
%TO.C,U16*%
X-369824000Y-135584000D03*
X-368554000Y-135584000D03*
X-367284000Y-135584000D03*
X-366014000Y-135584000D03*
X-364744000Y-135584000D03*
X-363474000Y-135584000D03*
X-362204000Y-135584000D03*
X-360934000Y-135584000D03*
X-360934000Y-129084000D03*
X-362204000Y-129084000D03*
X-363474000Y-129084000D03*
X-364744000Y-129084000D03*
X-366014000Y-129084000D03*
X-367284000Y-129084000D03*
X-368554000Y-129084000D03*
X-369824000Y-129084000D03*
%TD*%
D23*
%TO.C,C61*%
X-488475000Y59250000D03*
X-490200000Y59250000D03*
%TD*%
D16*
%TO.C,R101*%
X-484820000Y-59630000D03*
X-484820000Y-57805000D03*
%TD*%
D13*
%TO.C,R42*%
X-440436000Y-138999500D03*
X-440436000Y-141924500D03*
%TD*%
D55*
%TO.C,Y1*%
X-463700000Y-99900000D03*
X-463700000Y-96100000D03*
%TD*%
D16*
%TO.C,R13*%
X-478409000Y-126288800D03*
X-478409000Y-124463800D03*
%TD*%
%TO.C,R47*%
X-433578000Y-126288800D03*
X-433578000Y-124463800D03*
%TD*%
D11*
%TO.C,J16*%
X-429607500Y-161210000D03*
D12*
X-429607500Y-158710000D03*
X-429607500Y-156210000D03*
%TD*%
D13*
%TO.C,R84*%
X-381000000Y-138999500D03*
X-381000000Y-141924500D03*
%TD*%
%TO.C,R40*%
X-442976000Y-138999500D03*
X-442976000Y-141924500D03*
%TD*%
D46*
%TO.C,U20*%
X-460692500Y-67372000D03*
X-459422500Y-67372000D03*
X-458152500Y-67372000D03*
X-456882500Y-67372000D03*
X-455612500Y-67372000D03*
X-454342500Y-67372000D03*
X-453072500Y-67372000D03*
X-451802500Y-67372000D03*
X-451802500Y-62422000D03*
X-453072500Y-62422000D03*
X-454342500Y-62422000D03*
X-455612500Y-62422000D03*
X-456882500Y-62422000D03*
X-458152500Y-62422000D03*
X-459422500Y-62422000D03*
X-460692500Y-62422000D03*
%TD*%
D13*
%TO.C,R96*%
X-364744000Y-138999500D03*
X-364744000Y-141924500D03*
%TD*%
%TO.C,R74*%
X-395732000Y-138999500D03*
X-395732000Y-141924500D03*
%TD*%
%TO.C,R56*%
X-420624000Y-138999500D03*
X-420624000Y-141924500D03*
%TD*%
D15*
%TO.C,C31*%
X-475752500Y-69785000D03*
X-474027500Y-69785000D03*
%TD*%
D13*
%TO.C,R38*%
X-445516000Y-138999500D03*
X-445516000Y-141924500D03*
%TD*%
%TO.C,R2*%
X-496951000Y-138999500D03*
X-496951000Y-141924500D03*
%TD*%
D27*
%TO.C,U26*%
X-407035000Y71882000D03*
D18*
X-407035000Y69342000D03*
X-407035000Y66802000D03*
X-407035000Y64262000D03*
X-407035000Y61722000D03*
X-407035000Y59182000D03*
X-407035000Y56642000D03*
X-407035000Y54102000D03*
X-407035000Y51562000D03*
X-407035000Y49022000D03*
X-407035000Y46482000D03*
X-371475000Y46482000D03*
X-371475000Y49022000D03*
X-371475000Y51562000D03*
X-371475000Y54102000D03*
X-371475000Y56642000D03*
X-371475000Y59182000D03*
X-371475000Y61722000D03*
X-371475000Y64262000D03*
X-371475000Y66802000D03*
X-371475000Y69342000D03*
X-371475000Y71882000D03*
%TD*%
D13*
%TO.C,R72*%
X-398272000Y-138999500D03*
X-398272000Y-141924500D03*
%TD*%
D28*
%TO.C,D13*%
X-498600000Y-100900000D03*
X-496550000Y-100900000D03*
%TD*%
D16*
%TO.C,R91*%
X-373278400Y-126288800D03*
X-373278400Y-124463800D03*
%TD*%
D23*
%TO.C,C32*%
X-459486000Y-59879000D03*
X-461211000Y-59879000D03*
%TD*%
D37*
%TO.C,C50*%
X-501700000Y41500000D03*
D38*
X-501700000Y46500000D03*
%TD*%
D20*
%TO.C,U14*%
X-391918950Y-135584000D03*
X-390648950Y-135584000D03*
X-389378950Y-135584000D03*
X-388108950Y-135584000D03*
X-386838950Y-135584000D03*
X-385568950Y-135584000D03*
X-384298950Y-135584000D03*
X-383028950Y-135584000D03*
X-383028950Y-129084000D03*
X-384298950Y-129084000D03*
X-385568950Y-129084000D03*
X-386838950Y-129084000D03*
X-388108950Y-129084000D03*
X-389378950Y-129084000D03*
X-390648950Y-129084000D03*
X-391918950Y-129084000D03*
%TD*%
D23*
%TO.C,C62*%
X-488475000Y61800000D03*
X-490200000Y61800000D03*
%TD*%
D13*
%TO.C,R36*%
X-448056000Y-138999500D03*
X-448056000Y-141924500D03*
%TD*%
D16*
%TO.C,R89*%
X-375818400Y-126288800D03*
X-375818400Y-124463800D03*
%TD*%
D13*
%TO.C,R10*%
X-494411000Y-138999500D03*
X-494411000Y-141924500D03*
%TD*%
D36*
%TO.C,C44*%
X-466852000Y-124513800D03*
X-466852000Y-126238800D03*
%TD*%
D23*
%TO.C,C28*%
X-470408000Y-59879000D03*
X-472133000Y-59879000D03*
%TD*%
D15*
%TO.C,C47*%
X-466825500Y-137414000D03*
X-465100500Y-137414000D03*
%TD*%
D56*
%TO.C,D16*%
X-361550000Y-119800000D03*
X-363600000Y-119800000D03*
%TD*%
D13*
%TO.C,R88*%
X-375920000Y-138999500D03*
X-375920000Y-141924500D03*
%TD*%
D16*
%TO.C,R73*%
X-397916400Y-126288800D03*
X-397916400Y-124463800D03*
%TD*%
%TO.C,R95*%
X-367284000Y-126288800D03*
X-367284000Y-124463800D03*
%TD*%
D11*
%TO.C,J4*%
X-498518220Y-161210000D03*
D12*
X-498518220Y-158710000D03*
X-498518220Y-156210000D03*
%TD*%
D20*
%TO.C,U37*%
X-498760000Y-95220000D03*
X-497490000Y-95220000D03*
X-497490000Y-88720000D03*
X-498760000Y-88720000D03*
%TD*%
D13*
%TO.C,R64*%
X-409448000Y-138999500D03*
X-409448000Y-141924500D03*
%TD*%
D20*
%TO.C,U5*%
X-502031000Y-135584000D03*
X-500761000Y-135584000D03*
X-499491000Y-135584000D03*
X-498221000Y-135584000D03*
X-496951000Y-135584000D03*
X-495681000Y-135584000D03*
X-494411000Y-135584000D03*
X-493141000Y-135584000D03*
X-493141000Y-129084000D03*
X-494411000Y-129084000D03*
X-495681000Y-129084000D03*
X-496951000Y-129084000D03*
X-498221000Y-129084000D03*
X-499491000Y-129084000D03*
X-500761000Y-129084000D03*
X-502031000Y-129084000D03*
%TD*%
D17*
%TO.C,H4*%
X-512445000Y-161925000D03*
%TD*%
D36*
%TO.C,C42*%
X-475361000Y-124513800D03*
X-475361000Y-126238800D03*
%TD*%
D20*
%TO.C,U9*%
X-447156300Y-135584000D03*
X-445886300Y-135584000D03*
X-444616300Y-135584000D03*
X-443346300Y-135584000D03*
X-442076300Y-135584000D03*
X-440806300Y-135584000D03*
X-439536300Y-135584000D03*
X-438266300Y-135584000D03*
X-438266300Y-129084000D03*
X-439536300Y-129084000D03*
X-440806300Y-129084000D03*
X-442076300Y-129084000D03*
X-443346300Y-129084000D03*
X-444616300Y-129084000D03*
X-445886300Y-129084000D03*
X-447156300Y-129084000D03*
%TD*%
D14*
%TO.C,D8*%
X-419100000Y-151520000D03*
X-419100000Y-149470000D03*
%TD*%
D11*
%TO.C,J9*%
X-469805420Y-161210000D03*
D12*
X-469805420Y-158710000D03*
X-469805420Y-156210000D03*
X-469805420Y-153710000D03*
X-469805420Y-151210000D03*
%TD*%
D16*
%TO.C,R9*%
X-502031000Y-126288800D03*
X-502031000Y-124463800D03*
%TD*%
D18*
%TO.C,J2*%
X-367800000Y-68440000D03*
X-367800000Y-64630000D03*
%TD*%
D13*
%TO.C,R52*%
X-425704000Y-138999500D03*
X-425704000Y-141924500D03*
%TD*%
D16*
%TO.C,R49*%
X-431038000Y-126288800D03*
X-431038000Y-124463800D03*
%TD*%
%TO.C,R83*%
X-384302000Y-126288800D03*
X-384302000Y-124463800D03*
%TD*%
D15*
%TO.C,C16*%
X-431302500Y-69785000D03*
X-429577500Y-69785000D03*
%TD*%
D16*
%TO.C,R51*%
X-428498000Y-126288800D03*
X-428498000Y-124463800D03*
%TD*%
D27*
%TO.C,J57*%
X-472400000Y-77060000D03*
D41*
X-472400000Y-79600000D03*
X-472400000Y-82140000D03*
X-472400000Y-84680000D03*
X-472400000Y-87220000D03*
X-472400000Y-89760000D03*
X-472400000Y-92300000D03*
X-472400000Y-94840000D03*
X-472400000Y-97380000D03*
X-472400000Y-99920000D03*
X-472400000Y-102460000D03*
X-472400000Y-105000000D03*
%TD*%
D17*
%TO.C,H2*%
X-361950000Y83185000D03*
%TD*%
D15*
%TO.C,C46*%
X-471016500Y-137414000D03*
X-469291500Y-137414000D03*
%TD*%
D13*
%TO.C,R90*%
X-373380000Y-138999500D03*
X-373380000Y-141924500D03*
%TD*%
%TO.C,R34*%
X-451612000Y-138999500D03*
X-451612000Y-141924500D03*
%TD*%
%TO.C,R14*%
X-461772000Y-138999500D03*
X-461772000Y-141924500D03*
%TD*%
D16*
%TO.C,R99*%
X-362204000Y-126288800D03*
X-362204000Y-124463800D03*
%TD*%
D57*
%TO.C,R22*%
X-498510000Y-98530000D03*
X-496685000Y-98530000D03*
%TD*%
D20*
%TO.C,U6*%
X-477981120Y-135584000D03*
X-476711120Y-135584000D03*
X-476711120Y-129084000D03*
X-477981120Y-129084000D03*
%TD*%
D23*
%TO.C,C59*%
X-488475000Y54100000D03*
X-490200000Y54100000D03*
%TD*%
%TO.C,C51*%
X-488475000Y-39850000D03*
X-490200000Y-39850000D03*
%TD*%
D14*
%TO.C,D7*%
X-430530000Y-151520000D03*
X-430530000Y-149470000D03*
%TD*%
D22*
%TO.C,J38*%
X-365506000Y11684000D03*
X-365506000Y7874000D03*
X-365506000Y4064000D03*
X-365506000Y254000D03*
%TD*%
%TO.C,J45*%
X-508850000Y52480000D03*
X-508850000Y56290000D03*
X-508850000Y60100000D03*
X-508850000Y63910000D03*
%TD*%
%TO.C,J37*%
X-365506000Y40259000D03*
X-365506000Y36449000D03*
X-365506000Y32639000D03*
X-365506000Y28829000D03*
%TD*%
%TO.C,J40*%
X-365500000Y-44437000D03*
X-365500000Y-48247000D03*
X-365500000Y-52057000D03*
X-365500000Y-55867000D03*
%TD*%
%TO.C,J36*%
X-365442000Y67437000D03*
X-365442000Y63627000D03*
X-365442000Y59817000D03*
X-365442000Y56007000D03*
%TD*%
%TO.C,J39*%
X-365506000Y-16510000D03*
X-365506000Y-20320000D03*
X-365506000Y-24130000D03*
X-365506000Y-27940000D03*
%TD*%
D58*
%TO.C,U36*%
X-382700000Y-54150000D03*
X-382700000Y-57350000D03*
X-382700000Y-59550000D03*
X-382700000Y-61750000D03*
X-385900000Y-61750000D03*
X-385900000Y-59550000D03*
X-385900000Y-57350000D03*
X-385900000Y-54150000D03*
%TD*%
D22*
%TO.C,J42*%
X-508889000Y-41783000D03*
X-508889000Y-37973000D03*
X-508889000Y-34163000D03*
X-508889000Y-30353000D03*
%TD*%
%TO.C,J43*%
X-508900000Y5490000D03*
X-508900000Y9300000D03*
X-508900000Y13110000D03*
X-508900000Y16920000D03*
%TD*%
M02*
