%TF.GenerationSoftware,KiCad,Pcbnew,7.0.10*%
%TF.CreationDate,2024-02-11T20:31:55+09:00*%
%TF.ProjectId,crimping_machine,6372696d-7069-46e6-975f-6d616368696e,rev?*%
%TF.SameCoordinates,Original*%
%TF.FileFunction,Drillmap*%
%TF.FilePolarity,Positive*%
%FSLAX45Y45*%
G04 Gerber Fmt 4.5, Leading zero omitted, Abs format (unit mm)*
G04 Created by KiCad (PCBNEW 7.0.10) date 2024-02-11 20:31:55*
%MOMM*%
%LPD*%
G01*
G04 APERTURE LIST*
%ADD10C,0.200000*%
%ADD11C,0.320000*%
G04 APERTURE END LIST*
D10*
X-51562000Y8636000D02*
X-35864800Y8636000D01*
X-35864800Y-16510000D01*
X-51562000Y-16510000D01*
X-51562000Y8636000D01*
D11*
X-51404500Y8478500D02*
X-51084500Y8158500D01*
X-51084500Y8478500D02*
X-51404500Y8158500D01*
X-51404500Y-16032500D02*
X-51084500Y-16352500D01*
X-51084500Y-16032500D02*
X-51404500Y-16352500D01*
X-36355000Y8478500D02*
X-36035000Y8158500D01*
X-36035000Y8478500D02*
X-36355000Y8158500D01*
X-36355000Y-16032500D02*
X-36035000Y-16352500D01*
X-36035000Y-16032500D02*
X-36355000Y-16352500D01*
D10*
X-51311223Y-16831484D02*
X-51311223Y-16631484D01*
X-51311223Y-16631484D02*
X-51263604Y-16631484D01*
X-51263604Y-16631484D02*
X-51235033Y-16641008D01*
X-51235033Y-16641008D02*
X-51215985Y-16660055D01*
X-51215985Y-16660055D02*
X-51206461Y-16679103D01*
X-51206461Y-16679103D02*
X-51196937Y-16717198D01*
X-51196937Y-16717198D02*
X-51196937Y-16745769D01*
X-51196937Y-16745769D02*
X-51206461Y-16783865D01*
X-51206461Y-16783865D02*
X-51215985Y-16802912D01*
X-51215985Y-16802912D02*
X-51235033Y-16821960D01*
X-51235033Y-16821960D02*
X-51263604Y-16831484D01*
X-51263604Y-16831484D02*
X-51311223Y-16831484D01*
X-51111223Y-16831484D02*
X-51111223Y-16698150D01*
X-51111223Y-16736246D02*
X-51101699Y-16717198D01*
X-51101699Y-16717198D02*
X-51092175Y-16707674D01*
X-51092175Y-16707674D02*
X-51073128Y-16698150D01*
X-51073128Y-16698150D02*
X-51054080Y-16698150D01*
X-50987414Y-16831484D02*
X-50987414Y-16698150D01*
X-50987414Y-16631484D02*
X-50996937Y-16641008D01*
X-50996937Y-16641008D02*
X-50987414Y-16650531D01*
X-50987414Y-16650531D02*
X-50977890Y-16641008D01*
X-50977890Y-16641008D02*
X-50987414Y-16631484D01*
X-50987414Y-16631484D02*
X-50987414Y-16650531D01*
X-50863604Y-16831484D02*
X-50882652Y-16821960D01*
X-50882652Y-16821960D02*
X-50892175Y-16802912D01*
X-50892175Y-16802912D02*
X-50892175Y-16631484D01*
X-50758842Y-16831484D02*
X-50777890Y-16821960D01*
X-50777890Y-16821960D02*
X-50787414Y-16802912D01*
X-50787414Y-16802912D02*
X-50787414Y-16631484D01*
X-50530271Y-16831484D02*
X-50530271Y-16631484D01*
X-50530271Y-16631484D02*
X-50463604Y-16774341D01*
X-50463604Y-16774341D02*
X-50396937Y-16631484D01*
X-50396937Y-16631484D02*
X-50396937Y-16831484D01*
X-50215985Y-16831484D02*
X-50215985Y-16726722D01*
X-50215985Y-16726722D02*
X-50225509Y-16707674D01*
X-50225509Y-16707674D02*
X-50244556Y-16698150D01*
X-50244556Y-16698150D02*
X-50282652Y-16698150D01*
X-50282652Y-16698150D02*
X-50301699Y-16707674D01*
X-50215985Y-16821960D02*
X-50235033Y-16831484D01*
X-50235033Y-16831484D02*
X-50282652Y-16831484D01*
X-50282652Y-16831484D02*
X-50301699Y-16821960D01*
X-50301699Y-16821960D02*
X-50311223Y-16802912D01*
X-50311223Y-16802912D02*
X-50311223Y-16783865D01*
X-50311223Y-16783865D02*
X-50301699Y-16764817D01*
X-50301699Y-16764817D02*
X-50282652Y-16755293D01*
X-50282652Y-16755293D02*
X-50235033Y-16755293D01*
X-50235033Y-16755293D02*
X-50215985Y-16745769D01*
X-50120747Y-16698150D02*
X-50120747Y-16898150D01*
X-50120747Y-16707674D02*
X-50101699Y-16698150D01*
X-50101699Y-16698150D02*
X-50063604Y-16698150D01*
X-50063604Y-16698150D02*
X-50044556Y-16707674D01*
X-50044556Y-16707674D02*
X-50035033Y-16717198D01*
X-50035033Y-16717198D02*
X-50025509Y-16736246D01*
X-50025509Y-16736246D02*
X-50025509Y-16793389D01*
X-50025509Y-16793389D02*
X-50035033Y-16812436D01*
X-50035033Y-16812436D02*
X-50044556Y-16821960D01*
X-50044556Y-16821960D02*
X-50063604Y-16831484D01*
X-50063604Y-16831484D02*
X-50101699Y-16831484D01*
X-50101699Y-16831484D02*
X-50120747Y-16821960D01*
X-49939794Y-16812436D02*
X-49930271Y-16821960D01*
X-49930271Y-16821960D02*
X-49939794Y-16831484D01*
X-49939794Y-16831484D02*
X-49949318Y-16821960D01*
X-49949318Y-16821960D02*
X-49939794Y-16812436D01*
X-49939794Y-16812436D02*
X-49939794Y-16831484D01*
X-49939794Y-16707674D02*
X-49930271Y-16717198D01*
X-49930271Y-16717198D02*
X-49939794Y-16726722D01*
X-49939794Y-16726722D02*
X-49949318Y-16717198D01*
X-49949318Y-16717198D02*
X-49939794Y-16707674D01*
X-49939794Y-16707674D02*
X-49939794Y-16726722D01*
X-51772000Y-17060000D02*
X-51572000Y-17260000D01*
X-51572000Y-17060000D02*
X-51772000Y-17260000D01*
X-51330271Y-17051484D02*
X-51206461Y-17051484D01*
X-51206461Y-17051484D02*
X-51273128Y-17127674D01*
X-51273128Y-17127674D02*
X-51244556Y-17127674D01*
X-51244556Y-17127674D02*
X-51225509Y-17137198D01*
X-51225509Y-17137198D02*
X-51215985Y-17146722D01*
X-51215985Y-17146722D02*
X-51206461Y-17165770D01*
X-51206461Y-17165770D02*
X-51206461Y-17213389D01*
X-51206461Y-17213389D02*
X-51215985Y-17232436D01*
X-51215985Y-17232436D02*
X-51225509Y-17241960D01*
X-51225509Y-17241960D02*
X-51244556Y-17251484D01*
X-51244556Y-17251484D02*
X-51301699Y-17251484D01*
X-51301699Y-17251484D02*
X-51320747Y-17241960D01*
X-51320747Y-17241960D02*
X-51330271Y-17232436D01*
X-51120747Y-17232436D02*
X-51111223Y-17241960D01*
X-51111223Y-17241960D02*
X-51120747Y-17251484D01*
X-51120747Y-17251484D02*
X-51130271Y-17241960D01*
X-51130271Y-17241960D02*
X-51120747Y-17232436D01*
X-51120747Y-17232436D02*
X-51120747Y-17251484D01*
X-51035033Y-17070531D02*
X-51025509Y-17061008D01*
X-51025509Y-17061008D02*
X-51006461Y-17051484D01*
X-51006461Y-17051484D02*
X-50958842Y-17051484D01*
X-50958842Y-17051484D02*
X-50939794Y-17061008D01*
X-50939794Y-17061008D02*
X-50930271Y-17070531D01*
X-50930271Y-17070531D02*
X-50920747Y-17089579D01*
X-50920747Y-17089579D02*
X-50920747Y-17108627D01*
X-50920747Y-17108627D02*
X-50930271Y-17137198D01*
X-50930271Y-17137198D02*
X-51044556Y-17251484D01*
X-51044556Y-17251484D02*
X-50920747Y-17251484D01*
X-50796937Y-17051484D02*
X-50777890Y-17051484D01*
X-50777890Y-17051484D02*
X-50758842Y-17061008D01*
X-50758842Y-17061008D02*
X-50749318Y-17070531D01*
X-50749318Y-17070531D02*
X-50739794Y-17089579D01*
X-50739794Y-17089579D02*
X-50730271Y-17127674D01*
X-50730271Y-17127674D02*
X-50730271Y-17175293D01*
X-50730271Y-17175293D02*
X-50739794Y-17213389D01*
X-50739794Y-17213389D02*
X-50749318Y-17232436D01*
X-50749318Y-17232436D02*
X-50758842Y-17241960D01*
X-50758842Y-17241960D02*
X-50777890Y-17251484D01*
X-50777890Y-17251484D02*
X-50796937Y-17251484D01*
X-50796937Y-17251484D02*
X-50815985Y-17241960D01*
X-50815985Y-17241960D02*
X-50825509Y-17232436D01*
X-50825509Y-17232436D02*
X-50835033Y-17213389D01*
X-50835033Y-17213389D02*
X-50844556Y-17175293D01*
X-50844556Y-17175293D02*
X-50844556Y-17127674D01*
X-50844556Y-17127674D02*
X-50835033Y-17089579D01*
X-50835033Y-17089579D02*
X-50825509Y-17070531D01*
X-50825509Y-17070531D02*
X-50815985Y-17061008D01*
X-50815985Y-17061008D02*
X-50796937Y-17051484D01*
X-50606461Y-17051484D02*
X-50587413Y-17051484D01*
X-50587413Y-17051484D02*
X-50568366Y-17061008D01*
X-50568366Y-17061008D02*
X-50558842Y-17070531D01*
X-50558842Y-17070531D02*
X-50549318Y-17089579D01*
X-50549318Y-17089579D02*
X-50539794Y-17127674D01*
X-50539794Y-17127674D02*
X-50539794Y-17175293D01*
X-50539794Y-17175293D02*
X-50549318Y-17213389D01*
X-50549318Y-17213389D02*
X-50558842Y-17232436D01*
X-50558842Y-17232436D02*
X-50568366Y-17241960D01*
X-50568366Y-17241960D02*
X-50587413Y-17251484D01*
X-50587413Y-17251484D02*
X-50606461Y-17251484D01*
X-50606461Y-17251484D02*
X-50625509Y-17241960D01*
X-50625509Y-17241960D02*
X-50635033Y-17232436D01*
X-50635033Y-17232436D02*
X-50644556Y-17213389D01*
X-50644556Y-17213389D02*
X-50654080Y-17175293D01*
X-50654080Y-17175293D02*
X-50654080Y-17127674D01*
X-50654080Y-17127674D02*
X-50644556Y-17089579D01*
X-50644556Y-17089579D02*
X-50635033Y-17070531D01*
X-50635033Y-17070531D02*
X-50625509Y-17061008D01*
X-50625509Y-17061008D02*
X-50606461Y-17051484D01*
X-50454080Y-17251484D02*
X-50454080Y-17118150D01*
X-50454080Y-17137198D02*
X-50444556Y-17127674D01*
X-50444556Y-17127674D02*
X-50425509Y-17118150D01*
X-50425509Y-17118150D02*
X-50396937Y-17118150D01*
X-50396937Y-17118150D02*
X-50377890Y-17127674D01*
X-50377890Y-17127674D02*
X-50368366Y-17146722D01*
X-50368366Y-17146722D02*
X-50368366Y-17251484D01*
X-50368366Y-17146722D02*
X-50358842Y-17127674D01*
X-50358842Y-17127674D02*
X-50339794Y-17118150D01*
X-50339794Y-17118150D02*
X-50311223Y-17118150D01*
X-50311223Y-17118150D02*
X-50292175Y-17127674D01*
X-50292175Y-17127674D02*
X-50282652Y-17146722D01*
X-50282652Y-17146722D02*
X-50282652Y-17251484D01*
X-50187413Y-17251484D02*
X-50187413Y-17118150D01*
X-50187413Y-17137198D02*
X-50177890Y-17127674D01*
X-50177890Y-17127674D02*
X-50158842Y-17118150D01*
X-50158842Y-17118150D02*
X-50130271Y-17118150D01*
X-50130271Y-17118150D02*
X-50111223Y-17127674D01*
X-50111223Y-17127674D02*
X-50101699Y-17146722D01*
X-50101699Y-17146722D02*
X-50101699Y-17251484D01*
X-50101699Y-17146722D02*
X-50092175Y-17127674D01*
X-50092175Y-17127674D02*
X-50073128Y-17118150D01*
X-50073128Y-17118150D02*
X-50044556Y-17118150D01*
X-50044556Y-17118150D02*
X-50025509Y-17127674D01*
X-50025509Y-17127674D02*
X-50015985Y-17146722D01*
X-50015985Y-17146722D02*
X-50015985Y-17251484D01*
X-49625509Y-17041960D02*
X-49796937Y-17299103D01*
X-49368366Y-17051484D02*
X-49349318Y-17051484D01*
X-49349318Y-17051484D02*
X-49330270Y-17061008D01*
X-49330270Y-17061008D02*
X-49320747Y-17070531D01*
X-49320747Y-17070531D02*
X-49311223Y-17089579D01*
X-49311223Y-17089579D02*
X-49301699Y-17127674D01*
X-49301699Y-17127674D02*
X-49301699Y-17175293D01*
X-49301699Y-17175293D02*
X-49311223Y-17213389D01*
X-49311223Y-17213389D02*
X-49320747Y-17232436D01*
X-49320747Y-17232436D02*
X-49330270Y-17241960D01*
X-49330270Y-17241960D02*
X-49349318Y-17251484D01*
X-49349318Y-17251484D02*
X-49368366Y-17251484D01*
X-49368366Y-17251484D02*
X-49387413Y-17241960D01*
X-49387413Y-17241960D02*
X-49396937Y-17232436D01*
X-49396937Y-17232436D02*
X-49406461Y-17213389D01*
X-49406461Y-17213389D02*
X-49415985Y-17175293D01*
X-49415985Y-17175293D02*
X-49415985Y-17127674D01*
X-49415985Y-17127674D02*
X-49406461Y-17089579D01*
X-49406461Y-17089579D02*
X-49396937Y-17070531D01*
X-49396937Y-17070531D02*
X-49387413Y-17061008D01*
X-49387413Y-17061008D02*
X-49368366Y-17051484D01*
X-49215985Y-17232436D02*
X-49206461Y-17241960D01*
X-49206461Y-17241960D02*
X-49215985Y-17251484D01*
X-49215985Y-17251484D02*
X-49225509Y-17241960D01*
X-49225509Y-17241960D02*
X-49215985Y-17232436D01*
X-49215985Y-17232436D02*
X-49215985Y-17251484D01*
X-49015985Y-17251484D02*
X-49130270Y-17251484D01*
X-49073128Y-17251484D02*
X-49073128Y-17051484D01*
X-49073128Y-17051484D02*
X-49092175Y-17080055D01*
X-49092175Y-17080055D02*
X-49111223Y-17099103D01*
X-49111223Y-17099103D02*
X-49130270Y-17108627D01*
X-48939794Y-17070531D02*
X-48930270Y-17061008D01*
X-48930270Y-17061008D02*
X-48911223Y-17051484D01*
X-48911223Y-17051484D02*
X-48863604Y-17051484D01*
X-48863604Y-17051484D02*
X-48844556Y-17061008D01*
X-48844556Y-17061008D02*
X-48835032Y-17070531D01*
X-48835032Y-17070531D02*
X-48825509Y-17089579D01*
X-48825509Y-17089579D02*
X-48825509Y-17108627D01*
X-48825509Y-17108627D02*
X-48835032Y-17137198D01*
X-48835032Y-17137198D02*
X-48949318Y-17251484D01*
X-48949318Y-17251484D02*
X-48825509Y-17251484D01*
X-48654080Y-17051484D02*
X-48692175Y-17051484D01*
X-48692175Y-17051484D02*
X-48711223Y-17061008D01*
X-48711223Y-17061008D02*
X-48720747Y-17070531D01*
X-48720747Y-17070531D02*
X-48739794Y-17099103D01*
X-48739794Y-17099103D02*
X-48749318Y-17137198D01*
X-48749318Y-17137198D02*
X-48749318Y-17213389D01*
X-48749318Y-17213389D02*
X-48739794Y-17232436D01*
X-48739794Y-17232436D02*
X-48730270Y-17241960D01*
X-48730270Y-17241960D02*
X-48711223Y-17251484D01*
X-48711223Y-17251484D02*
X-48673128Y-17251484D01*
X-48673128Y-17251484D02*
X-48654080Y-17241960D01*
X-48654080Y-17241960D02*
X-48644556Y-17232436D01*
X-48644556Y-17232436D02*
X-48635032Y-17213389D01*
X-48635032Y-17213389D02*
X-48635032Y-17165770D01*
X-48635032Y-17165770D02*
X-48644556Y-17146722D01*
X-48644556Y-17146722D02*
X-48654080Y-17137198D01*
X-48654080Y-17137198D02*
X-48673128Y-17127674D01*
X-48673128Y-17127674D02*
X-48711223Y-17127674D01*
X-48711223Y-17127674D02*
X-48730270Y-17137198D01*
X-48730270Y-17137198D02*
X-48739794Y-17146722D01*
X-48739794Y-17146722D02*
X-48749318Y-17165770D01*
X-48511223Y-17051484D02*
X-48492175Y-17051484D01*
X-48492175Y-17051484D02*
X-48473128Y-17061008D01*
X-48473128Y-17061008D02*
X-48463604Y-17070531D01*
X-48463604Y-17070531D02*
X-48454080Y-17089579D01*
X-48454080Y-17089579D02*
X-48444556Y-17127674D01*
X-48444556Y-17127674D02*
X-48444556Y-17175293D01*
X-48444556Y-17175293D02*
X-48454080Y-17213389D01*
X-48454080Y-17213389D02*
X-48463604Y-17232436D01*
X-48463604Y-17232436D02*
X-48473128Y-17241960D01*
X-48473128Y-17241960D02*
X-48492175Y-17251484D01*
X-48492175Y-17251484D02*
X-48511223Y-17251484D01*
X-48511223Y-17251484D02*
X-48530270Y-17241960D01*
X-48530270Y-17241960D02*
X-48539794Y-17232436D01*
X-48539794Y-17232436D02*
X-48549318Y-17213389D01*
X-48549318Y-17213389D02*
X-48558842Y-17175293D01*
X-48558842Y-17175293D02*
X-48558842Y-17127674D01*
X-48558842Y-17127674D02*
X-48549318Y-17089579D01*
X-48549318Y-17089579D02*
X-48539794Y-17070531D01*
X-48539794Y-17070531D02*
X-48530270Y-17061008D01*
X-48530270Y-17061008D02*
X-48511223Y-17051484D01*
X-48368366Y-17051484D02*
X-48368366Y-17089579D01*
X-48292175Y-17051484D02*
X-48292175Y-17089579D01*
X-47996937Y-17327674D02*
X-48006461Y-17318150D01*
X-48006461Y-17318150D02*
X-48025508Y-17289579D01*
X-48025508Y-17289579D02*
X-48035032Y-17270531D01*
X-48035032Y-17270531D02*
X-48044556Y-17241960D01*
X-48044556Y-17241960D02*
X-48054080Y-17194341D01*
X-48054080Y-17194341D02*
X-48054080Y-17156246D01*
X-48054080Y-17156246D02*
X-48044556Y-17108627D01*
X-48044556Y-17108627D02*
X-48035032Y-17080055D01*
X-48035032Y-17080055D02*
X-48025508Y-17061008D01*
X-48025508Y-17061008D02*
X-48006461Y-17032436D01*
X-48006461Y-17032436D02*
X-47996937Y-17022912D01*
X-47835032Y-17118150D02*
X-47835032Y-17251484D01*
X-47882651Y-17041960D02*
X-47930270Y-17184817D01*
X-47930270Y-17184817D02*
X-47806461Y-17184817D01*
X-47577889Y-17251484D02*
X-47577889Y-17051484D01*
X-47492175Y-17251484D02*
X-47492175Y-17146722D01*
X-47492175Y-17146722D02*
X-47501699Y-17127674D01*
X-47501699Y-17127674D02*
X-47520746Y-17118150D01*
X-47520746Y-17118150D02*
X-47549318Y-17118150D01*
X-47549318Y-17118150D02*
X-47568366Y-17127674D01*
X-47568366Y-17127674D02*
X-47577889Y-17137198D01*
X-47368366Y-17251484D02*
X-47387413Y-17241960D01*
X-47387413Y-17241960D02*
X-47396937Y-17232436D01*
X-47396937Y-17232436D02*
X-47406461Y-17213389D01*
X-47406461Y-17213389D02*
X-47406461Y-17156246D01*
X-47406461Y-17156246D02*
X-47396937Y-17137198D01*
X-47396937Y-17137198D02*
X-47387413Y-17127674D01*
X-47387413Y-17127674D02*
X-47368366Y-17118150D01*
X-47368366Y-17118150D02*
X-47339794Y-17118150D01*
X-47339794Y-17118150D02*
X-47320746Y-17127674D01*
X-47320746Y-17127674D02*
X-47311223Y-17137198D01*
X-47311223Y-17137198D02*
X-47301699Y-17156246D01*
X-47301699Y-17156246D02*
X-47301699Y-17213389D01*
X-47301699Y-17213389D02*
X-47311223Y-17232436D01*
X-47311223Y-17232436D02*
X-47320746Y-17241960D01*
X-47320746Y-17241960D02*
X-47339794Y-17251484D01*
X-47339794Y-17251484D02*
X-47368366Y-17251484D01*
X-47187413Y-17251484D02*
X-47206461Y-17241960D01*
X-47206461Y-17241960D02*
X-47215985Y-17222912D01*
X-47215985Y-17222912D02*
X-47215985Y-17051484D01*
X-47035032Y-17241960D02*
X-47054080Y-17251484D01*
X-47054080Y-17251484D02*
X-47092175Y-17251484D01*
X-47092175Y-17251484D02*
X-47111223Y-17241960D01*
X-47111223Y-17241960D02*
X-47120746Y-17222912D01*
X-47120746Y-17222912D02*
X-47120746Y-17146722D01*
X-47120746Y-17146722D02*
X-47111223Y-17127674D01*
X-47111223Y-17127674D02*
X-47092175Y-17118150D01*
X-47092175Y-17118150D02*
X-47054080Y-17118150D01*
X-47054080Y-17118150D02*
X-47035032Y-17127674D01*
X-47035032Y-17127674D02*
X-47025508Y-17146722D01*
X-47025508Y-17146722D02*
X-47025508Y-17165770D01*
X-47025508Y-17165770D02*
X-47120746Y-17184817D01*
X-46949318Y-17241960D02*
X-46930270Y-17251484D01*
X-46930270Y-17251484D02*
X-46892175Y-17251484D01*
X-46892175Y-17251484D02*
X-46873127Y-17241960D01*
X-46873127Y-17241960D02*
X-46863604Y-17222912D01*
X-46863604Y-17222912D02*
X-46863604Y-17213389D01*
X-46863604Y-17213389D02*
X-46873127Y-17194341D01*
X-46873127Y-17194341D02*
X-46892175Y-17184817D01*
X-46892175Y-17184817D02*
X-46920746Y-17184817D01*
X-46920746Y-17184817D02*
X-46939794Y-17175293D01*
X-46939794Y-17175293D02*
X-46949318Y-17156246D01*
X-46949318Y-17156246D02*
X-46949318Y-17146722D01*
X-46949318Y-17146722D02*
X-46939794Y-17127674D01*
X-46939794Y-17127674D02*
X-46920746Y-17118150D01*
X-46920746Y-17118150D02*
X-46892175Y-17118150D01*
X-46892175Y-17118150D02*
X-46873127Y-17127674D01*
X-46796937Y-17327674D02*
X-46787413Y-17318150D01*
X-46787413Y-17318150D02*
X-46768365Y-17289579D01*
X-46768365Y-17289579D02*
X-46758842Y-17270531D01*
X-46758842Y-17270531D02*
X-46749318Y-17241960D01*
X-46749318Y-17241960D02*
X-46739794Y-17194341D01*
X-46739794Y-17194341D02*
X-46739794Y-17156246D01*
X-46739794Y-17156246D02*
X-46749318Y-17108627D01*
X-46749318Y-17108627D02*
X-46758842Y-17080055D01*
X-46758842Y-17080055D02*
X-46768365Y-17061008D01*
X-46768365Y-17061008D02*
X-46787413Y-17032436D01*
X-46787413Y-17032436D02*
X-46796937Y-17022912D01*
X-46435032Y-17327674D02*
X-46444556Y-17318150D01*
X-46444556Y-17318150D02*
X-46463604Y-17289579D01*
X-46463604Y-17289579D02*
X-46473127Y-17270531D01*
X-46473127Y-17270531D02*
X-46482651Y-17241960D01*
X-46482651Y-17241960D02*
X-46492175Y-17194341D01*
X-46492175Y-17194341D02*
X-46492175Y-17156246D01*
X-46492175Y-17156246D02*
X-46482651Y-17108627D01*
X-46482651Y-17108627D02*
X-46473127Y-17080055D01*
X-46473127Y-17080055D02*
X-46463604Y-17061008D01*
X-46463604Y-17061008D02*
X-46444556Y-17032436D01*
X-46444556Y-17032436D02*
X-46435032Y-17022912D01*
X-46358842Y-17118150D02*
X-46358842Y-17251484D01*
X-46358842Y-17137198D02*
X-46349318Y-17127674D01*
X-46349318Y-17127674D02*
X-46330270Y-17118150D01*
X-46330270Y-17118150D02*
X-46301699Y-17118150D01*
X-46301699Y-17118150D02*
X-46282651Y-17127674D01*
X-46282651Y-17127674D02*
X-46273127Y-17146722D01*
X-46273127Y-17146722D02*
X-46273127Y-17251484D01*
X-46149318Y-17251484D02*
X-46168365Y-17241960D01*
X-46168365Y-17241960D02*
X-46177889Y-17232436D01*
X-46177889Y-17232436D02*
X-46187413Y-17213389D01*
X-46187413Y-17213389D02*
X-46187413Y-17156246D01*
X-46187413Y-17156246D02*
X-46177889Y-17137198D01*
X-46177889Y-17137198D02*
X-46168365Y-17127674D01*
X-46168365Y-17127674D02*
X-46149318Y-17118150D01*
X-46149318Y-17118150D02*
X-46120746Y-17118150D01*
X-46120746Y-17118150D02*
X-46101699Y-17127674D01*
X-46101699Y-17127674D02*
X-46092175Y-17137198D01*
X-46092175Y-17137198D02*
X-46082651Y-17156246D01*
X-46082651Y-17156246D02*
X-46082651Y-17213389D01*
X-46082651Y-17213389D02*
X-46092175Y-17232436D01*
X-46092175Y-17232436D02*
X-46101699Y-17241960D01*
X-46101699Y-17241960D02*
X-46120746Y-17251484D01*
X-46120746Y-17251484D02*
X-46149318Y-17251484D01*
X-46025508Y-17118150D02*
X-45949318Y-17118150D01*
X-45996937Y-17051484D02*
X-45996937Y-17222912D01*
X-45996937Y-17222912D02*
X-45987413Y-17241960D01*
X-45987413Y-17241960D02*
X-45968365Y-17251484D01*
X-45968365Y-17251484D02*
X-45949318Y-17251484D01*
X-45730270Y-17118150D02*
X-45730270Y-17318150D01*
X-45730270Y-17127674D02*
X-45711223Y-17118150D01*
X-45711223Y-17118150D02*
X-45673127Y-17118150D01*
X-45673127Y-17118150D02*
X-45654080Y-17127674D01*
X-45654080Y-17127674D02*
X-45644556Y-17137198D01*
X-45644556Y-17137198D02*
X-45635032Y-17156246D01*
X-45635032Y-17156246D02*
X-45635032Y-17213389D01*
X-45635032Y-17213389D02*
X-45644556Y-17232436D01*
X-45644556Y-17232436D02*
X-45654080Y-17241960D01*
X-45654080Y-17241960D02*
X-45673127Y-17251484D01*
X-45673127Y-17251484D02*
X-45711223Y-17251484D01*
X-45711223Y-17251484D02*
X-45730270Y-17241960D01*
X-45520746Y-17251484D02*
X-45539794Y-17241960D01*
X-45539794Y-17241960D02*
X-45549318Y-17222912D01*
X-45549318Y-17222912D02*
X-45549318Y-17051484D01*
X-45358842Y-17251484D02*
X-45358842Y-17146722D01*
X-45358842Y-17146722D02*
X-45368365Y-17127674D01*
X-45368365Y-17127674D02*
X-45387413Y-17118150D01*
X-45387413Y-17118150D02*
X-45425508Y-17118150D01*
X-45425508Y-17118150D02*
X-45444556Y-17127674D01*
X-45358842Y-17241960D02*
X-45377889Y-17251484D01*
X-45377889Y-17251484D02*
X-45425508Y-17251484D01*
X-45425508Y-17251484D02*
X-45444556Y-17241960D01*
X-45444556Y-17241960D02*
X-45454080Y-17222912D01*
X-45454080Y-17222912D02*
X-45454080Y-17203865D01*
X-45454080Y-17203865D02*
X-45444556Y-17184817D01*
X-45444556Y-17184817D02*
X-45425508Y-17175293D01*
X-45425508Y-17175293D02*
X-45377889Y-17175293D01*
X-45377889Y-17175293D02*
X-45358842Y-17165770D01*
X-45292175Y-17118150D02*
X-45215984Y-17118150D01*
X-45263603Y-17051484D02*
X-45263603Y-17222912D01*
X-45263603Y-17222912D02*
X-45254080Y-17241960D01*
X-45254080Y-17241960D02*
X-45235032Y-17251484D01*
X-45235032Y-17251484D02*
X-45215984Y-17251484D01*
X-45073127Y-17241960D02*
X-45092175Y-17251484D01*
X-45092175Y-17251484D02*
X-45130270Y-17251484D01*
X-45130270Y-17251484D02*
X-45149318Y-17241960D01*
X-45149318Y-17241960D02*
X-45158842Y-17222912D01*
X-45158842Y-17222912D02*
X-45158842Y-17146722D01*
X-45158842Y-17146722D02*
X-45149318Y-17127674D01*
X-45149318Y-17127674D02*
X-45130270Y-17118150D01*
X-45130270Y-17118150D02*
X-45092175Y-17118150D01*
X-45092175Y-17118150D02*
X-45073127Y-17127674D01*
X-45073127Y-17127674D02*
X-45063603Y-17146722D01*
X-45063603Y-17146722D02*
X-45063603Y-17165770D01*
X-45063603Y-17165770D02*
X-45158842Y-17184817D01*
X-44892175Y-17251484D02*
X-44892175Y-17051484D01*
X-44892175Y-17241960D02*
X-44911222Y-17251484D01*
X-44911222Y-17251484D02*
X-44949318Y-17251484D01*
X-44949318Y-17251484D02*
X-44968365Y-17241960D01*
X-44968365Y-17241960D02*
X-44977889Y-17232436D01*
X-44977889Y-17232436D02*
X-44987413Y-17213389D01*
X-44987413Y-17213389D02*
X-44987413Y-17156246D01*
X-44987413Y-17156246D02*
X-44977889Y-17137198D01*
X-44977889Y-17137198D02*
X-44968365Y-17127674D01*
X-44968365Y-17127674D02*
X-44949318Y-17118150D01*
X-44949318Y-17118150D02*
X-44911222Y-17118150D01*
X-44911222Y-17118150D02*
X-44892175Y-17127674D01*
X-44815984Y-17327674D02*
X-44806461Y-17318150D01*
X-44806461Y-17318150D02*
X-44787413Y-17289579D01*
X-44787413Y-17289579D02*
X-44777889Y-17270531D01*
X-44777889Y-17270531D02*
X-44768365Y-17241960D01*
X-44768365Y-17241960D02*
X-44758842Y-17194341D01*
X-44758842Y-17194341D02*
X-44758842Y-17156246D01*
X-44758842Y-17156246D02*
X-44768365Y-17108627D01*
X-44768365Y-17108627D02*
X-44777889Y-17080055D01*
X-44777889Y-17080055D02*
X-44787413Y-17061008D01*
X-44787413Y-17061008D02*
X-44806461Y-17032436D01*
X-44806461Y-17032436D02*
X-44815984Y-17022912D01*
M02*
