M48
; DRILL file {KiCad 7.0.10} date Wed Feb 14 22:06:40 2024
; FORMAT={-:-/ absolute / inch / decimal}
; #@! TF.CreationDate,2024-02-14T22:06:40+09:00
; #@! TF.GenerationSoftware,Kicad,Pcbnew,7.0.10
; #@! TF.FileFunction,Plated,1,2,PTH
FMAT,2
INCH
; #@! TA.AperFunction,Plated,PTH,ComponentDrill
T1C0.0079
; #@! TA.AperFunction,Plated,PTH,ViaDrill
T2C0.0157
; #@! TA.AperFunction,Plated,PTH,ComponentDrill
T3C0.0276
; #@! TA.AperFunction,Plated,PTH,ComponentDrill
T4C0.0315
; #@! TA.AperFunction,Plated,PTH,ComponentDrill
T5C0.0335
; #@! TA.AperFunction,Plated,PTH,ComponentDrill
T6C0.0394
; #@! TA.AperFunction,Plated,PTH,ComponentDrill
T7C0.0453
; #@! TA.AperFunction,Plated,PTH,ComponentDrill
T8C0.0571
%
G90
G05
T1
X-14.5268Y-4.1693
X-14.5268Y-4.2244
X-14.4992Y-4.1417
X-14.4992Y-4.1959
X-14.4992Y-4.252
X-14.4717Y-4.1693
X-14.4717Y-4.2244
X-14.4441Y-4.1417
X-14.4441Y-4.1959
X-14.4441Y-4.252
X-14.4165Y-4.1693
X-14.4165Y-4.2244
T2
X-20.2469Y-0.4226
X-20.2467Y-0.5797
X-20.2449Y1.4179
X-20.2447Y1.2608
X-20.1719Y-0.4226
X-20.1717Y-0.5797
X-20.1699Y1.4179
X-20.1697Y1.2608
X-20.0969Y-0.4226
X-20.0967Y-0.5797
X-20.0949Y1.4179
X-20.0947Y1.2608
X-20.0219Y-0.4226
X-20.0217Y-0.5797
X-20.0199Y1.4179
X-20.0197Y1.2608
X-19.9469Y-0.4226
X-19.9467Y-0.5797
X-19.9449Y1.4179
X-19.9447Y1.2608
X-19.765Y-5.65
X-19.7598Y-4.8524
X-19.7402Y-3.374
X-19.7146Y-5.4016
X-19.6654Y-4.8543
X-19.665Y-5.65
X-19.63Y-4.7303
X-19.6295Y-4.6245
X-19.6161Y-5.4016
X-19.566Y-5.65
X-19.565Y-4.8543
X-19.5598Y-4.7611
X-19.4646Y-4.8543
X-19.464Y-5.65
X-19.4154Y-5.4016
X-19.3693Y-4.735
X-19.344Y-5.65
X-19.3406Y-3.4626
X-19.3386Y-5.0374
X-19.3248Y-3.9724
X-19.287Y-4.801
X-19.2835Y-3.8701
X-19.2362Y-5.4016
X-19.1909Y-4.9016
X-19.18Y-5.65
X-19.1654Y-5.0374
X-19.1158Y-4.801
X-19.0748Y-4.8543
X-19.0669Y-5.4016
X-19.0528Y2.7299
X-19.0528Y0.878
X-19.0528Y-0.9701
X-19.052Y2.696
X-19.052Y2.662
X-19.052Y2.628
X-19.0157Y-1.2894
X-19.015Y-5.65
X-18.9972Y-2.828
X-18.9921Y-5.0374
X-18.9626Y-2.2963
X-18.9587Y-2.7106
X-18.9446Y-4.803
X-18.937Y-2.7717
X-18.9272Y-3.0807
X-18.9075Y-4.8504
X-18.886Y-3.0812
X-18.8642Y-1.1713
X-18.8454Y-3.0812
X-18.8346Y-4.8484
X-18.834Y-5.65
X-18.815Y0.6732
X-18.8033Y-4.803
X-18.7795Y-5.4016
X-18.7734Y3.2122
X-18.7732Y3.0551
X-18.7618Y2.5276
X-18.715Y-5.6319
X-18.7146Y-4.8543
X-18.7085Y0.6211
X-18.7075Y0.5669
X-18.7016Y-0.8327
X-18.7016Y-1.3593
X-18.7006Y-0.8868
X-18.7006Y-1.4134
X-18.6984Y3.2122
X-18.6982Y3.0551
X-18.689Y-5.0374
X-18.6614Y-2.7953
X-18.6526Y-2.2972
X-18.6524Y0.6211
X-18.6514Y0.5669
X-18.6455Y-0.8327
X-18.6455Y-1.3593
X-18.6445Y-0.8868
X-18.6445Y-1.4134
X-18.6417Y-4.803
X-18.6234Y3.2122
X-18.6232Y3.0551
X-18.5972Y0.6211
X-18.5963Y0.5669
X-18.5925Y-5.4016
X-18.5904Y-0.8327
X-18.5904Y-1.3593
X-18.5894Y-0.8868
X-18.5894Y-1.4134
X-18.5886Y-2.2972
X-18.5709Y-2.7953
X-18.5484Y3.2122
X-18.5482Y3.0551
X-18.545Y-5.6299
X-18.5433Y-4.8543
X-18.5431Y0.6211
X-18.5421Y0.5669
X-18.5372Y2.4931
X-18.5362Y2.439
X-18.5362Y-0.8327
X-18.5362Y-1.3593
X-18.5352Y-0.8868
X-18.5352Y-1.4134
X-18.5217Y-5.0374
X-18.4821Y2.4931
X-18.4811Y2.439
X-18.4734Y3.2122
X-18.4732Y3.0551
X-18.4705Y-4.803
X-18.4646Y1.9291
X-18.428Y2.4931
X-18.4272Y0.0768
X-18.427Y2.439
X-18.4252Y-5.4016
X-18.4055Y-3.13
X-18.3966Y-5.629
X-18.3898Y-3.0906
X-18.3799Y-4.8543
X-18.375Y-3.05
X-18.372Y-1.7717
X-18.3719Y2.4931
X-18.3709Y2.439
X-18.3465Y-5.0374
X-18.3386Y-3.4211
X-18.3346Y-3.2559
X-18.325Y2.0827
X-18.325Y-2.87
X-18.3167Y2.4931
X-18.3157Y2.439
X-18.2994Y-4.803
X-18.2756Y-2.2972
X-18.2736Y-2.7303
X-18.2717Y-5.4016
X-18.2626Y2.4931
X-18.2616Y2.439
X-18.2067Y-5.6339
X-18.2057Y-4.804
X-18.1752Y-4.8583
X-18.1652Y3.2102
X-18.165Y3.0531
X-18.1585Y-2.2972
X-18.1417Y-3.2559
X-18.1398Y-2.7894
X-18.122Y-5.4016
X-18.1073Y-3.8346
X-18.1073Y-3.878
X-18.0902Y3.2102
X-18.09Y3.0531
X-18.079Y-5.65
X-18.0375Y-1.9173
X-18.0374Y-4.8543
X-18.0217Y-3.13
X-18.0157Y-3.813
X-18.0157Y-4.1063
X-18.0152Y3.2102
X-18.015Y3.0531
X-18.0083Y-4.805
X-18.0079Y-2.8169
X-17.9921Y-0.7303
X-17.9902Y-5.4016
X-17.98Y-5.65
X-17.9646Y-3.2008
X-17.955Y-3.05
X-17.955Y-3.0906
X-17.9429Y0.4272
X-17.9429Y-4.8543
X-17.9402Y3.2102
X-17.94Y3.0531
X-17.9291Y-3.9016
X-17.928Y-3.852
X-17.9083Y-4.805
X-17.8898Y-5.4016
X-17.8875Y2.2835
X-17.8875Y1.2067
X-17.8875Y0.378
X-17.8875Y-0.0709
X-17.8875Y-0.8957
X-17.8875Y-1.4705
X-17.8875Y-2.1535
X-17.879Y-5.65
X-17.8652Y3.2102
X-17.865Y3.0531
X-17.855Y-3.25
X-17.8406Y-4.8504
X-17.8376Y-2.2972
X-17.8366Y-2.7146
X-17.816Y-4.146
X-17.8083Y-4.759
X-17.7874Y-2.7264
X-17.781Y-5.65
X-17.779Y-4.25
X-17.757Y-4.178
X-17.7449Y-4.8067
X-17.7421Y-4.8622
X-17.7402Y-2.748
X-17.7343Y-2.2972
X-17.695Y-3.45
X-17.695Y-3.61
X-17.695Y-3.925
X-17.6909Y-5.4016
X-17.6868Y-4.1902
X-17.6772Y-2.9724
X-17.6732Y-3.7283
X-17.662Y-3.246
X-17.662Y-3.324
X-17.6614Y-3.8661
X-17.6418Y-4.3348
X-17.641Y-5.65
X-17.6357Y-4.805
X-17.6178Y-4.3047
X-17.615Y-3.1496
X-17.615Y-4.03
X-17.608Y-3.806
X-17.608Y-3.928
X-17.6024Y-4.8661
X-17.6004Y2.3839
X-17.6004Y2.124
X-17.6004Y1.3071
X-17.6004Y0.2795
X-17.6004Y0.0197
X-17.6004Y-0.8649
X-17.6004Y-1.5709
X-17.6Y-2.0571
X-17.5988Y-4.2713
X-17.5886Y-2.7165
X-17.5531Y-5.4016
X-17.5512Y2.4823
X-17.5512Y2.0256
X-17.5512Y1.4075
X-17.5512Y0.1772
X-17.5512Y-0.8321
X-17.5512Y-1.6693
X-17.55Y-2.0197
X-17.55Y-3.666
X-17.541Y-5.65
X-17.5357Y-4.805
X-17.522Y-4.308
X-17.5209Y-4.3476
X-17.5072Y-3.7633
X-17.5059Y1.5157
X-17.502Y-4.8642
X-17.4983Y-2.8565
X-17.496Y-3.164
X-17.48Y-3.448
X-17.4693Y-4.3367
X-17.466Y-3.29
X-17.466Y-3.926
X-17.46Y-4.374
X-17.455Y-3.62
X-17.455Y-3.67
X-17.4528Y-5.4016
X-17.45Y0.9606
X-17.44Y-5.65
X-17.4035Y-4.8642
X-17.3996Y-2.2972
X-17.3996Y-2.7146
X-17.3723Y-4.805
X-17.36Y-3.16
X-17.36Y-4.358
X-17.3555Y-4.3962
X-17.34Y-4.03
X-17.338Y-5.65
X-17.324Y-3.29
X-17.324Y-3.926
X-17.3063Y-4.3877
X-17.3012Y-4.8622
X-17.284Y-3.16
X-17.28Y-3.57
X-17.2723Y-4.804
X-17.2708Y-4.356
X-17.269Y-2.825
X-17.2618Y-2.7283
X-17.2559Y-5.4016
X-17.218Y-4.3
X-17.2136Y-2.2972
X-17.2126Y-2.7126
X-17.21Y-2.87
X-17.203Y-5.65
X-17.2017Y-4.805
X-17.19Y-2.91
X-17.1855Y-3.1638
X-17.1841Y-4.3183
X-17.184Y-3.29
X-17.176Y-3.926
X-17.1693Y-4.8642
X-17.1554Y-4.3517
X-17.15Y-3.715
X-17.15Y-4.03
X-17.1481Y-4.3914
X-17.1319Y-5.75
X-17.122Y-5.4016
X-17.1171Y-3.1762
X-17.1102Y-2.7618
X-17.1017Y-4.804
X-17.099Y-5.65
X-17.09Y-4.364
X-17.086Y-3.496
X-17.081Y-4.4056
X-17.07Y-4.018
X-17.068Y-3.35
X-17.0669Y-4.8642
X-17.065Y-0.0906
X-17.05Y-3.538
X-17.0426Y-1.2669
X-17.04Y-3.196
X-17.0385Y-4.4035
X-17.037Y-3.667
X-17.0259Y2.5694
X-17.0197Y-5.4016
X-17.0118Y-2.2362
X-17.0104Y-4.364
X-17.0054Y-5.7052
X-16.999Y-5.65
X-16.988Y-3.458
X-16.988Y-3.774
X-16.988Y-3.924
X-16.9816Y-4.336
X-16.9705Y-4.8642
X-16.965Y-4.035
X-16.961Y-4.8047
X-16.9529Y-4.3634
X-16.928Y-3.555
X-16.9241Y-4.3328
X-16.9213Y2.2146
X-16.9193Y2.1772
X-16.9193Y2.1398
X-16.9176Y2.6088
X-16.905Y-3.16
X-16.898Y-5.647
X-16.8976Y1.7293
X-16.8976Y0.5906
X-16.8976Y-0.3031
X-16.8976Y-0.5315
X-16.8976Y-1.4488
X-16.8976Y-1.4902
X-16.8976Y-1.5315
X-16.8976Y-1.5728
X-16.8976Y-1.6142
X-16.8976Y-1.6555
X-16.8976Y-1.9705
X-16.8976Y-2.2953
X-16.8954Y-4.3595
X-16.8898Y-3.2894
X-16.878Y2.2146
X-16.878Y2.1772
X-16.878Y2.1398
X-16.8681Y-4.8622
X-16.8666Y-4.3322
X-16.86Y-2.685
X-16.845Y-3.275
X-16.845Y-3.98
X-16.8445Y-3.3563
X-16.844Y-3.746
X-16.836Y-4.356
X-16.835Y-4.724
X-16.8327Y2.2146
X-16.8189Y-5.4016
X-16.8032Y-4.3358
X-16.7745Y-4.3662
X-16.768Y2.5299
X-16.7677Y-4.8055
X-16.76Y-5.65
X-16.7457Y-4.3324
X-16.7323Y-4.8622
X-16.7244Y2.0315
X-16.7244Y0.9094
X-16.7244Y0.6752
X-16.7244Y-0.2126
X-16.7244Y-1.1693
X-16.7244Y-1.3386
X-16.7205Y-2.4547
X-16.717Y-4.3663
X-16.697Y-3.152
X-16.687Y-3.424
X-16.6854Y-4.0222
X-16.685Y-5.4016
X-16.6673Y-3.005
X-16.6657Y-4.793
X-16.664Y-5.65
X-16.6555Y-5.7244
X-16.6319Y-4.8622
X-16.6165Y-3.9831
X-16.6102Y-3.2636
X-16.606Y-3.181
X-16.604Y-3.344
X-16.5866Y-5.4016
X-16.576Y-3.371
X-16.5752Y-3.965
X-16.5728Y-5.7224
X-16.5657Y-4.794
X-16.559Y-5.65
X-16.5469Y-3.9358
X-16.5315Y-4.8602
X-16.529Y-3.601
X-16.52Y-3.5433
X-16.5145Y-3.9567
X-16.512Y-3.7769
X-16.511Y-3.736
X-16.508Y-3.6391
X-16.504Y-3.8973
X-16.4803Y-4.7947
X-16.48Y-3.572
X-16.471Y-3.7966
X-16.4677Y-3.7201
X-16.4661Y-3.891
X-16.461Y-3.142
X-16.459Y-5.65
X-16.4513Y-3.8555
X-16.4455Y-5.8075
X-16.4347Y-3.7003
X-16.4302Y-3.8233
X-16.4055Y-4.9287
X-16.399Y-3.092
X-16.3988Y-3.6821
X-16.3984Y-4.8103
X-16.3858Y-5.4016
X-16.3661Y-5.8701
X-16.321Y-3.192
X-16.319Y-5.65
X-16.2992Y-4.8583
X-16.25Y-5.4016
X-16.2317Y-4.768
X-16.221Y-5.65
X-16.219Y-3.042
X-16.217Y-3.242
X-16.1988Y-4.8583
X-16.1909Y-5.8169
X-16.1594Y-3.4685
X-16.1496Y-5.4016
X-16.136Y-2.94
X-16.136Y-4.738
X-16.1315Y-3.56
X-16.121Y-5.65
X-16.118Y-4.076
X-16.0984Y-4.8563
X-16.057Y-3.891
X-16.0492Y-5.815
X-16.033Y-4.8
X-16.02Y-5.65
X-16.004Y-6.055
X-16.0Y-4.8563
X-15.9843Y-4.0236
X-15.9488Y-5.4016
X-15.9331Y-6.0269
X-15.9154Y-5.7598
X-15.897Y-4.8
X-15.8868Y-2.3551
X-15.8868Y-2.393
X-15.8868Y-2.4308
X-15.879Y-5.65
X-15.8583Y-4.8602
X-15.8563Y-2.3559
X-15.8563Y-2.3937
X-15.8563Y-2.4315
X-15.802Y-1.7372
X-15.801Y-1.7913
X-15.798Y-4.8
X-15.797Y-0.7707
X-15.7961Y-0.8248
X-15.78Y-5.65
X-15.7744Y0.3976
X-15.7734Y0.3435
X-15.7618Y-4.8583
X-15.7469Y-1.7372
X-15.7459Y-1.7913
X-15.7419Y1.5226
X-15.7419Y-0.7707
X-15.7409Y1.4685
X-15.7409Y-0.8248
X-15.7193Y0.3976
X-15.7183Y2.3297
X-15.7183Y0.3435
X-15.7173Y2.2756
X-15.7146Y-5.4016
X-15.7106Y-3.3091
X-15.7106Y-4.8
X-15.6927Y-1.7372
X-15.6917Y-1.7913
X-15.6878Y-0.7707
X-15.6868Y1.5226
X-15.6868Y-0.8248
X-15.6858Y1.4685
X-15.679Y-5.65
X-15.6652Y0.3976
X-15.6642Y0.3435
X-15.6632Y2.3297
X-15.6622Y2.2756
X-15.6614Y-4.8563
X-15.6366Y-1.7372
X-15.6356Y-1.7913
X-15.6327Y1.5226
X-15.6317Y1.4685
X-15.6317Y-0.7707
X-15.6307Y-0.8248
X-15.6161Y-5.4016
X-15.6091Y2.3297
X-15.6091Y0.3976
X-15.6081Y2.2756
X-15.6081Y0.3435
X-15.6Y-4.8
X-15.5815Y-1.7372
X-15.581Y-5.65
X-15.5805Y-1.7913
X-15.5766Y1.5226
X-15.5766Y-0.7707
X-15.5756Y1.4685
X-15.5756Y-0.8248
X-15.565Y-4.8563
X-15.5539Y0.3976
X-15.553Y2.3297
X-15.553Y0.3435
X-15.552Y2.2756
X-15.5276Y-5.878
X-15.5274Y-1.7372
X-15.5264Y-1.7913
X-15.5224Y-0.7707
X-15.5215Y1.5226
X-15.5215Y-0.8248
X-15.5205Y1.4685
X-15.5138Y-5.4016
X-15.4998Y0.3976
X-15.4988Y0.3435
X-15.4978Y2.3297
X-15.4969Y2.2756
X-15.47Y-4.8
X-15.4673Y1.5226
X-15.4663Y1.4685
X-15.4437Y2.3297
X-15.4427Y2.2756
X-15.44Y-5.65
X-15.4311Y-4.8563
X-15.3819Y-5.4016
X-15.375Y-4.8
X-15.342Y-5.65
X-15.3287Y-4.8543
X-15.3091Y-5.8366
X-15.2776Y-5.4016
X-15.2618Y-3.0413
X-15.2617Y-4.8
X-15.24Y-5.65
X-15.2303Y-4.8543
X-15.2047Y-3.811
X-15.187Y-4.4114
X-15.1617Y-4.8
X-15.139Y-5.65
X-15.128Y-4.8524
X-15.0787Y-5.4016
X-15.0748Y-4.3898
X-15.07Y-4.8
X-15.063Y-5.8071
X-14.999Y-5.65
X-14.9961Y-4.8524
X-14.9914Y-6.0039
X-14.9619Y-5.9469
X-14.9567Y-3.8996
X-14.9469Y-5.4016
X-14.9277Y-4.8
X-14.9Y-5.65
X-14.8957Y-4.8524
X-14.8445Y-5.4016
X-14.8277Y-4.8
X-14.8228Y-5.7539
X-14.8098Y-4.5291
X-14.8Y-5.65
X-14.7953Y-4.8524
X-14.7185Y-4.4134
X-14.698Y-5.65
X-14.6969Y-4.8524
X-14.6933Y-4.0421
X-14.6673Y-4.378
X-14.6643Y-4.8
X-14.6437Y-5.4016
X-14.5917Y-4.8
X-14.589Y-4.0122
X-14.5591Y-4.8524
X-14.5209Y-4.7173
X-14.5118Y-5.4016
X-14.507Y-4.8
X-14.4606Y-4.8524
X-14.4571Y-3.8366
X-14.4094Y-5.4016
X-14.4Y-4.8
X-14.3602Y-4.8524
X-14.313Y-5.4016
X-14.3086Y-3.9954
X-14.3Y-4.8165
X-14.2598Y-4.8524
X-14.2205Y-4.1358
X-14.2169Y-3.8602
X-14.2169Y-3.9705
X-14.2087Y-5.4016
X-14.1913Y-3.7457
T3
X-15.1929Y-2.1319
X-15.1929Y-2.2579
X-15.1929Y-2.3445
X-15.1929Y-2.4311
X-15.0669Y-2.1319
X-15.0669Y-2.2579
X-15.0669Y-2.3445
X-15.0669Y-2.4311
T4
X-19.752Y1.8307
X-19.752Y1.6339
X-19.752Y-0.0197
X-19.752Y-0.2165
X-19.752Y-1.8701
X-19.752Y-2.0669
X-18.2559Y-3.7835
X-18.2559Y-3.9331
T5
X-19.8528Y-5.9531
X-19.8528Y-6.0516
X-19.8528Y-6.15
X-19.8528Y-6.2484
X-19.8528Y-6.3469
X-19.6267Y-6.15
X-19.6267Y-6.2484
X-19.6267Y-6.3469
X-19.475Y2.73
X-19.475Y2.63
X-19.475Y2.53
X-19.475Y2.43
X-19.475Y2.33
X-19.475Y2.23
X-19.475Y2.13
X-19.475Y2.03
X-19.475Y1.93
X-19.475Y1.83
X-19.475Y1.73
X-19.475Y0.88
X-19.475Y0.78
X-19.475Y0.68
X-19.475Y0.58
X-19.475Y0.48
X-19.475Y0.38
X-19.475Y0.28
X-19.475Y0.18
X-19.475Y0.08
X-19.475Y-0.02
X-19.475Y-0.12
X-19.475Y-0.97
X-19.475Y-1.07
X-19.475Y-1.17
X-19.475Y-1.27
X-19.475Y-1.37
X-19.475Y-1.47
X-19.475Y-1.57
X-19.475Y-1.67
X-19.475Y-1.77
X-19.475Y-1.87
X-19.475Y-1.97
X-19.4006Y-5.9531
X-19.4006Y-6.0516
X-19.4006Y-6.15
X-19.4006Y-6.2484
X-19.4006Y-6.3469
X-19.375Y2.73
X-19.375Y2.63
X-19.375Y2.53
X-19.375Y2.43
X-19.375Y2.33
X-19.375Y2.23
X-19.375Y2.13
X-19.375Y2.03
X-19.375Y1.93
X-19.375Y1.83
X-19.375Y1.73
X-19.375Y0.88
X-19.375Y0.78
X-19.375Y0.68
X-19.375Y0.58
X-19.375Y0.48
X-19.375Y0.38
X-19.375Y0.28
X-19.375Y0.18
X-19.375Y0.08
X-19.375Y-0.02
X-19.375Y-0.12
X-19.375Y-0.97
X-19.375Y-1.07
X-19.375Y-1.17
X-19.375Y-1.27
X-19.375Y-1.37
X-19.375Y-1.47
X-19.375Y-1.57
X-19.375Y-1.67
X-19.375Y-1.77
X-19.375Y-1.87
X-19.375Y-1.97
X-19.1745Y-6.15
X-19.1745Y-6.2484
X-19.1745Y-6.3469
X-18.9484Y-5.9531
X-18.9484Y-6.0516
X-18.9484Y-6.15
X-18.9484Y-6.2484
X-18.9484Y-6.3469
X-18.7224Y-6.15
X-18.7224Y-6.2484
X-18.7224Y-6.3469
X-18.4963Y-5.9531
X-18.4963Y-6.0516
X-18.4963Y-6.15
X-18.4963Y-6.2484
X-18.4963Y-6.3469
X-18.2702Y-6.15
X-18.2702Y-6.2484
X-18.2702Y-6.3469
X-18.0441Y-5.9531
X-18.0441Y-6.0516
X-18.0441Y-6.15
X-18.0441Y-6.2484
X-18.0441Y-6.3469
X-17.818Y-6.15
X-17.818Y-6.2484
X-17.818Y-6.3469
X-17.5919Y-5.9531
X-17.5919Y-6.0516
X-17.5919Y-6.15
X-17.5919Y-6.2484
X-17.5919Y-6.3469
X-17.3659Y-6.15
X-17.3659Y-6.2484
X-17.3659Y-6.3469
X-17.175Y2.73
X-17.175Y2.63
X-17.175Y2.53
X-17.175Y2.43
X-17.175Y2.33
X-17.175Y2.23
X-17.175Y2.13
X-17.175Y2.03
X-17.175Y1.93
X-17.175Y1.83
X-17.175Y1.73
X-17.175Y0.88
X-17.175Y0.78
X-17.175Y0.68
X-17.175Y0.58
X-17.175Y0.48
X-17.175Y0.38
X-17.175Y0.28
X-17.175Y0.18
X-17.175Y0.08
X-17.175Y-0.02
X-17.175Y-0.12
X-17.175Y-0.97
X-17.175Y-1.07
X-17.175Y-1.17
X-17.175Y-1.27
X-17.175Y-1.37
X-17.175Y-1.47
X-17.175Y-1.57
X-17.175Y-1.67
X-17.175Y-1.77
X-17.175Y-1.87
X-17.175Y-1.97
X-17.1398Y-5.9531
X-17.1398Y-6.0516
X-17.1398Y-6.15
X-17.1398Y-6.2484
X-17.1398Y-6.3469
X-16.9137Y-6.15
X-16.9137Y-6.2484
X-16.9137Y-6.3469
X-16.6935Y2.9435
X-16.6935Y2.2135
X-16.6876Y-5.9531
X-16.6876Y-6.0516
X-16.6876Y-6.15
X-16.6876Y-6.2484
X-16.6876Y-6.3469
X-16.5935Y2.9435
X-16.5935Y2.2135
X-16.4615Y-6.15
X-16.4615Y-6.2484
X-16.4615Y-6.3469
X-16.2735Y2.9435
X-16.2735Y2.2135
X-16.2354Y-5.9531
X-16.2354Y-6.0516
X-16.2354Y-6.15
X-16.2354Y-6.2484
X-16.2354Y-6.3469
X-16.1735Y2.9435
X-16.1735Y2.2135
X-16.025Y2.83
X-16.025Y2.73
X-16.025Y2.63
X-16.025Y2.53
X-16.025Y2.43
X-16.025Y2.33
X-16.025Y2.23
X-16.025Y2.13
X-16.025Y2.03
X-16.025Y1.93
X-16.025Y1.83
X-16.025Y1.7087
X-16.025Y1.6087
X-16.025Y1.5088
X-16.025Y1.4087
X-16.025Y1.3088
X-16.025Y1.2087
X-16.025Y1.1087
X-16.025Y1.0088
X-16.025Y0.9087
X-16.025Y0.8087
X-16.025Y0.7087
X-16.025Y0.5875
X-16.025Y0.4875
X-16.025Y0.3875
X-16.025Y0.2875
X-16.025Y0.1875
X-16.025Y0.0875
X-16.025Y-0.0125
X-16.025Y-0.1125
X-16.025Y-0.2125
X-16.025Y-0.3125
X-16.025Y-0.4125
X-16.025Y-0.5337
X-16.025Y-0.6338
X-16.025Y-0.7338
X-16.025Y-0.8337
X-16.025Y-0.9337
X-16.025Y-1.0337
X-16.025Y-1.1338
X-16.025Y-1.2337
X-16.025Y-1.3337
X-16.025Y-1.4337
X-16.025Y-1.5337
X-16.025Y-1.655
X-16.025Y-1.755
X-16.025Y-1.855
X-16.025Y-1.955
X-16.025Y-2.055
X-16.025Y-2.155
X-16.025Y-2.255
X-16.025Y-2.355
X-16.025Y-2.455
X-16.025Y-2.555
X-16.025Y-2.655
X-16.0093Y-6.15
X-16.0093Y-6.2484
X-16.0093Y-6.3469
X-15.9075Y-4.3598
X-15.8091Y-4.3598
X-15.7833Y-5.9531
X-15.7833Y-6.0516
X-15.7833Y-6.15
X-15.7833Y-6.2484
X-15.7833Y-6.3469
X-15.5925Y-2.9606
X-15.5925Y-3.2206
X-15.5906Y-3.4843
X-15.5654Y-4.359
X-15.5572Y-6.15
X-15.5572Y-6.2484
X-15.5572Y-6.3469
X-15.5571Y-4.0492
X-15.4941Y-2.9606
X-15.4941Y-3.2206
X-15.4921Y-3.4843
X-15.467Y-4.359
X-15.4587Y-4.0492
X-15.3957Y-2.9606
X-15.3957Y-3.2206
X-15.3602Y-4.0492
X-15.3311Y-5.9531
X-15.3311Y-6.0516
X-15.3311Y-6.15
X-15.3311Y-6.2484
X-15.3311Y-6.3469
X-15.2972Y-2.9606
X-15.2972Y-3.2206
X-15.2362Y-3.4843
X-15.1988Y-2.9606
X-15.1988Y-3.2206
X-15.1378Y-3.4843
X-15.105Y-6.15
X-15.105Y-6.2484
X-15.105Y-6.3469
X-14.88Y-5.8606
X-14.88Y-6.1156
X-14.8784Y-6.3706
X-14.7816Y-5.8606
X-14.7816Y-6.1156
X-14.78Y-6.3706
X-14.6831Y-5.8606
X-14.6831Y-6.1156
X-14.6816Y-6.3706
X-14.625Y2.83
X-14.625Y2.73
X-14.625Y2.63
X-14.625Y2.53
X-14.625Y2.43
X-14.625Y2.33
X-14.625Y2.23
X-14.625Y2.13
X-14.625Y2.03
X-14.625Y1.93
X-14.625Y1.83
X-14.625Y1.7087
X-14.625Y1.6087
X-14.625Y1.5088
X-14.625Y1.4087
X-14.625Y1.3088
X-14.625Y1.2087
X-14.625Y1.1087
X-14.625Y1.0088
X-14.625Y0.9087
X-14.625Y0.8087
X-14.625Y0.7087
X-14.625Y0.5875
X-14.625Y0.4875
X-14.625Y0.3875
X-14.625Y0.2875
X-14.625Y0.1875
X-14.625Y0.0875
X-14.625Y-0.0125
X-14.625Y-0.1125
X-14.625Y-0.2125
X-14.625Y-0.3125
X-14.625Y-0.4125
X-14.625Y-0.5337
X-14.625Y-0.6338
X-14.625Y-0.7338
X-14.625Y-0.8337
X-14.625Y-0.9337
X-14.625Y-1.0337
X-14.625Y-1.1338
X-14.625Y-1.2337
X-14.625Y-1.3337
X-14.625Y-1.4337
X-14.625Y-1.5337
X-14.625Y-1.655
X-14.625Y-1.755
X-14.625Y-1.855
X-14.625Y-1.955
X-14.625Y-2.055
X-14.625Y-2.155
X-14.625Y-2.255
X-14.625Y-2.355
X-14.625Y-2.455
X-14.625Y-2.555
X-14.625Y-2.655
X-14.4811Y-2.8811
X-14.4811Y-3.0311
X-14.4811Y-3.1811
X-14.4803Y-2.5445
X-14.4803Y-2.6945
X-14.3844Y-5.8316
X-14.3844Y-5.93
X-14.3844Y-6.0284
T6
X-20.0047Y-3.7567
X-20.0047Y-4.0559
X-18.7165Y-3.0339
X-18.7165Y-3.1339
X-18.7165Y-3.2339
X-18.7165Y-3.3339
X-18.7165Y-3.4339
X-18.7165Y-3.5339
X-18.7165Y-3.6339
X-18.7165Y-3.7339
X-18.7165Y-3.8339
X-18.7165Y-3.9339
X-18.7165Y-4.0339
X-18.7165Y-4.1339
X-18.5984Y-3.0339
X-18.5984Y-3.1339
X-18.5984Y-3.2339
X-18.5984Y-3.3339
X-18.5984Y-3.4339
X-18.5984Y-3.5339
X-18.5984Y-3.6339
X-18.5984Y-3.7339
X-18.5984Y-3.8339
X-18.5984Y-3.9339
X-18.5984Y-4.0339
X-18.5984Y-4.1339
X-16.69Y-2.819
X-16.59Y-2.819
X-16.49Y-2.819
X-16.39Y-2.819
X-14.885Y-3.7488
X-14.785Y-3.7488
X-14.685Y-3.7488
X-14.585Y-3.7488
T7
X-20.0354Y0.6661
X-20.0354Y0.5161
X-20.0354Y0.3661
X-20.0354Y0.2161
X-20.035Y-1.195
X-20.035Y-1.345
X-20.035Y-1.495
X-20.035Y-1.645
X-20.0335Y2.5161
X-20.0335Y2.3661
X-20.0335Y2.2161
X-20.0335Y2.0661
X-19.9404Y0.6661
X-19.9404Y0.5161
X-19.9404Y0.3661
X-19.9404Y0.2161
X-19.94Y-1.195
X-19.94Y-1.345
X-19.94Y-1.495
X-19.94Y-1.645
X-19.9385Y2.5161
X-19.9385Y2.3661
X-19.9385Y2.2161
X-19.9385Y2.0661
X-19.9374Y-4.2961
X-19.9374Y-4.4461
X-19.9374Y-4.5961
X-19.9374Y-4.7461
X-14.4811Y2.655
X-14.4811Y2.505
X-14.4811Y2.355
X-14.4811Y2.205
X-14.4803Y-1.7488
X-14.4803Y-1.8988
X-14.4803Y-2.0488
X-14.4803Y-2.1988
X-14.4801Y-0.65
X-14.4801Y-0.8
X-14.4801Y-0.95
X-14.4801Y-1.1
X-14.4791Y0.4594
X-14.4791Y0.3094
X-14.4791Y0.1594
X-14.4791Y0.0094
X-14.4781Y1.5864
X-14.4781Y1.4364
X-14.4781Y1.2864
X-14.4781Y1.1364
X-14.39Y1.585
X-14.39Y1.435
X-14.39Y1.285
X-14.39Y1.135
X-14.39Y0.46
X-14.39Y0.31
X-14.39Y0.16
X-14.39Y0.01
X-14.39Y-0.65
X-14.39Y-0.8
X-14.39Y-0.95
X-14.39Y-1.1
X-14.3898Y-1.7495
X-14.3898Y-1.8995
X-14.3898Y-2.0495
X-14.3898Y-2.1995
X-14.3875Y2.655
X-14.3875Y2.505
X-14.3875Y2.355
X-14.3875Y2.205
T8
X-19.8287Y-2.3386
X-19.8287Y-2.5354
X-19.8287Y-2.7323
X-19.8287Y-2.9291
M30
