M48
; DRILL file {KiCad 8.0.5} date 2025-08-05T16:04:53+0900
; FORMAT={-:-/ absolute / inch / decimal}
; #@! TF.CreationDate,2025-08-05T16:04:53+09:00
; #@! TF.GenerationSoftware,Kicad,Pcbnew,8.0.5
; #@! TF.FileFunction,Plated,1,2,PTH
FMAT,2
INCH
; #@! TA.AperFunction,Plated,PTH,ViaDrill
T1C0.0157
; #@! TA.AperFunction,Plated,PTH,ViaDrill
T2C0.0197
; #@! TA.AperFunction,Plated,PTH,ComponentDrill
T3C0.0276
; #@! TA.AperFunction,Plated,PTH,ComponentDrill
T4C0.0300
; #@! TA.AperFunction,Plated,PTH,ComponentDrill
T5C0.0315
; #@! TA.AperFunction,Plated,PTH,ComponentDrill
T6C0.0335
; #@! TA.AperFunction,Plated,PTH,ComponentDrill
T7C0.0394
; #@! TA.AperFunction,Plated,PTH,ComponentDrill
T8C0.0453
; #@! TA.AperFunction,Plated,PTH,ComponentDrill
T9C0.0571
%
G90
G05
T1
X3.8549Y-10.0146
X3.8663Y-9.4026
X3.953Y-7.4391
X3.9963Y-9.2249
X3.9963Y-9.7757
X4.0248Y-9.0993
X4.0309Y-10.0158
X4.0455Y-10.1989
X4.0474Y-9.4026
X4.0986Y-9.1017
X4.1098Y-7.5493
X4.1098Y-7.6493
X4.1098Y-7.8493
X4.1098Y-8.0993
X4.1098Y-8.1993
X4.1098Y-8.6493
X4.1098Y-8.7493
X4.1248Y-7.4393
X4.1248Y-7.7493
X4.1248Y-7.9993
X4.1248Y-8.2993
X4.1248Y-8.4443
X4.1248Y-8.5493
X4.1392Y-9.2249
X4.1793Y-9.7757
X4.2065Y-10.0166
X4.2108Y-10.2501
X4.2285Y-9.4007
X4.2482Y-7.1733
X4.253Y-9.1143
X4.2748Y-9.7717
X4.3156Y-9.2245
X4.3498Y-7.5093
X4.3498Y-7.5993
X4.3498Y-7.6993
X4.3498Y-7.7993
X4.3498Y-7.8993
X4.3498Y-8.0443
X4.3498Y-8.1443
X4.3498Y-8.2443
X4.3498Y-8.3443
X4.3498Y-8.4943
X4.3498Y-8.5943
X4.3498Y-8.6943
X4.3498Y-8.7943
X4.3805Y-10.0174
X4.3904Y-9.2257
X4.4448Y-9.1193
X4.4864Y-9.7757
X4.4943Y-10.2048
X4.5425Y-9.3997
X4.5553Y-10.0186
X4.5937Y-9.1733
X4.6321Y-9.2245
X4.6695Y-9.7757
X4.6715Y-7.2914
X4.6982Y-10.2552
X4.7236Y-9.3997
X4.7301Y-10.0186
X4.7368Y-6.6533
X4.7709Y-9.1743
X4.7748Y-2.6093
X4.7748Y-2.7093
X4.7748Y-2.8093
X4.7748Y-3.3093
X4.7748Y-3.4093
X4.7748Y-3.5093
X4.7748Y-3.9593
X4.7748Y-4.0593
X4.7748Y-4.1593
X4.7748Y-4.6793
X4.7748Y-4.7793
X4.7748Y-4.8793
X4.7808Y-6.8373
X4.8088Y-5.8513
X4.8132Y-9.2245
X4.8467Y-9.7757
X4.8707Y-10.0194
X4.8748Y-2.6093
X4.8748Y-2.7093
X4.8748Y-2.8093
X4.8748Y-3.3093
X4.8748Y-3.4093
X4.8748Y-3.5093
X4.8748Y-3.9593
X4.8748Y-4.0593
X4.8748Y-4.1593
X4.8748Y-4.6793
X4.8748Y-4.7793
X4.8748Y-4.8793
X4.8848Y-7.5493
X4.8848Y-7.6493
X4.8848Y-7.7493
X4.8848Y-7.8493
X4.8848Y-7.9993
X4.8848Y-8.0993
X4.8848Y-8.1993
X4.8848Y-8.2993
X4.8848Y-8.4493
X4.8848Y-8.5493
X4.8848Y-8.6493
X4.8848Y-8.7493
X4.8868Y-6.6533
X4.8908Y-5.8513
X4.9047Y-9.3997
X4.9388Y-6.8373
X4.9539Y-9.1713
X4.9548Y-7.4493
X4.9548Y-7.5993
X4.9548Y-7.6993
X4.9548Y-7.7793
X4.9548Y-7.8593
X4.9548Y-7.9243
X4.9548Y-8.0493
X4.9548Y-8.1593
X4.9548Y-8.2493
X4.9548Y-8.3993
X4.9548Y-8.5093
X4.9548Y-8.6093
X4.9548Y-8.7093
X4.9665Y-5.1576
X4.9748Y-4.3053
X4.9888Y-6.8373
X4.9923Y-9.2245
X5.0135Y-4.4043
X5.0179Y-9.7757
X5.0388Y-6.8373
X5.0448Y-3.6913
X5.0691Y-9.2225
X5.0805Y-10.019
X5.0848Y-5.2093
X5.0848Y-6.8373
X5.1148Y-9.1713
X5.1321Y-9.7717
X5.1349Y-7.9243
X5.1349Y-7.9627
X5.1349Y-8.0012
X5.1349Y-8.0396
X5.1349Y-8.0781
X5.1349Y-8.1165
X5.1349Y-8.1549
X5.1349Y-8.1934
X5.1408Y-6.6533
X5.1813Y-9.1713
X5.1908Y-5.8513
X5.2098Y-7.6243
X5.2098Y-7.6743
X5.2098Y-7.7243
X5.2098Y-7.7743
X5.2098Y-7.8243
X5.21Y-10.0186
X5.2305Y-9.2245
X5.2778Y-9.7717
X5.2955Y-9.1713
X5.3112Y-7.5394
X5.314Y-10.0194
X5.327Y-9.2245
X5.3428Y-5.8513
X5.3428Y-6.6533
X5.3801Y-9.7717
X5.3908Y-3.6053
X5.3928Y-6.8355
X5.4075Y-9.1732
X5.4171Y-10.0194
X5.4248Y-9.2243
X5.4408Y-6.8355
X5.4428Y-2.9973
X5.4448Y-8.7493
X5.4928Y-6.8355
X5.4988Y-2.2653
X5.5012Y-9.1742
X5.5198Y-10.0143
X5.5317Y-9.2284
X5.5408Y-1.5493
X5.5428Y-6.8345
X5.5848Y-9.7717
X5.5948Y-5.8513
X5.6045Y-8.7639
X5.6279Y-10.0202
X5.6301Y-8.8241
X5.6448Y-6.6533
X5.6478Y-8.2717
X5.6478Y-8.3406
X5.6541Y-8.8431
X5.6685Y-7.5601
X5.6695Y-9.2245
X5.6748Y-5.8513
X5.6781Y-8.8621
X5.6786Y-7.7993
X5.6911Y-8.1831
X5.6986Y-9.1752
X5.7167Y-9.7717
X5.7187Y-8.5276
X5.7248Y-5.8513
X5.7269Y-10.0202
X5.762Y-8.7186
X5.764Y-9.2245
X5.7986Y-9.1752
X5.8028Y-5.8513
X5.8088Y-6.6533
X5.8171Y-9.7717
X5.8279Y-10.0202
X5.8528Y-6.781
X5.8604Y-8.7658
X5.8604Y-8.8013
X5.8663Y-9.2205
X5.8848Y-7.3993
X5.8986Y-9.1292
X5.9036Y-6.781
X5.9048Y-5.3695
X5.9148Y-5.3193
X5.9215Y-8.691
X5.9259Y-10.0202
X5.9408Y-7.1533
X5.9536Y-6.781
X5.9548Y-5.3998
X5.9613Y-8.617
X5.9613Y-8.6706
X5.962Y-9.1768
X5.9648Y-9.2324
X5.9828Y-7.1533
X5.9938Y-7.6511
X6.0028Y-6.781
X6.0098Y-5.2993
X6.0119Y-7.8202
X6.0119Y-7.9802
X6.0119Y-8.2952
X6.012Y-8.2349
X6.0159Y-9.7717
X6.0224Y-7.1533
X6.0248Y-7.6493
X6.0309Y-7.6126
X6.0472Y-7.1193
X6.0548Y-5.8513
X6.0548Y-6.6533
X6.0612Y-7.6084
X6.0659Y-10.0202
X6.0712Y-9.1752
X6.0719Y-5.3333
X6.0799Y-7.5827
X6.0848Y-5.3695
X6.0919Y-8.4002
X6.0954Y-7.1533
X6.1045Y-9.2363
X6.1061Y-5.4016
X6.1348Y-7.5355
X6.1368Y-7.1573
X6.1537Y-9.7717
X6.1548Y-5.8513
X6.1659Y-10.0202
X6.1712Y-9.1752
X6.1767Y-7.1573
X6.1848Y-4.3293
X6.1848Y-4.4293
X6.1848Y-4.5293
X6.1848Y-6.6743
X6.2049Y-9.2343
X6.2148Y-3.5093
X6.2148Y-3.6093
X6.2148Y-3.7093
X6.2151Y-7.1573
X6.2288Y-7.3953
X6.2487Y-8.6373
X6.2541Y-9.7717
X6.2548Y-2.7293
X6.2548Y-2.8293
X6.2548Y-2.9293
X6.2588Y-5.8513
X6.2608Y-6.6533
X6.2659Y-8.4017
X6.2669Y-10.0202
X6.2735Y-8.6102
X6.2848Y-4.3293
X6.2848Y-4.4293
X6.2848Y-4.5293
X6.3014Y-8.3761
X6.3033Y-9.2343
X6.3048Y-7.5393
X6.3098Y-4.6743
X6.3098Y-6.9093
X6.3148Y-3.5093
X6.3148Y-3.6093
X6.3148Y-3.7093
X6.3346Y-9.1752
X6.3448Y-7.5493
X6.3548Y-2.7293
X6.3548Y-2.8293
X6.3548Y-2.9293
X6.3589Y-8.5355
X6.3598Y-3.9493
X6.3598Y-6.8493
X6.3608Y-7.2613
X6.3669Y-8.4002
X6.3689Y-10.0202
X6.3786Y-8.5686
X6.3838Y-7.0963
X6.3848Y-1.7493
X6.3848Y-1.8493
X6.3848Y-1.9493
X6.3983Y-8.6017
X6.4048Y-3.2593
X6.4051Y-8.6396
X6.4057Y-9.2324
X6.4104Y-6.8493
X6.4169Y-7.0963
X6.4346Y-9.1742
X6.4382Y-8.0109
X6.4499Y-7.0963
X6.451Y-9.7717
X6.4554Y-8.6225
X6.4667Y-7.9194
X6.4794Y-8.6415
X6.4805Y-8.3997
X6.4829Y-7.0963
X6.4848Y-1.7493
X6.4848Y-1.8493
X6.4848Y-1.9493
X6.4952Y-8.581
X6.5039Y-10.0202
X6.5052Y-9.1752
X6.5068Y-6.6533
X6.5108Y-5.8513
X6.5159Y-7.0963
X6.5214Y-7.534
X6.5258Y-7.9563
X6.5376Y-9.2343
X6.5448Y-8.3773
X6.549Y-7.0963
X6.5739Y-8.4036
X6.5746Y-5.0493
X6.575Y-10.1202
X6.5755Y-8.5568
X6.5779Y-7.5345
X6.5808Y-7.1493
X6.5848Y-9.7717
X6.5945Y-7.0372
X6.5951Y-8.5899
X6.5963Y-7.0678
X6.6052Y-9.1742
X6.6063Y-3.1493
X6.6063Y-5.081
X6.6079Y-10.0202
X6.6097Y-8.6273
X6.6098Y-6.6743
X6.6148Y-5.8513
X6.6369Y-8.3882
X6.6381Y-2.5943
X6.6381Y-5.1193
X6.64Y-9.2343
X6.6454Y-7.0052
X6.652Y-8.6076
X6.6698Y-5.1593
X6.68Y-7.0052
X6.6872Y-9.7717
X6.6892Y-8.6179
X6.6947Y-10.0568
X6.6992Y-8.3719
X6.7079Y-10.0202
X6.7165Y-8.5639
X6.7168Y-5.8513
X6.7208Y-6.6533
X6.7248Y-3.8543
X6.7288Y-7.0052
X6.7293Y-8.6312
X6.7348Y-5.3693
X6.7364Y-9.2343
X6.7459Y-9.1749
X6.7595Y-7.0052
X6.7618Y-8.3939
X6.7789Y-7.9252
X6.7948Y-6.9893
X6.8019Y-7.5302
X6.8089Y-10.0172
X6.8182Y-6.7733
X6.8348Y-1.8293
X6.8348Y-7.0052
X6.8358Y-8.1379
X6.8388Y-9.2324
X6.8488Y-6.7733
X6.8493Y-8.6106
X6.8495Y-8.6527
X6.854Y-8.5746
X6.8619Y-7.6452
X6.8619Y-8.3502
X6.8624Y-7.7265
X6.8657Y-8.7688
X6.8821Y-8.0867
X6.8841Y-7.3111
X6.886Y-8.5532
X6.888Y-9.7717
X6.8978Y-9.0581
X6.9098Y-5.191
X6.9148Y-5.3693
X6.9392Y-9.1757
X6.9469Y-10.0202
X6.9668Y-5.8513
X6.9708Y-6.6533
X6.9746Y-9.2324
X6.9871Y-8.1471
X6.9899Y-8.6123
X6.9943Y-8.3465
X6.9943Y-8.4351
X6.9948Y-5.4293
X6.9948Y-5.5293
X6.9948Y-5.6293
X7.0041Y-7.9502
X7.0201Y-8.0865
X7.0219Y-9.7717
X7.0245Y-8.3227
X7.0372Y-7.9699
X7.0412Y-9.1632
X7.0429Y-10.0202
X7.0514Y-10.0946
X7.0528Y-7.5999
X7.0532Y-8.0668
X7.0553Y-8.1668
X7.0576Y-8.303
X7.0703Y-7.9896
X7.075Y-9.2324
X7.0821Y-7.6293
X7.0888Y-8.1858
X7.0907Y-8.2833
X7.0948Y-5.4293
X7.0948Y-5.5293
X7.0948Y-5.6293
X7.1006Y-8.4883
X7.1034Y-8.0093
X7.1058Y-7.882
X7.1133Y-8.0383
X7.1148Y-7.5157
X7.1203Y-9.7717
X7.1222Y-8.2048
X7.1238Y-8.2637
X7.1317Y-7.4393
X7.1341Y-10.0926
X7.1412Y-9.1642
X7.1479Y-10.0202
X7.1518Y-8.2349
X7.1688Y-5.8513
X7.1748Y-6.6533
X7.1754Y-9.2304
X7.2198Y-5.1243
X7.2266Y-9.1648
X7.2294Y-6.7343
X7.2479Y-10.0202
X7.2614Y-10.1777
X7.2679Y-6.7343
X7.2698Y-5.1575
X7.3014Y-9.2989
X7.3043Y-7.803
X7.3048Y-7.5308
X7.3048Y-7.5693
X7.3058Y-7.7702
X7.3063Y-6.7343
X7.3068Y-7.3378
X7.3085Y-9.1805
X7.3198Y-5.1893
X7.3211Y-9.7717
X7.3407Y-10.2402
X7.3418Y-7.2928
X7.3448Y-6.7343
X7.3588Y-7.3653
X7.3598Y-5.2293
X7.3718Y-7.2428
X7.3798Y-7.0402
X7.3879Y-10.0202
X7.4068Y-7.1928
X7.4077Y-9.2284
X7.4188Y-5.8513
X7.4548Y-5.2993
X7.4548Y-5.3993
X7.4548Y-5.4993
X7.4569Y-9.7717
X7.4578Y-8.1182
X7.4603Y-8.0856
X7.4728Y-6.6533
X7.4752Y-9.1382
X7.4859Y-10.0202
X7.5081Y-9.2284
X7.5108Y-5.8533
X7.5548Y-5.2993
X7.5548Y-5.3993
X7.5548Y-5.4993
X7.5573Y-9.7717
X7.5624Y-10.1406
X7.5709Y-9.1082
X7.5859Y-10.0202
X7.6085Y-9.2265
X7.6348Y-6.6943
X7.6577Y-10.1851
X7.6739Y-9.1702
X7.6748Y-6.7243
X7.6869Y-10.0202
X7.7029Y-10.4252
X7.7069Y-9.2265
X7.7581Y-9.7717
X7.7738Y-10.397
X7.7748Y-6.5193
X7.7915Y-10.13
X7.7948Y-2.7293
X7.7948Y-2.8293
X7.7948Y-2.9293
X7.7948Y-3.4393
X7.7948Y-3.5393
X7.7948Y-3.6393
X7.7948Y-4.1393
X7.7948Y-4.2393
X7.7948Y-4.3393
X7.7948Y-4.7993
X7.7948Y-4.8993
X7.7948Y-4.9993
X7.8099Y-9.1702
X7.8279Y-10.0202
X7.8314Y-8.8365
X7.8486Y-9.2304
X7.8658Y-8.8203
X7.8948Y-2.7293
X7.8948Y-2.8293
X7.8948Y-2.9293
X7.8948Y-3.4393
X7.8948Y-3.5393
X7.8948Y-3.6393
X7.8948Y-4.1393
X7.8948Y-4.2393
X7.8948Y-4.3393
X7.8948Y-4.7993
X7.8948Y-4.8993
X7.8948Y-4.9993
X7.9048Y-6.4393
X7.9089Y-9.1702
X7.9148Y-6.2893
X7.9269Y-10.0202
X7.9451Y-9.2284
X7.9593Y-8.5802
X7.9698Y-6.9693
X7.9698Y-7.0402
X7.9923Y-9.7717
X7.9963Y-9.1702
X8.0048Y-6.3793
X8.0279Y-10.0202
X8.0324Y-8.3235
X8.0455Y-9.2265
X8.0592Y-7.3963
X8.0658Y-8.3602
X8.0691Y-7.2557
X8.0758Y-8.4102
X8.0789Y-7.3049
X8.0907Y-9.7717
X8.0948Y-6.3193
X8.0974Y-6.755
X8.1069Y-9.1702
X8.1104Y-6.6929
X8.1259Y-10.0202
X8.1261Y-7.2183
X8.1419Y-9.2265
X8.1658Y-8.2302
X8.1793Y-10.2481
X8.1931Y-9.7717
X8.2258Y-8.0602
X8.2369Y-9.1702
X8.2669Y-10.0202
X8.2758Y-9.2265
X8.3151Y-6.7931
X8.3151Y-7.3442
X8.325Y-9.7717
X8.3319Y-9.1702
X8.3448Y-8.0202
X8.3501Y-7.8702
X8.3649Y-10.0202
X8.3774Y-10.2024
X8.3781Y-9.2245
X8.4293Y-9.7717
X8.4452Y-9.1702
X8.4669Y-10.0202
X8.4766Y-9.2245
X8.5452Y-9.1702
X8.5679Y-10.0202
X8.5789Y-9.2225
X8.6281Y-9.7717
X8.6369Y-9.1702
X8.6439Y-10.1772
X8.6548Y-5.4793
X8.6548Y-5.5793
X8.6548Y-5.6793
X8.7079Y-10.0202
X8.7108Y-9.2225
X8.7155Y-10.3741
X8.745Y-10.317
X8.7548Y-5.4793
X8.7548Y-5.5793
X8.7548Y-5.6793
X8.76Y-9.7717
X8.7658Y-8.3402
X8.7658Y-8.4002
X8.7734Y-9.2602
X8.7858Y-8.6802
X8.8069Y-10.0202
X8.8112Y-9.2225
X8.8624Y-9.7717
X8.8792Y-9.2102
X8.8841Y-10.1241
X8.9069Y-10.0202
X8.9116Y-9.2225
X8.9332Y-7.4466
X8.945Y-6.5962
X8.945Y-6.7852
X8.945Y-7.1474
X8.9558Y-8.7302
X8.9962Y-6.7045
X8.9962Y-7.2694
X9.0089Y-10.0202
X9.01Y-9.2225
X9.0426Y-9.2002
X9.0435Y-6.7813
X9.0435Y-7.482
X9.0632Y-9.7717
X9.0946Y-6.5726
X9.0946Y-7.1356
X9.1152Y-9.1702
X9.1478Y-9.2225
X9.1951Y-9.7717
X9.1999Y-9.1702
X9.2463Y-9.2225
X9.2558Y-8.5602
X9.2728Y-9.1702
X9.2974Y-9.7717
X9.3467Y-9.2225
X9.3915Y-9.1713
X9.3939Y-9.7717
X9.447Y-9.2225
X9.4982Y-9.7717
T2
X5.6648Y-4.1393
X5.7628Y-4.2093
X5.8628Y-4.1693
X6.4598Y-6.7393
X6.4648Y-4.1693
X6.5068Y-6.9213
X6.5493Y-6.8693
X6.5828Y-6.9253
X6.6528Y-6.8113
X6.7648Y-4.201
X6.7888Y-6.7253
X6.8148Y-4.1375
X7.1098Y-4.1693
X7.2098Y-4.1993
X7.3098Y-4.1293
T3
X8.6756Y-6.0333
X8.6756Y-6.1593
X8.7622Y-6.0333
X8.7622Y-6.1593
X8.8489Y-6.0333
X8.8489Y-6.1593
X8.9057Y-5.0143
X8.9057Y-5.1009
X8.9057Y-5.1875
X8.9057Y-5.3135
X8.9748Y-6.0333
X8.9748Y-6.1593
X9.0317Y-5.0143
X9.0317Y-5.1009
X9.0317Y-5.1875
X9.0317Y-5.3135
T4
X3.7159Y-3.642
X3.7159Y-3.742
X3.7163Y-5.0576
X3.7163Y-5.1576
X3.7167Y-4.353
X3.7167Y-4.453
X3.7207Y-1.4993
X3.7207Y-1.5993
X3.7207Y-2.2131
X3.7207Y-2.3131
X3.7207Y-2.9298
X3.7207Y-3.0298
X3.8159Y-3.642
X3.8159Y-3.742
X3.8163Y-5.0576
X3.8163Y-5.1576
X3.8167Y-4.353
X3.8167Y-4.453
X3.8207Y-1.4993
X3.8207Y-1.5993
X3.8207Y-2.2131
X3.8207Y-2.3131
X3.8207Y-2.9298
X3.8207Y-3.0298
X3.9159Y-3.642
X3.9159Y-3.742
X3.9163Y-5.0576
X3.9163Y-5.1576
X3.9167Y-4.353
X3.9167Y-4.453
X3.9207Y-1.4993
X3.9207Y-1.5993
X3.9207Y-2.2131
X3.9207Y-2.3131
X3.9207Y-2.9298
X3.9207Y-3.0298
X4.0159Y-3.642
X4.0159Y-3.742
X4.0163Y-5.0576
X4.0163Y-5.1576
X4.0167Y-4.353
X4.0167Y-4.453
X4.0207Y-1.4993
X4.0207Y-1.5993
X4.0207Y-2.2131
X4.0207Y-2.3131
X4.0207Y-2.9298
X4.0207Y-3.0298
X4.1159Y-3.642
X4.1159Y-3.742
X4.1163Y-5.0576
X4.1163Y-5.1576
X4.1167Y-4.353
X4.1167Y-4.453
X4.1207Y-1.4993
X4.1207Y-1.5993
X4.1207Y-2.2131
X4.1207Y-2.3131
X4.1207Y-2.9298
X4.1207Y-3.0298
X4.2159Y-3.642
X4.2159Y-3.742
X4.2163Y-5.0576
X4.2163Y-5.1576
X4.2167Y-4.353
X4.2167Y-4.453
X4.2207Y-1.4993
X4.2207Y-1.5993
X4.2207Y-2.2131
X4.2207Y-2.3131
X4.2207Y-2.9298
X4.2207Y-3.0298
X4.3159Y-3.642
X4.3159Y-3.742
X4.3163Y-5.0576
X4.3163Y-5.1576
X4.3167Y-4.353
X4.3167Y-4.453
X4.3207Y-1.4993
X4.3207Y-1.5993
X4.3207Y-2.2131
X4.3207Y-2.3131
X4.3207Y-2.9298
X4.3207Y-3.0298
X4.4159Y-3.642
X4.4159Y-3.742
X4.4163Y-5.0576
X4.4163Y-5.1576
X4.4167Y-4.353
X4.4167Y-4.453
X4.4207Y-1.4993
X4.4207Y-1.5993
X4.4207Y-2.2131
X4.4207Y-2.3131
X4.4207Y-2.9298
X4.4207Y-3.0298
X4.5159Y-3.642
X4.5159Y-3.742
X4.5163Y-5.0576
X4.5163Y-5.1576
X4.5167Y-4.353
X4.5167Y-4.453
X4.5207Y-1.4993
X4.5207Y-1.5993
X4.5207Y-2.2131
X4.5207Y-2.3131
X4.5207Y-2.9298
X4.5207Y-3.0298
X4.6159Y-3.642
X4.6159Y-3.742
X4.6163Y-5.0576
X4.6163Y-5.1576
X4.6167Y-4.353
X4.6167Y-4.453
X4.6207Y-1.4993
X4.6207Y-1.5993
X4.6207Y-2.2131
X4.6207Y-2.3131
X4.6207Y-2.9298
X4.6207Y-3.0298
X5.6159Y-3.642
X5.6159Y-3.742
X5.6163Y-5.0576
X5.6163Y-5.1576
X5.6167Y-4.353
X5.6167Y-4.453
X5.6207Y-1.4993
X5.6207Y-1.5993
X5.6207Y-2.2131
X5.6207Y-2.3131
X5.6207Y-2.9298
X5.6207Y-3.0298
X5.7159Y-3.642
X5.7159Y-3.742
X5.7163Y-5.0576
X5.7163Y-5.1576
X5.7167Y-4.353
X5.7167Y-4.453
X5.7207Y-1.4993
X5.7207Y-1.5993
X5.7207Y-2.2131
X5.7207Y-2.3131
X5.7207Y-2.9298
X5.7207Y-3.0298
X5.8159Y-3.642
X5.8159Y-3.742
X5.8163Y-5.0576
X5.8163Y-5.1576
X5.8167Y-4.353
X5.8167Y-4.453
X5.8207Y-1.4993
X5.8207Y-1.5993
X5.8207Y-2.2131
X5.8207Y-2.3131
X5.8207Y-2.9298
X5.8207Y-3.0298
X5.9159Y-3.642
X5.9159Y-3.742
X5.9163Y-5.0576
X5.9163Y-5.1576
X5.9167Y-4.353
X5.9167Y-4.453
X5.9207Y-1.4993
X5.9207Y-1.5993
X5.9207Y-2.2131
X5.9207Y-2.3131
X5.9207Y-2.9298
X5.9207Y-3.0298
X6.0159Y-3.642
X6.0159Y-3.742
X6.0163Y-5.0576
X6.0163Y-5.1576
X6.0167Y-4.353
X6.0167Y-4.453
X6.0207Y-1.4993
X6.0207Y-1.5993
X6.0207Y-2.2131
X6.0207Y-2.3131
X6.0207Y-2.9298
X6.0207Y-3.0298
X6.9608Y-3.8513
X6.9608Y-3.9513
X6.9608Y-4.5614
X6.9608Y-4.6614
X6.9612Y-1.7308
X6.9612Y-1.8308
X6.9612Y-2.4409
X6.9612Y-2.5409
X6.9612Y-3.1511
X6.9612Y-3.2511
X7.0608Y-3.8513
X7.0608Y-3.9513
X7.0608Y-4.5614
X7.0608Y-4.6614
X7.0612Y-1.7308
X7.0612Y-1.8308
X7.0612Y-2.4409
X7.0612Y-2.5409
X7.0612Y-3.1511
X7.0612Y-3.2511
X7.1608Y-3.8513
X7.1608Y-3.9513
X7.1608Y-4.5614
X7.1608Y-4.6614
X7.1612Y-1.7308
X7.1612Y-1.8308
X7.1612Y-2.4409
X7.1612Y-2.5409
X7.1612Y-3.1511
X7.1612Y-3.2511
X7.2608Y-3.8513
X7.2608Y-3.9513
X7.2608Y-4.5614
X7.2608Y-4.6614
X7.2612Y-1.7308
X7.2612Y-1.8308
X7.2612Y-2.4409
X7.2612Y-2.5409
X7.2612Y-3.1511
X7.2612Y-3.2511
X7.3608Y-3.8513
X7.3608Y-3.9513
X7.3608Y-4.5614
X7.3608Y-4.6614
X7.3612Y-1.7308
X7.3612Y-1.8308
X7.3612Y-2.4409
X7.3612Y-2.5409
X7.3612Y-3.1511
X7.3612Y-3.2511
X8.3608Y-3.8513
X8.3608Y-3.9513
X8.3608Y-4.5614
X8.3608Y-4.6614
X8.3612Y-1.7308
X8.3612Y-1.8308
X8.3612Y-2.4409
X8.3612Y-2.5409
X8.3612Y-3.1511
X8.3612Y-3.2511
X8.4608Y-3.8513
X8.4608Y-3.9513
X8.4608Y-4.5614
X8.4608Y-4.6614
X8.4612Y-1.7308
X8.4612Y-1.8308
X8.4612Y-2.4409
X8.4612Y-2.5409
X8.4612Y-3.1511
X8.4612Y-3.2511
X8.5608Y-3.8513
X8.5608Y-3.9513
X8.5608Y-4.5614
X8.5608Y-4.6614
X8.5612Y-1.7308
X8.5612Y-1.8308
X8.5612Y-2.4409
X8.5612Y-2.5409
X8.5612Y-3.1511
X8.5612Y-3.2511
X8.6608Y-3.8513
X8.6608Y-3.9513
X8.6608Y-4.5614
X8.6608Y-4.6614
X8.6612Y-1.7308
X8.6612Y-1.8308
X8.6612Y-2.4409
X8.6612Y-2.5409
X8.6612Y-3.1511
X8.6612Y-3.2511
X8.7608Y-3.8513
X8.7608Y-3.9513
X8.7608Y-4.5614
X8.7608Y-4.6614
X8.7612Y-1.7308
X8.7612Y-1.8308
X8.7612Y-2.4409
X8.7612Y-2.5409
X8.7612Y-3.1511
X8.7612Y-3.2511
X8.8608Y-3.8513
X8.8608Y-3.9513
X8.8608Y-4.5614
X8.8608Y-4.6614
X8.8612Y-1.7308
X8.8612Y-1.8308
X8.8612Y-2.4409
X8.8612Y-2.5409
X8.8612Y-3.1511
X8.8612Y-3.2511
X8.9608Y-3.8513
X8.9608Y-3.9513
X8.9608Y-4.5614
X8.9608Y-4.6614
X8.9612Y-1.7308
X8.9612Y-1.8308
X8.9612Y-2.4409
X8.9612Y-2.5409
X8.9612Y-3.1511
X8.9612Y-3.2511
X9.0608Y-3.8513
X9.0608Y-3.9513
X9.0608Y-4.5614
X9.0608Y-4.6614
X9.0612Y-1.7308
X9.0612Y-1.8308
X9.0612Y-2.4409
X9.0612Y-2.5409
X9.0612Y-3.1511
X9.0612Y-3.2511
X9.1608Y-3.8513
X9.1608Y-3.9513
X9.1608Y-4.5614
X9.1608Y-4.6614
X9.1612Y-1.7308
X9.1612Y-1.8308
X9.1612Y-2.4409
X9.1612Y-2.5409
X9.1612Y-3.1511
X9.1612Y-3.2511
X9.2608Y-3.8513
X9.2608Y-3.9513
X9.2608Y-4.5614
X9.2608Y-4.6614
X9.2612Y-1.7308
X9.2612Y-1.8308
X9.2612Y-2.4409
X9.2612Y-2.5409
X9.2612Y-3.1511
X9.2612Y-3.2511
T5
X3.9825Y-1.9333
X3.9825Y-2.6518
X3.9825Y-3.3704
X3.9825Y-4.079
X3.9848Y-4.7877
X4.1793Y-1.9333
X4.1793Y-2.6518
X4.1793Y-3.3704
X4.1793Y-4.079
X4.1817Y-4.7877
X8.5356Y-6.486
X8.5356Y-6.9781
X8.5356Y-7.0785
X8.5356Y-7.5706
X8.688Y-1.3713
X8.7955Y-2.1166
X8.7955Y-2.8253
X8.8363Y-3.539
X8.8402Y-4.2378
X8.8848Y-1.3713
X8.9923Y-2.1166
X8.9923Y-2.8253
X9.0332Y-3.539
X9.037Y-4.2378
T6
X3.5264Y-8.082
X3.5264Y-8.3557
X3.5264Y-8.6293
X3.5264Y-8.9029
X3.6248Y-8.082
X3.6248Y-8.3557
X3.6248Y-8.6293
X3.6248Y-8.9029
X3.7233Y-8.082
X3.7233Y-8.3557
X3.7233Y-8.6293
X3.7233Y-8.9029
X3.8217Y-8.082
X3.8217Y-8.3557
X3.8217Y-8.6293
X3.8217Y-8.9029
X3.86Y-10.3221
X3.86Y-10.4205
X3.86Y-10.519
X3.86Y-10.6174
X3.86Y-10.7158
X3.9201Y-8.082
X3.9201Y-8.3557
X3.9201Y-8.6293
X3.9201Y-8.9029
X4.0858Y-10.5174
X4.0858Y-10.6158
X4.0858Y-10.7142
X4.3116Y-10.3205
X4.3116Y-10.419
X4.3116Y-10.5174
X4.3116Y-10.6158
X4.3116Y-10.7142
X4.5373Y-10.5174
X4.5373Y-10.6158
X4.5373Y-10.7142
X4.7631Y-10.3205
X4.7631Y-10.419
X4.7631Y-10.5174
X4.7631Y-10.6158
X4.7631Y-10.7142
X4.9889Y-10.5174
X4.9889Y-10.6158
X4.9889Y-10.7142
X5.2147Y-10.3205
X5.2147Y-10.419
X5.2147Y-10.5174
X5.2147Y-10.6158
X5.2147Y-10.7142
X5.4404Y-10.5174
X5.4404Y-10.6158
X5.4404Y-10.7142
X5.6662Y-10.3205
X5.6662Y-10.419
X5.6662Y-10.5174
X5.6662Y-10.6158
X5.6662Y-10.7142
X5.892Y-10.5174
X5.892Y-10.6158
X5.892Y-10.7142
X6.1177Y-10.3205
X6.1177Y-10.419
X6.1177Y-10.5174
X6.1177Y-10.6158
X6.1177Y-10.7142
X6.2248Y-1.5843
X6.2248Y-2.3143
X6.3248Y-1.5843
X6.3248Y-2.3143
X6.3435Y-10.5174
X6.3435Y-10.6158
X6.3435Y-10.7142
X6.5693Y-10.3205
X6.5693Y-10.419
X6.5693Y-10.5174
X6.5693Y-10.6158
X6.5693Y-10.7142
X6.6448Y-1.5843
X6.6448Y-2.3143
X6.7448Y-1.5843
X6.7448Y-2.3143
X6.795Y-10.5174
X6.795Y-10.6158
X6.795Y-10.7142
X7.0208Y-10.3205
X7.0208Y-10.419
X7.0208Y-10.5174
X7.0208Y-10.6158
X7.0208Y-10.7142
X7.2466Y-10.5174
X7.2466Y-10.6158
X7.2466Y-10.7142
X7.4723Y-10.3205
X7.4723Y-10.419
X7.4723Y-10.5174
X7.4723Y-10.6158
X7.4723Y-10.7142
X7.6802Y-8.2417
X7.6802Y-8.3402
X7.6802Y-8.4386
X7.6981Y-10.5174
X7.6981Y-10.6158
X7.6981Y-10.7142
X7.9239Y-10.3205
X7.9239Y-10.419
X7.9239Y-10.5174
X7.9239Y-10.6158
X7.9239Y-10.7142
X8.1496Y-10.5174
X8.1496Y-10.6158
X8.1496Y-10.7142
X8.3754Y-10.3205
X8.3754Y-10.419
X8.3754Y-10.5174
X8.3754Y-10.6158
X8.3754Y-10.7142
X8.6015Y-10.5174
X8.6015Y-10.6158
X8.6015Y-10.7142
X8.8265Y-10.228
X8.8265Y-10.483
X8.8281Y-10.738
X8.8474Y-8.9957
X8.9249Y-10.228
X8.9249Y-10.483
X8.9265Y-10.738
X8.9458Y-8.9957
X9.0233Y-10.228
X9.0233Y-10.483
X9.0249Y-10.738
X9.0442Y-8.9957
X9.2548Y-5.0593
X9.2674Y-7.8957
X9.2674Y-8.1457
X9.2774Y-8.9957
X9.3221Y-10.199
X9.3221Y-10.2974
X9.3221Y-10.3958
X9.3533Y-5.0593
X9.3564Y-6.0247
X9.3564Y-6.2793
X9.3658Y-7.8957
X9.3658Y-8.1457
X9.3758Y-8.9957
X9.4517Y-5.0593
X9.4548Y-6.0247
X9.4548Y-6.2793
X9.4642Y-7.8957
X9.4642Y-8.1457
X9.4742Y-8.9957
T7
X3.5652Y-6.9284
X3.5652Y-7.0784
X3.5652Y-7.2284
X3.5652Y-7.3784
X3.6045Y-7.693
X3.9037Y-7.693
X5.0848Y-7.2193
X5.1848Y-7.2193
X5.2848Y-7.2193
X5.3848Y-7.2193
X5.4848Y-7.2193
X5.5848Y-7.2193
X5.6848Y-7.2193
X7.0198Y-6.9593
X7.0198Y-7.0593
X7.0198Y-7.1593
X7.0198Y-7.2593
X8.8029Y-7.9426
X8.8029Y-8.0426
X9.4198Y-6.5962
X9.4198Y-6.6946
X9.4198Y-6.7931
X9.4198Y-6.8915
X9.4198Y-6.9899
X9.4198Y-7.1986
X9.4198Y-7.297
X9.4198Y-7.3954
X9.4198Y-7.4939
X9.4198Y-7.5923
X9.4348Y-5.6703
X9.4348Y-5.8203
T8
X3.4667Y-3.6434
X3.4667Y-3.7934
X3.4667Y-3.9434
X3.4667Y-4.0934
X3.4673Y-5.0543
X3.4673Y-5.2043
X3.4673Y-5.3543
X3.4673Y-5.5043
X3.4687Y-2.9268
X3.4687Y-3.0768
X3.4687Y-3.2268
X3.4687Y-3.3768
X3.4707Y-1.4977
X3.4707Y-1.6477
X3.4707Y-1.7977
X3.4707Y-1.9477
X3.4707Y-2.2137
X3.4707Y-2.3637
X3.4707Y-2.5137
X3.4707Y-2.6637
X3.4707Y-4.3597
X3.4707Y-4.5097
X3.4707Y-4.6597
X3.4707Y-4.8097
X3.5652Y-6.5784
X3.5652Y-6.7284
X3.5673Y-5.0568
X3.5673Y-5.2068
X3.5673Y-5.3568
X3.5673Y-5.5068
X3.5691Y-1.4977
X3.5691Y-1.6477
X3.5691Y-1.7977
X3.5691Y-1.9477
X3.5691Y-2.2129
X3.5691Y-2.3629
X3.5691Y-2.5129
X3.5691Y-2.6629
X3.5691Y-2.928
X3.5691Y-3.078
X3.5691Y-3.228
X3.5691Y-3.378
X3.5691Y-3.6432
X3.5691Y-3.7932
X3.5691Y-3.9432
X3.5691Y-4.0932
X3.5691Y-4.3583
X3.5691Y-4.5083
X3.5691Y-4.6583
X3.5691Y-4.8083
X9.4248Y-1.4223
X9.4248Y-1.5723
X9.4248Y-1.7223
X9.4248Y-1.8723
X9.4248Y-2.1373
X9.4248Y-2.2873
X9.4248Y-2.4373
X9.4248Y-2.5873
X9.4248Y-2.8393
X9.4248Y-2.9893
X9.4248Y-3.1393
X9.4248Y-3.2893
X9.4248Y-3.5493
X9.4248Y-3.6993
X9.4248Y-3.8493
X9.4248Y-3.9993
X9.4248Y-4.2602
X9.4248Y-4.4102
X9.4248Y-4.5602
X9.4248Y-4.7102
X9.4348Y-5.3093
X9.4348Y-5.4593
X9.4358Y-8.3902
X9.4358Y-8.5402
X9.4358Y-8.6902
X9.5248Y-1.4223
X9.5248Y-1.5723
X9.5248Y-1.7223
X9.5248Y-1.8723
X9.5248Y-2.8393
X9.5248Y-2.9893
X9.5248Y-3.1393
X9.5248Y-3.2893
X9.5248Y-3.5493
X9.5248Y-3.6993
X9.5248Y-3.8493
X9.5248Y-3.9993
X9.5256Y-4.2598
X9.5256Y-4.4098
X9.5256Y-4.5598
X9.5256Y-4.7098
X9.5274Y-2.1373
X9.5274Y-2.2873
X9.5274Y-2.4373
X9.5274Y-2.5873
T9
X3.6724Y-5.7717
X3.6724Y-5.9686
X3.6724Y-6.1654
X3.6724Y-6.3623
M30
