%TF.GenerationSoftware,KiCad,Pcbnew,7.0.10*%
%TF.CreationDate,2024-02-14T22:06:42+09:00*%
%TF.ProjectId,crimping_machine,6372696d-7069-46e6-975f-6d616368696e,rev?*%
%TF.SameCoordinates,Original*%
%TF.FileFunction,Soldermask,Bot*%
%TF.FilePolarity,Negative*%
%FSLAX46Y46*%
G04 Gerber Fmt 4.6, Leading zero omitted, Abs format (unit mm)*
G04 Created by KiCad (PCBNEW 7.0.10) date 2024-02-14 22:06:42*
%MOMM*%
%LPD*%
G01*
G04 APERTURE LIST*
G04 Aperture macros list*
%AMRoundRect*
0 Rectangle with rounded corners*
0 $1 Rounding radius*
0 $2 $3 $4 $5 $6 $7 $8 $9 X,Y pos of 4 corners*
0 Add a 4 corners polygon primitive as box body*
4,1,4,$2,$3,$4,$5,$6,$7,$8,$9,$2,$3,0*
0 Add four circle primitives for the rounded corners*
1,1,$1+$1,$2,$3*
1,1,$1+$1,$4,$5*
1,1,$1+$1,$6,$7*
1,1,$1+$1,$8,$9*
0 Add four rect primitives between the rounded corners*
20,1,$1+$1,$2,$3,$4,$5,0*
20,1,$1+$1,$4,$5,$6,$7,0*
20,1,$1+$1,$6,$7,$8,$9,0*
20,1,$1+$1,$8,$9,$2,$3,0*%
G04 Aperture macros list end*
%ADD10C,2.500000*%
%ADD11RoundRect,0.250000X0.675000X-0.600000X0.675000X0.600000X-0.675000X0.600000X-0.675000X-0.600000X0*%
%ADD12O,1.850000X1.700000*%
%ADD13C,3.200000*%
%ADD14C,1.700000*%
%ADD15C,2.200000*%
%ADD16RoundRect,0.250000X-0.600000X-0.675000X0.600000X-0.675000X0.600000X0.675000X-0.600000X0.675000X0*%
%ADD17O,1.700000X1.850000*%
%ADD18R,1.700000X1.700000*%
%ADD19RoundRect,0.250000X0.600000X0.675000X-0.600000X0.675000X-0.600000X-0.675000X0.600000X-0.675000X0*%
%ADD20R,1.600000X1.600000*%
%ADD21C,1.600000*%
%ADD22O,1.700000X1.700000*%
%ADD23R,2.000000X2.000000*%
%ADD24C,2.000000*%
%ADD25C,1.500000*%
%ADD26RoundRect,0.237500X-0.250000X-0.237500X0.250000X-0.237500X0.250000X0.237500X-0.250000X0.237500X0*%
%ADD27RoundRect,0.250000X-0.350000X-0.450000X0.350000X-0.450000X0.350000X0.450000X-0.350000X0.450000X0*%
%ADD28RoundRect,0.237500X0.300000X0.237500X-0.300000X0.237500X-0.300000X-0.237500X0.300000X-0.237500X0*%
%ADD29RoundRect,0.237500X-0.300000X-0.237500X0.300000X-0.237500X0.300000X0.237500X-0.300000X0.237500X0*%
%ADD30RoundRect,0.250000X0.337500X0.475000X-0.337500X0.475000X-0.337500X-0.475000X0.337500X-0.475000X0*%
%ADD31RoundRect,0.250000X0.450000X0.425000X-0.450000X0.425000X-0.450000X-0.425000X0.450000X-0.425000X0*%
%ADD32RoundRect,0.150000X0.825000X0.150000X-0.825000X0.150000X-0.825000X-0.150000X0.825000X-0.150000X0*%
%ADD33RoundRect,0.250000X-0.450000X-0.425000X0.450000X-0.425000X0.450000X0.425000X-0.450000X0.425000X0*%
%ADD34C,1.400000*%
%ADD35RoundRect,0.237500X0.237500X-0.300000X0.237500X0.300000X-0.237500X0.300000X-0.237500X-0.300000X0*%
%ADD36RoundRect,0.237500X-0.237500X0.300000X-0.237500X-0.300000X0.237500X-0.300000X0.237500X0.300000X0*%
G04 APERTURE END LIST*
D10*
%TO.C,J30*%
X-503650000Y-59400000D03*
X-503650000Y-64400000D03*
X-503650000Y-69400000D03*
X-503650000Y-74400000D03*
%TD*%
D11*
%TO.C,J23*%
X-389409580Y-161210000D03*
D12*
X-389409580Y-158710000D03*
X-389409580Y-156210000D03*
X-389409580Y-153710000D03*
X-389409580Y-151210000D03*
%TD*%
D11*
%TO.C,J28*%
X-365364000Y-153122000D03*
D12*
X-365364000Y-150622000D03*
X-365364000Y-148122000D03*
%TD*%
D13*
%TO.C,H1*%
X-512445000Y83185000D03*
%TD*%
D14*
%TO.C,U29*%
X-436245000Y43942000D03*
X-436245000Y46482000D03*
X-436245000Y49022000D03*
X-436245000Y51562000D03*
X-436245000Y54102000D03*
X-436245000Y56642000D03*
X-436245000Y59182000D03*
X-436245000Y61722000D03*
X-436245000Y64262000D03*
X-436245000Y66802000D03*
X-436245000Y69342000D03*
X-492125000Y69342000D03*
X-492125000Y66802000D03*
X-492125000Y64262000D03*
X-492125000Y61722000D03*
X-492125000Y59182000D03*
X-492125000Y56642000D03*
X-492125000Y54102000D03*
X-492125000Y51562000D03*
X-492125000Y49022000D03*
X-492125000Y46482000D03*
X-492125000Y43942000D03*
X-494665000Y43942000D03*
X-494665000Y46482000D03*
X-494665000Y49022000D03*
X-494665000Y51562000D03*
X-494665000Y54102000D03*
X-494665000Y56642000D03*
X-494665000Y59182000D03*
X-494665000Y61722000D03*
X-494665000Y64262000D03*
X-494665000Y66802000D03*
X-494665000Y69342000D03*
%TD*%
D15*
%TO.C,J33*%
X-367770000Y240000D03*
X-367770000Y4050000D03*
X-367770000Y7860000D03*
X-367770000Y11670000D03*
%TD*%
%TO.C,J35*%
X-367820000Y56007000D03*
X-367820000Y59817000D03*
X-367820000Y63627000D03*
X-367820000Y67437000D03*
%TD*%
D11*
%TO.C,J15*%
X-435350060Y-161210000D03*
D12*
X-435350060Y-158710000D03*
X-435350060Y-156210000D03*
X-435350060Y-153710000D03*
X-435350060Y-151210000D03*
%TD*%
D15*
%TO.C,J29*%
X-506410000Y-109120000D03*
X-506410000Y-112930000D03*
X-506410000Y-116740000D03*
X-506410000Y-120550000D03*
%TD*%
D16*
%TO.C,J1*%
X-404050000Y-110738300D03*
D17*
X-401550000Y-110738300D03*
%TD*%
D11*
%TO.C,J3*%
X-504260780Y-161210000D03*
D12*
X-504260780Y-158710000D03*
X-504260780Y-156210000D03*
X-504260780Y-153710000D03*
X-504260780Y-151210000D03*
%TD*%
D14*
%TO.C,U27*%
X-436245000Y-50038000D03*
X-436245000Y-47498000D03*
X-436245000Y-44958000D03*
X-436245000Y-42418000D03*
X-436245000Y-39878000D03*
X-436245000Y-37338000D03*
X-436245000Y-34798000D03*
X-436245000Y-32258000D03*
X-436245000Y-29718000D03*
X-436245000Y-27178000D03*
X-436245000Y-24638000D03*
X-492125000Y-24638000D03*
X-492125000Y-27178000D03*
X-492125000Y-29718000D03*
X-492125000Y-32258000D03*
X-492125000Y-34798000D03*
X-492125000Y-37338000D03*
X-492125000Y-39878000D03*
X-492125000Y-42418000D03*
X-492125000Y-44958000D03*
X-492125000Y-47498000D03*
X-492125000Y-50038000D03*
X-494665000Y-50038000D03*
X-494665000Y-47498000D03*
X-494665000Y-44958000D03*
X-494665000Y-42418000D03*
X-494665000Y-39878000D03*
X-494665000Y-37338000D03*
X-494665000Y-34798000D03*
X-494665000Y-32258000D03*
X-494665000Y-29718000D03*
X-494665000Y-27178000D03*
X-494665000Y-24638000D03*
%TD*%
D18*
%TO.C,U24*%
X-407035000Y14922500D03*
D14*
X-407035000Y12382500D03*
X-407035000Y9842500D03*
X-407035000Y7302500D03*
X-407035000Y4762500D03*
X-407035000Y2222500D03*
X-407035000Y-317500D03*
X-407035000Y-2857500D03*
X-407035000Y-5397500D03*
X-407035000Y-7937500D03*
X-407035000Y-10477500D03*
X-371475000Y-10477500D03*
X-371475000Y-7937500D03*
X-371475000Y-5397500D03*
X-371475000Y-2857500D03*
X-371475000Y-317500D03*
X-371475000Y2222500D03*
X-371475000Y4762500D03*
X-371475000Y7302500D03*
X-371475000Y9842500D03*
X-371475000Y12382500D03*
X-371475000Y14922500D03*
%TD*%
D11*
%TO.C,J21*%
X-400894700Y-161210000D03*
D12*
X-400894700Y-158710000D03*
X-400894700Y-156210000D03*
X-400894700Y-153710000D03*
X-400894700Y-151210000D03*
%TD*%
D16*
%TO.C,J26*%
X-377952000Y-148859000D03*
D17*
X-375452000Y-148859000D03*
X-372952000Y-148859000D03*
%TD*%
D19*
%TO.C,J54*%
X-384500000Y-88500000D03*
D17*
X-387000000Y-88500000D03*
%TD*%
D11*
%TO.C,J24*%
X-383667020Y-161210000D03*
D12*
X-383667020Y-158710000D03*
X-383667020Y-156210000D03*
%TD*%
D19*
%TO.C,J49*%
X-393500000Y-88500000D03*
D17*
X-396000000Y-88500000D03*
%TD*%
D15*
%TO.C,J41*%
X-506476000Y-30353000D03*
X-506476000Y-34163000D03*
X-506476000Y-37973000D03*
X-506476000Y-41783000D03*
%TD*%
D11*
%TO.C,J10*%
X-464062860Y-161210000D03*
D12*
X-464062860Y-158710000D03*
X-464062860Y-156210000D03*
%TD*%
D11*
%TO.C,J22*%
X-395152140Y-161210000D03*
D12*
X-395152140Y-158710000D03*
X-395152140Y-156210000D03*
%TD*%
D20*
%TO.C,C48*%
X-501700000Y-52500000D03*
D21*
X-501700000Y-47500000D03*
%TD*%
D11*
%TO.C,J13*%
X-446835180Y-161210000D03*
D12*
X-446835180Y-158710000D03*
X-446835180Y-156210000D03*
X-446835180Y-153710000D03*
X-446835180Y-151210000D03*
%TD*%
D18*
%TO.C,U25*%
X-407035000Y43402250D03*
D14*
X-407035000Y40862250D03*
X-407035000Y38322250D03*
X-407035000Y35782250D03*
X-407035000Y33242250D03*
X-407035000Y30702250D03*
X-407035000Y28162250D03*
X-407035000Y25622250D03*
X-407035000Y23082250D03*
X-407035000Y20542250D03*
X-407035000Y18002250D03*
X-371475000Y18002250D03*
X-371475000Y20542250D03*
X-371475000Y23082250D03*
X-371475000Y25622250D03*
X-371475000Y28162250D03*
X-371475000Y30702250D03*
X-371475000Y33242250D03*
X-371475000Y35782250D03*
X-371475000Y38322250D03*
X-371475000Y40862250D03*
X-371475000Y43402250D03*
%TD*%
%TO.C,U39*%
X-410808000Y74764000D03*
X-413348000Y74764000D03*
X-421476000Y74764000D03*
X-424016000Y74764000D03*
X-424016000Y56222000D03*
X-421476000Y56222000D03*
X-413348000Y56222000D03*
X-410808000Y56222000D03*
%TD*%
D11*
%TO.C,J12*%
X-452577740Y-161210000D03*
D12*
X-452577740Y-158710000D03*
X-452577740Y-156210000D03*
%TD*%
D19*
%TO.C,J52*%
X-386050000Y-75200000D03*
D17*
X-388550000Y-75200000D03*
X-391050000Y-75200000D03*
X-393550000Y-75200000D03*
X-396050000Y-75200000D03*
%TD*%
D16*
%TO.C,J25*%
X-377952000Y-155336000D03*
D17*
X-375452000Y-155336000D03*
X-372952000Y-155336000D03*
%TD*%
D18*
%TO.C,J48*%
X-416306000Y-71602600D03*
D22*
X-418846000Y-71602600D03*
X-421386000Y-71602600D03*
X-423926000Y-71602600D03*
%TD*%
D14*
%TO.C,U28*%
X-436245000Y-3048000D03*
X-436245000Y-508000D03*
X-436245000Y2032000D03*
X-436245000Y4572000D03*
X-436245000Y7112000D03*
X-436245000Y9652000D03*
X-436245000Y12192000D03*
X-436245000Y14732000D03*
X-436245000Y17272000D03*
X-436245000Y19812000D03*
X-436245000Y22352000D03*
X-492125000Y22352000D03*
X-492125000Y19812000D03*
X-492125000Y17272000D03*
X-492125000Y14732000D03*
X-492125000Y12192000D03*
X-492125000Y9652000D03*
X-492125000Y7112000D03*
X-492125000Y4572000D03*
X-492125000Y2032000D03*
X-492125000Y-508000D03*
X-492125000Y-3048000D03*
X-494665000Y-3048000D03*
X-494665000Y-508000D03*
X-494665000Y2032000D03*
X-494665000Y4572000D03*
X-494665000Y7112000D03*
X-494665000Y9652000D03*
X-494665000Y12192000D03*
X-494665000Y14732000D03*
X-494665000Y17272000D03*
X-494665000Y19812000D03*
X-494665000Y22352000D03*
%TD*%
D18*
%TO.C,J56*%
X-378080000Y-95220000D03*
D22*
X-375540000Y-95220000D03*
X-373000000Y-95220000D03*
X-370460000Y-95220000D03*
%TD*%
D15*
%TO.C,J46*%
X-506437000Y63910000D03*
X-506437000Y60100000D03*
X-506437000Y56290000D03*
X-506437000Y52480000D03*
%TD*%
D18*
%TO.C,J55*%
X-475400000Y-77060000D03*
D22*
X-475400000Y-79600000D03*
X-475400000Y-82140000D03*
X-475400000Y-84680000D03*
X-475400000Y-87220000D03*
X-475400000Y-89760000D03*
X-475400000Y-92300000D03*
X-475400000Y-94840000D03*
X-475400000Y-97380000D03*
X-475400000Y-99920000D03*
X-475400000Y-102460000D03*
X-475400000Y-105000000D03*
%TD*%
D11*
%TO.C,J20*%
X-406637260Y-161210000D03*
D12*
X-406637260Y-158710000D03*
X-406637260Y-156210000D03*
%TD*%
D16*
%TO.C,J27*%
X-377912000Y-161813000D03*
D17*
X-375412000Y-161813000D03*
X-372912000Y-161813000D03*
%TD*%
D18*
%TO.C,U22*%
X-407035000Y-42037000D03*
D14*
X-407035000Y-44577000D03*
X-407035000Y-47117000D03*
X-407035000Y-49657000D03*
X-407035000Y-52197000D03*
X-407035000Y-54737000D03*
X-407035000Y-57277000D03*
X-407035000Y-59817000D03*
X-407035000Y-62357000D03*
X-407035000Y-64897000D03*
X-407035000Y-67437000D03*
X-371475000Y-67437000D03*
X-371475000Y-64897000D03*
X-371475000Y-62357000D03*
X-371475000Y-59817000D03*
X-371475000Y-57277000D03*
X-371475000Y-54737000D03*
X-371475000Y-52197000D03*
X-371475000Y-49657000D03*
X-371475000Y-47117000D03*
X-371475000Y-44577000D03*
X-371475000Y-42037000D03*
%TD*%
D19*
%TO.C,J53*%
X-386050000Y-81804000D03*
D17*
X-388550000Y-81804000D03*
X-391050000Y-81804000D03*
X-393550000Y-81804000D03*
X-396050000Y-81804000D03*
%TD*%
D11*
%TO.C,J6*%
X-487033100Y-161210000D03*
D12*
X-487033100Y-158710000D03*
X-487033100Y-156210000D03*
%TD*%
D16*
%TO.C,J47*%
X-395150000Y-102850000D03*
D17*
X-392650000Y-102850000D03*
X-390150000Y-102850000D03*
%TD*%
D11*
%TO.C,J19*%
X-412379820Y-161210000D03*
D12*
X-412379820Y-158710000D03*
X-412379820Y-156210000D03*
X-412379820Y-153710000D03*
X-412379820Y-151210000D03*
%TD*%
D13*
%TO.C,H5*%
X-361950000Y-161925000D03*
%TD*%
D11*
%TO.C,J17*%
X-423864940Y-161210000D03*
D12*
X-423864940Y-158710000D03*
X-423864940Y-156210000D03*
X-423864940Y-153710000D03*
X-423864940Y-151210000D03*
%TD*%
D15*
%TO.C,J44*%
X-506487000Y16920000D03*
X-506487000Y13110000D03*
X-506487000Y9300000D03*
X-506487000Y5490000D03*
%TD*%
D20*
%TO.C,C49*%
X-501700000Y-5500000D03*
D21*
X-501700000Y-500000D03*
%TD*%
D15*
%TO.C,J31*%
X-367800000Y-55850000D03*
X-367800000Y-52040000D03*
X-367800000Y-48230000D03*
X-367800000Y-44420000D03*
%TD*%
D23*
%TO.C,BZ1*%
X-508120000Y-103020000D03*
D24*
X-508120000Y-95420000D03*
%TD*%
D18*
%TO.C,U23*%
X-407035000Y-13557250D03*
D14*
X-407035000Y-16097250D03*
X-407035000Y-18637250D03*
X-407035000Y-21177250D03*
X-407035000Y-23717250D03*
X-407035000Y-26257250D03*
X-407035000Y-28797250D03*
X-407035000Y-31337250D03*
X-407035000Y-33877250D03*
X-407035000Y-36417250D03*
X-407035000Y-38957250D03*
X-371475000Y-38957250D03*
X-371475000Y-36417250D03*
X-371475000Y-33877250D03*
X-371475000Y-31337250D03*
X-371475000Y-28797250D03*
X-371475000Y-26257250D03*
X-371475000Y-23717250D03*
X-371475000Y-21177250D03*
X-371475000Y-18637250D03*
X-371475000Y-16097250D03*
X-371475000Y-13557250D03*
%TD*%
D11*
%TO.C,J5*%
X-492775660Y-161210000D03*
D12*
X-492775660Y-158710000D03*
X-492775660Y-156210000D03*
X-492775660Y-153710000D03*
X-492775660Y-151210000D03*
%TD*%
D11*
%TO.C,J11*%
X-458320300Y-161210000D03*
D12*
X-458320300Y-158710000D03*
X-458320300Y-156210000D03*
X-458320300Y-153710000D03*
X-458320300Y-151210000D03*
%TD*%
D14*
%TO.C,J51*%
X-367820000Y-80800000D03*
X-367820000Y-76990000D03*
X-367820000Y-73180000D03*
%TD*%
D11*
%TO.C,J18*%
X-418122380Y-161210000D03*
D12*
X-418122380Y-158710000D03*
X-418122380Y-156210000D03*
%TD*%
D15*
%TO.C,J32*%
X-367795000Y-27940000D03*
X-367795000Y-24130000D03*
X-367795000Y-20320000D03*
X-367795000Y-16510000D03*
%TD*%
D11*
%TO.C,J14*%
X-441092620Y-161210000D03*
D12*
X-441092620Y-158710000D03*
X-441092620Y-156210000D03*
%TD*%
D11*
%TO.C,J7*%
X-481290540Y-161210000D03*
D12*
X-481290540Y-158710000D03*
X-481290540Y-156210000D03*
X-481290540Y-153710000D03*
X-481290540Y-151210000D03*
%TD*%
D11*
%TO.C,J8*%
X-475547980Y-161210000D03*
D12*
X-475547980Y-158710000D03*
X-475547980Y-156210000D03*
%TD*%
D15*
%TO.C,J34*%
X-367745000Y28865000D03*
X-367745000Y32675000D03*
X-367745000Y36485000D03*
X-367745000Y40295000D03*
%TD*%
D16*
%TO.C,J50*%
X-395361200Y-110718600D03*
D17*
X-392861200Y-110718600D03*
%TD*%
D25*
%TO.C,Y1*%
X-463700000Y-99900000D03*
X-463700000Y-96100000D03*
%TD*%
D11*
%TO.C,J16*%
X-429607500Y-161210000D03*
D12*
X-429607500Y-158710000D03*
X-429607500Y-156210000D03*
%TD*%
D18*
%TO.C,U26*%
X-407035000Y71882000D03*
D14*
X-407035000Y69342000D03*
X-407035000Y66802000D03*
X-407035000Y64262000D03*
X-407035000Y61722000D03*
X-407035000Y59182000D03*
X-407035000Y56642000D03*
X-407035000Y54102000D03*
X-407035000Y51562000D03*
X-407035000Y49022000D03*
X-407035000Y46482000D03*
X-371475000Y46482000D03*
X-371475000Y49022000D03*
X-371475000Y51562000D03*
X-371475000Y54102000D03*
X-371475000Y56642000D03*
X-371475000Y59182000D03*
X-371475000Y61722000D03*
X-371475000Y64262000D03*
X-371475000Y66802000D03*
X-371475000Y69342000D03*
X-371475000Y71882000D03*
%TD*%
D20*
%TO.C,C50*%
X-501700000Y41500000D03*
D21*
X-501700000Y46500000D03*
%TD*%
D11*
%TO.C,J4*%
X-498518220Y-161210000D03*
D12*
X-498518220Y-158710000D03*
X-498518220Y-156210000D03*
%TD*%
D13*
%TO.C,H4*%
X-512445000Y-161925000D03*
%TD*%
D11*
%TO.C,J9*%
X-469805420Y-161210000D03*
D12*
X-469805420Y-158710000D03*
X-469805420Y-156210000D03*
X-469805420Y-153710000D03*
X-469805420Y-151210000D03*
%TD*%
D14*
%TO.C,J2*%
X-367800000Y-68440000D03*
X-367800000Y-64630000D03*
%TD*%
D18*
%TO.C,J57*%
X-472400000Y-77060000D03*
D22*
X-472400000Y-79600000D03*
X-472400000Y-82140000D03*
X-472400000Y-84680000D03*
X-472400000Y-87220000D03*
X-472400000Y-89760000D03*
X-472400000Y-92300000D03*
X-472400000Y-94840000D03*
X-472400000Y-97380000D03*
X-472400000Y-99920000D03*
X-472400000Y-102460000D03*
X-472400000Y-105000000D03*
%TD*%
D13*
%TO.C,H2*%
X-361950000Y83185000D03*
%TD*%
D15*
%TO.C,J38*%
X-365506000Y11684000D03*
X-365506000Y7874000D03*
X-365506000Y4064000D03*
X-365506000Y254000D03*
%TD*%
D26*
%TO.C,R27*%
X-362925000Y-102250000D03*
X-361100000Y-102250000D03*
%TD*%
D27*
%TO.C,R3*%
X-447379600Y-91044440D03*
X-445379600Y-91044440D03*
%TD*%
D15*
%TO.C,J45*%
X-508850000Y52480000D03*
X-508850000Y56290000D03*
X-508850000Y60100000D03*
X-508850000Y63910000D03*
%TD*%
D28*
%TO.C,C21*%
X-445517100Y-97684680D03*
X-447242100Y-97684680D03*
%TD*%
D29*
%TO.C,C20*%
X-455318200Y-84277200D03*
X-453593200Y-84277200D03*
%TD*%
D28*
%TO.C,C18*%
X-438303500Y-82499200D03*
X-440028500Y-82499200D03*
%TD*%
D15*
%TO.C,J37*%
X-365506000Y40259000D03*
X-365506000Y36449000D03*
X-365506000Y32639000D03*
X-365506000Y28829000D03*
%TD*%
D28*
%TO.C,C9*%
X-441916350Y-100894801D03*
X-443641350Y-100894801D03*
%TD*%
D30*
%TO.C,C12*%
X-459925000Y-96100000D03*
X-462000000Y-96100000D03*
%TD*%
D31*
%TO.C,C25*%
X-433577350Y-100894801D03*
X-436277350Y-100894801D03*
%TD*%
D28*
%TO.C,C4*%
X-429769100Y-97023600D03*
X-431494100Y-97023600D03*
%TD*%
D29*
%TO.C,C63*%
X-362875000Y-104000000D03*
X-361150000Y-104000000D03*
%TD*%
D28*
%TO.C,C65*%
X-365490000Y-96370000D03*
X-367215000Y-96370000D03*
%TD*%
%TO.C,C2*%
X-441910300Y-82448400D03*
X-443635300Y-82448400D03*
%TD*%
D15*
%TO.C,J40*%
X-365500000Y-44437000D03*
X-365500000Y-48247000D03*
X-365500000Y-52057000D03*
X-365500000Y-55867000D03*
%TD*%
D28*
%TO.C,C1*%
X-445517100Y-84404200D03*
X-447242100Y-84404200D03*
%TD*%
D32*
%TO.C,U3*%
X-435613000Y-89408000D03*
X-435613000Y-90678000D03*
X-435613000Y-91948000D03*
X-435613000Y-93218000D03*
X-440563000Y-93218000D03*
X-440563000Y-91948000D03*
X-440563000Y-90678000D03*
X-440563000Y-89408000D03*
%TD*%
D28*
%TO.C,C10*%
X-445517100Y-100894801D03*
X-447242100Y-100894801D03*
%TD*%
D33*
%TO.C,C64*%
X-363150000Y-96370000D03*
X-360450000Y-96370000D03*
%TD*%
D30*
%TO.C,C13*%
X-459925000Y-99900000D03*
X-462000000Y-99900000D03*
%TD*%
D15*
%TO.C,J36*%
X-365442000Y67437000D03*
X-365442000Y63627000D03*
X-365442000Y59817000D03*
X-365442000Y56007000D03*
%TD*%
%TO.C,J39*%
X-365506000Y-16510000D03*
X-365506000Y-20320000D03*
X-365506000Y-24130000D03*
X-365506000Y-27940000D03*
%TD*%
D34*
%TO.C,U36*%
X-382700000Y-54150000D03*
X-382700000Y-57350000D03*
X-382700000Y-59550000D03*
X-382700000Y-61750000D03*
X-385900000Y-61750000D03*
X-385900000Y-59550000D03*
X-385900000Y-57350000D03*
X-385900000Y-54150000D03*
%TD*%
D28*
%TO.C,C7*%
X-429769100Y-93152400D03*
X-431494100Y-93152400D03*
%TD*%
D15*
%TO.C,J42*%
X-508889000Y-41783000D03*
X-508889000Y-37973000D03*
X-508889000Y-34163000D03*
X-508889000Y-30353000D03*
%TD*%
D35*
%TO.C,C19*%
X-455217700Y-82498100D03*
X-455217700Y-80773100D03*
%TD*%
D28*
%TO.C,C6*%
X-445517100Y-82448400D03*
X-447242100Y-82448400D03*
%TD*%
D29*
%TO.C,C3*%
X-447242100Y-94474560D03*
X-445517100Y-94474560D03*
%TD*%
D28*
%TO.C,C14*%
X-431089900Y-82448400D03*
X-432814900Y-82448400D03*
%TD*%
%TO.C,C8*%
X-445517100Y-87614320D03*
X-447242100Y-87614320D03*
%TD*%
D36*
%TO.C,C22*%
X-454253600Y-97843000D03*
X-454253600Y-99568000D03*
%TD*%
D28*
%TO.C,C11*%
X-438315600Y-100894801D03*
X-440040600Y-100894801D03*
%TD*%
%TO.C,C5*%
X-429769100Y-89281200D03*
X-431494100Y-89281200D03*
%TD*%
%TO.C,C67*%
X-382900000Y-112800000D03*
X-384625000Y-112800000D03*
%TD*%
%TO.C,C66*%
X-382900000Y-96850000D03*
X-384625000Y-96850000D03*
%TD*%
D31*
%TO.C,C26*%
X-429304100Y-85090000D03*
X-432004100Y-85090000D03*
%TD*%
D26*
%TO.C,R4*%
X-436471700Y-82448400D03*
X-434646700Y-82448400D03*
%TD*%
D15*
%TO.C,J43*%
X-508900000Y5490000D03*
X-508900000Y9300000D03*
X-508900000Y13110000D03*
X-508900000Y16920000D03*
%TD*%
D28*
%TO.C,C17*%
X-429769100Y-100894801D03*
X-431494100Y-100894801D03*
%TD*%
M02*
